SplineFontDB: 3.2
FontName: NV-Jost-BoldItalic
FullName: NV Jost Bold Italic
FamilyName: NV Jost
Weight: Bold
Copyright: Copyright 2020 The Jost Project Authors (https://github.com/indestructible-type/Jost)
Version: 3.710
ItalicAngle: -5
UnderlinePosition: -125
UnderlineWidth: 50
Ascent: 800
Descent: 200
InvalidEm: 0
sfntRevision: 0x0003b5c3
LayerCount: 2
Layer: 0 1 "Back" 1
Layer: 1 1 "Fore" 0
XUID: [1021 434 -963152094 11675]
StyleMap: 0x0021
FSType: 0
OS2Version: 4
OS2_WeightWidthSlopeOnly: 0
OS2_UseTypoMetrics: 1
CreationTime: 1465610489
ModificationTime: 1739040873
PfmFamily: 81
TTFWeight: 700
TTFWidth: 5
LineGap: 0
VLineGap: 0
Panose: 0 0 0 0 0 0 0 0 0 0
OS2TypoAscent: 948
OS2TypoAOffset: 0
OS2TypoDescent: -253
OS2TypoDOffset: 0
OS2TypoLinegap: 0
OS2WinAscent: 948
OS2WinAOffset: 0
OS2WinDescent: 253
OS2WinDOffset: 0
HheadAscent: 948
HheadAOffset: 0
HheadDescent: -253
HheadDOffset: 0
OS2SubXSize: 650
OS2SubYSize: 600
OS2SubXOff: -7
OS2SubYOff: 75
OS2SupXSize: 650
OS2SupYSize: 600
OS2SupXOff: 31
OS2SupYOff: 350
OS2StrikeYSize: 50
OS2StrikeYPos: 276
OS2CapHeight: 700
OS2XHeight: 460
OS2Vendor: 'it* '
OS2CodePages: 20000097.00000000
OS2UnicodeRanges: a00002ef.0000205b.00000010.00000000
Lookup: 1 0 0 "'ss01' Style Set 1 in Latin lookup 0" { "'ss01' Style Set 1 in Latin lookup 0 subtable"  } ['ss01' ('DFLT' <'dflt' > 'latn' <'dflt' > ) ]
Lookup: 1 0 0 "'tnum' Tabular Numbers lookup 1" { "'tnum' Tabular Numbers lookup 1 subtable"  } ['tnum' ('DFLT' <'dflt' > 'grek' <'dflt' > 'latn' <'dflt' > ) ]
Lookup: 258 0 0 "'kern' Horizontal Kerning in Latin lookup 0" { "'kern' Horizontal Kerning in Latin lookup 0 subtable"  } ['kern' ('DFLT' <'dflt' > 'latn' <'dflt' > ) ]
MarkAttachClasses: 1
DEI: 91125
KernClass2: 15+ 14 "'kern' Horizontal Kerning in Latin lookup 0 subtable"

StartChar: A
Encoding: 65 65 3
Width: 713
GlyphClass: 2
Flags: W
LayerCount: 2
Fore
SplineSet
174 135 m 1,0,-1
 536 135 l 1,1,-1
 547 264 l 1,2,-1
 207 264 l 1,3,-1
 174 135 l 1,0,-1
405 443 m 1,4,-1
 463 216 l 1,5,-1
 452 174 l 1,6,-1
 503 0 l 1,7,-1
 686 0 l 1,8,-1
 456 747 l 1,9,-1
 -32 0 l 1,10,-1
 160 0 l 1,11,-1
 275 179 l 1,12,-1
 274 217 l 1,13,-1
 405 443 l 1,4,-1
EndSplineSet
EndChar

StartChar: Agrave
Encoding: 192 192 4
Width: 713
GlyphClass: 2
Flags: W
LayerCount: 2
Fore
SplineSet
174 136 m 1,0,-1
 536 135 l 1,1,-1
 547 264 l 1,2,-1
 207 264 l 1,3,-1
 174 136 l 1,0,-1
409 443 m 1,4,-1
 463 216 l 1,5,-1
 449 174 l 1,6,-1
 503 0 l 1,7,-1
 686 0 l 1,8,-1
 456 747 l 1,9,-1
 -32 0 l 1,10,-1
 160 0 l 1,11,-1
 275 179 l 1,12,-1
 274 217 l 1,13,-1
 409 443 l 1,4,-1
337 957 m 1,14,-1
 489 804 l 1,15,-1
 575 845 l 1,16,-1
 454 1007 l 1,17,-1
 337 957 l 1,14,-1
EndSplineSet
EndChar

StartChar: Aacute
Encoding: 193 193 5
Width: 713
GlyphClass: 2
Flags: W
LayerCount: 2
Fore
SplineSet
174 136 m 1,0,-1
 536 135 l 1,1,-1
 547 264 l 1,2,-1
 207 264 l 1,3,-1
 174 136 l 1,0,-1
409 443 m 1,4,-1
 463 216 l 1,5,-1
 449 174 l 1,6,-1
 503 0 l 1,7,-1
 686 0 l 1,8,-1
 456 747 l 1,9,-1
 -32 0 l 1,10,-1
 160 0 l 1,11,-1
 275 179 l 1,12,-1
 274 217 l 1,13,-1
 409 443 l 1,4,-1
647 952 m 1,14,-1
 539 1006 l 1,15,-1
 368 850 l 1,16,-1
 449 805 l 1,17,-1
 647 952 l 1,14,-1
EndSplineSet
EndChar

StartChar: Acircumflex
Encoding: 194 194 6
Width: 713
GlyphClass: 2
Flags: W
LayerCount: 2
Fore
SplineSet
174 136 m 1,0,-1
 536 135 l 1,1,-1
 547 264 l 1,2,-1
 207 264 l 1,3,-1
 174 136 l 1,0,-1
409 443 m 1,4,-1
 463 216 l 1,5,-1
 449 174 l 1,6,-1
 503 0 l 1,7,-1
 686 0 l 1,8,-1
 456 747 l 1,9,-1
 -32 0 l 1,10,-1
 160 0 l 1,11,-1
 275 179 l 1,12,-1
 274 217 l 1,13,-1
 409 443 l 1,4,-1
483 874 m 1,14,-1
 556 789 l 1,15,-1
 668 858 l 1,16,-1
 496 1000 l 1,17,-1
 285 863 l 1,18,-1
 379 790 l 1,19,-1
 483 874 l 1,14,-1
EndSplineSet
EndChar

StartChar: Atilde
Encoding: 195 195 7
Width: 713
GlyphClass: 2
Flags: W
LayerCount: 2
Fore
SplineSet
174 136 m 1,0,-1
 536 135 l 1,1,-1
 547 264 l 1,2,-1
 207 264 l 1,3,-1
 174 136 l 1,0,-1
409 443 m 1,4,-1
 463 216 l 1,5,-1
 449 174 l 1,6,-1
 503 0 l 1,7,-1
 686 0 l 1,8,-1
 456 747 l 1,9,-1
 -32 0 l 1,10,-1
 160 0 l 1,11,-1
 275 179 l 1,12,-1
 274 217 l 1,13,-1
 409 443 l 1,4,-1
285 864 m 1,14,-1
 349 801 l 1,15,16
 355 815 355 815 367 832.5 c 128,-1,17
 379 850 379 850 404 851 c 0,18,19
 428 852 428 852 447.5 839.5 c 128,-1,20
 467 827 467 827 486.5 813.5 c 128,-1,21
 506 800 506 800 531 799 c 0,22,23
 561 798 561 798 588.5 811 c 128,-1,24
 616 824 616 824 637.5 843.5 c 128,-1,25
 659 863 659 863 672 882 c 1,26,-1
 611 958 l 1,27,28
 596 938 596 938 577.5 922.5 c 128,-1,29
 559 907 559 907 538 906 c 0,30,31
 513 905 513 905 495.5 917.5 c 128,-1,32
 478 930 478 930 459.5 943.5 c 128,-1,33
 441 957 441 957 414 957 c 0,34,35
 384 958 384 958 358 944 c 128,-1,36
 332 930 332 930 314 909 c 128,-1,37
 296 888 296 888 285 864 c 1,14,-1
EndSplineSet
EndChar

StartChar: Adieresis
Encoding: 196 196 8
Width: 713
GlyphClass: 2
Flags: W
LayerCount: 2
Fore
SplineSet
174 136 m 1,0,-1
 536 135 l 1,1,-1
 547 264 l 1,2,-1
 207 264 l 1,3,-1
 174 136 l 1,0,-1
409 443 m 1,4,-1
 463 216 l 1,5,-1
 449 174 l 1,6,-1
 503 0 l 1,7,-1
 686 0 l 1,8,-1
 456 747 l 1,9,-1
 -32 0 l 1,10,-1
 160 0 l 1,11,-1
 275 179 l 1,12,-1
 274 217 l 1,13,-1
 409 443 l 1,4,-1
521 832 m 0,14,15
 517 797 517 797 539.5 773.5 c 128,-1,16
 562 750 562 750 597 749 c 0,17,18
 631 749 631 749 660.5 772 c 128,-1,19
 690 795 690 795 693 829 c 0,20,21
 698 864 698 864 675.5 887.5 c 128,-1,22
 653 911 653 911 619 912 c 0,23,24
 584 912 584 912 555 888.5 c 128,-1,25
 526 865 526 865 521 832 c 0,14,15
244 838 m 0,26,27
 240 803 240 803 262.5 779.5 c 128,-1,28
 285 756 285 756 319 756 c 0,29,30
 354 755 354 755 383 778.5 c 128,-1,31
 412 802 412 802 416 835 c 0,32,33
 421 870 421 870 398.5 894 c 128,-1,34
 376 918 376 918 341 918 c 0,35,36
 307 918 307 918 277.5 895 c 128,-1,37
 248 872 248 872 244 838 c 0,26,27
EndSplineSet
EndChar

StartChar: Aring
Encoding: 197 197 9
Width: 713
GlyphClass: 2
Flags: W
LayerCount: 2
Fore
SplineSet
174 136 m 1,0,-1
 536 135 l 1,1,-1
 547 264 l 1,2,-1
 207 264 l 1,3,-1
 174 136 l 1,0,-1
409 443 m 1,4,-1
 463 216 l 1,5,-1
 449 174 l 1,6,-1
 503 0 l 1,7,-1
 686 0 l 1,8,-1
 456 747 l 1,9,-1
 -32 0 l 1,10,-1
 160 0 l 1,11,-1
 275 179 l 1,12,-1
 274 217 l 1,13,-1
 409 443 l 1,4,-1
344 801 m 0,14,15
 339 769 339 769 352 743 c 128,-1,16
 365 717 365 717 391 701.5 c 128,-1,17
 417 686 417 686 449 686 c 0,18,19
 483 686 483 686 513.5 701 c 128,-1,20
 544 716 544 716 564 741.5 c 128,-1,21
 584 767 584 767 589 799 c 0,22,23
 593 833 593 833 580 859 c 128,-1,24
 567 885 567 885 541 900.5 c 128,-1,25
 515 916 515 916 482 916 c 0,26,27
 448 916 448 916 418.5 901 c 128,-1,28
 389 886 389 886 368.5 860 c 128,-1,29
 348 834 348 834 344 801 c 0,14,15
421 800 m 0,30,31
 423 813 423 813 431.5 824 c 128,-1,32
 440 835 440 835 452.5 842.5 c 128,-1,33
 465 850 465 850 476 849 c 0,34,35
 493 848 493 848 503 834 c 128,-1,36
 513 820 513 820 511 801 c 0,37,38
 509 783 509 783 490.5 768 c 128,-1,39
 472 753 472 753 455 754 c 256,40,41
 438 755 438 755 428.5 768.5 c 128,-1,42
 419 782 419 782 421 800 c 0,30,31
EndSplineSet
EndChar

StartChar: Amacron
Encoding: 256 256 10
Width: 713
GlyphClass: 2
Flags: W
LayerCount: 2
Fore
SplineSet
174 136 m 1,0,-1
 536 135 l 1,1,-1
 547 264 l 1,2,-1
 207 264 l 1,3,-1
 174 136 l 1,0,-1
409 443 m 1,4,-1
 463 216 l 1,5,-1
 449 174 l 1,6,-1
 503 0 l 1,7,-1
 686 0 l 1,8,-1
 456 747 l 1,9,-1
 -32 0 l 1,10,-1
 160 0 l 1,11,-1
 275 179 l 1,12,-1
 274 217 l 1,13,-1
 409 443 l 1,4,-1
285 805 m 1,14,-1
 648 804 l 1,15,-1
 671 935 l 1,16,-1
 308 935 l 1,17,-1
 285 805 l 1,14,-1
EndSplineSet
EndChar

StartChar: Abreve
Encoding: 258 258 11
Width: 713
GlyphClass: 2
Flags: W
LayerCount: 2
Fore
SplineSet
174 136 m 1,0,-1
 536 135 l 1,1,-1
 547 264 l 1,2,-1
 207 264 l 1,3,-1
 174 136 l 1,0,-1
409 443 m 1,4,-1
 463 216 l 1,5,-1
 449 174 l 1,6,-1
 503 0 l 1,7,-1
 686 0 l 1,8,-1
 456 747 l 1,9,-1
 -32 0 l 1,10,-1
 160 0 l 1,11,-1
 275 179 l 1,12,-1
 274 217 l 1,13,-1
 409 443 l 1,4,-1
331 951 m 1,14,15
 328 910 328 910 343 876.5 c 128,-1,16
 358 843 358 843 390 824 c 128,-1,17
 422 805 422 805 471 805 c 0,18,19
 521 805 521 805 558 824.5 c 128,-1,20
 595 844 595 844 619 876.5 c 128,-1,21
 643 909 643 909 651 950 c 1,22,-1
 552 951 l 1,23,24
 547 935 547 935 536.5 921.5 c 128,-1,25
 526 908 526 908 511.5 899.5 c 128,-1,26
 497 891 497 891 477 892 c 0,27,28
 459 893 459 893 447.5 900.5 c 128,-1,29
 436 908 436 908 431.5 921.5 c 128,-1,30
 427 935 427 935 426 951 c 1,31,-1
 331 951 l 1,14,15
EndSplineSet
EndChar

StartChar: Aogonek
Encoding: 260 260 12
Width: 713
GlyphClass: 2
Flags: W
LayerCount: 2
Fore
SplineSet
174 136 m 1,0,-1
 536 135 l 1,1,-1
 547 264 l 1,2,-1
 207 264 l 1,3,-1
 174 136 l 1,0,-1
409 443 m 1,4,-1
 463 216 l 1,5,-1
 449 174 l 1,6,-1
 503 0 l 1,7,-1
 686 0 l 1,8,-1
 456 747 l 1,9,-1
 -32 0 l 1,10,-1
 160 0 l 1,11,-1
 275 179 l 1,12,-1
 274 217 l 1,13,-1
 409 443 l 1,4,-1
624 -111 m 1,14,15
 613 -118 613 -118 599 -124.5 c 128,-1,16
 585 -131 585 -131 570 -130 c 0,17,18
 554 -129 554 -129 548.5 -119 c 128,-1,19
 543 -109 543 -109 544 -94 c 0,20,21
 548 -74 548 -74 562.5 -58 c 128,-1,22
 577 -42 577 -42 597.5 -27.5 c 128,-1,23
 618 -13 618 -13 640 0 c 1,24,-1
 600 25 l 1,25,26
 567 9 567 9 532.5 -11 c 128,-1,27
 498 -31 498 -31 473.5 -57.5 c 128,-1,28
 449 -84 449 -84 444 -119 c 0,29,30
 438 -166 438 -166 468 -192.5 c 128,-1,31
 498 -219 498 -219 544 -220 c 0,32,33
 579 -220 579 -220 603.5 -208.5 c 128,-1,34
 628 -197 628 -197 645 -181 c 1,35,-1
 624 -111 l 1,14,15
EndSplineSet
EndChar

StartChar: B
Encoding: 66 66 13
Width: 644
GlyphClass: 2
Flags: W
LayerCount: 2
Fore
SplineSet
225 349 m 1,0,-1
 359 349 l 2,1,2
 424 349 424 349 481.5 368 c 128,-1,3
 539 387 539 387 578.5 425 c 128,-1,4
 618 463 618 463 626 522 c 0,5,6
 633 567 633 567 618 600.5 c 128,-1,7
 603 634 603 634 571.5 656 c 128,-1,8
 540 678 540 678 498 689 c 128,-1,9
 456 700 456 700 409 700 c 2,10,-1
 163 700 l 1,11,-1
 43 0 l 1,12,-1
 316 0 l 2,13,14
 390 0 390 0 453 20 c 128,-1,15
 516 40 516 40 558 84 c 128,-1,16
 600 128 600 128 610 197 c 0,17,18
 617 249 617 249 599 286.5 c 128,-1,19
 581 324 581 324 546 348.5 c 128,-1,20
 511 373 511 373 466 384.5 c 128,-1,21
 421 396 421 396 374 396 c 2,22,-1
 234 396 l 1,23,-1
 217 304 l 1,24,-1
 348 304 l 2,25,26
 377 304 377 304 400 295.5 c 128,-1,27
 423 287 423 287 435 268.5 c 128,-1,28
 447 250 447 250 442 221 c 0,29,30
 437 190 437 190 417.5 170 c 128,-1,31
 398 150 398 150 370 141 c 128,-1,32
 342 132 342 132 310 131 c 2,33,-1
 232 131 l 1,34,-1
 308 569 l 1,35,-1
 377 569 l 2,36,37
 415 569 415 569 436 550.5 c 128,-1,38
 457 532 457 532 450 498 c 0,39,40
 447 474 447 474 431.5 457 c 128,-1,41
 416 440 416 440 393.5 431 c 128,-1,42
 371 422 371 422 344 422 c 2,43,-1
 238 422 l 1,44,-1
 225 349 l 1,0,-1
EndSplineSet
EndChar

StartChar: C
Encoding: 67 67 14
Width: 680
GlyphClass: 2
Flags: W
LayerCount: 2
Fore
SplineSet
246 350 m 0,0,1
 254 395 254 395 276 432.5 c 128,-1,2
 298 470 298 470 331 497.5 c 128,-1,3
 364 525 364 525 404 540 c 128,-1,4
 444 555 444 555 488 555 c 0,5,6
 552 555 552 555 597 529.5 c 128,-1,7
 642 504 642 504 673 463 c 1,8,-1
 701 645 l 1,9,10
 659 679 659 679 610.5 698 c 128,-1,11
 562 717 562 717 496 716 c 0,12,13
 413 716 413 716 340 688.5 c 128,-1,14
 267 661 267 661 209 612 c 128,-1,15
 151 563 151 563 113.5 496 c 128,-1,16
 76 429 76 429 64 350 c 0,17,18
 53 274 53 274 71 207.5 c 128,-1,19
 89 141 89 141 130.5 90.5 c 128,-1,20
 172 40 172 40 236.5 12 c 128,-1,21
 301 -16 301 -16 381 -16 c 0,22,23
 450 -16 450 -16 503 3.5 c 128,-1,24
 556 23 556 23 603 55 c 1,25,-1
 630 236 l 1,26,27
 587 201 587 201 532.5 173 c 128,-1,28
 478 145 478 145 408 146 c 0,29,30
 365 146 365 146 332 162 c 128,-1,31
 299 178 299 178 277 206 c 128,-1,32
 255 234 255 234 247 271 c 128,-1,33
 239 308 239 308 246 350 c 0,0,1
EndSplineSet
EndChar

StartChar: Ccedilla
Encoding: 199 199 15
Width: 680
GlyphClass: 2
Flags: W
LayerCount: 2
Fore
SplineSet
246 350 m 0,0,1
 254 395 254 395 276 432.5 c 128,-1,2
 298 470 298 470 331 497.5 c 128,-1,3
 364 525 364 525 404 540 c 128,-1,4
 444 555 444 555 488 555 c 0,5,6
 552 555 552 555 597 529.5 c 128,-1,7
 642 504 642 504 673 463 c 1,8,-1
 701 645 l 1,9,10
 659 679 659 679 610.5 698 c 128,-1,11
 562 717 562 717 496 716 c 0,12,13
 413 716 413 716 340 689 c 128,-1,14
 267 662 267 662 209 612.5 c 128,-1,15
 151 563 151 563 113.5 496 c 128,-1,16
 76 429 76 429 64 350 c 0,17,18
 53 274 53 274 71 207.5 c 128,-1,19
 89 141 89 141 130.5 90.5 c 128,-1,20
 172 40 172 40 236.5 12 c 128,-1,21
 301 -16 301 -16 381 -16 c 0,22,23
 450 -16 450 -16 503 3.5 c 128,-1,24
 556 23 556 23 603 55 c 1,25,-1
 630 236 l 1,26,27
 587 201 587 201 532.5 173 c 128,-1,28
 478 145 478 145 408 146 c 0,29,30
 365 146 365 146 332 162 c 128,-1,31
 299 178 299 178 277 206 c 128,-1,32
 255 234 255 234 247 271 c 128,-1,33
 239 308 239 308 246 350 c 0,0,1
326 47 m 1,34,-1
 211 -145 l 1,35,36
 234 -137 234 -137 258 -133 c 128,-1,37
 282 -129 282 -129 296 -130 c 0,38,39
 308 -130 308 -130 320 -133 c 128,-1,40
 332 -136 332 -136 339.5 -142.5 c 128,-1,41
 347 -149 347 -149 346 -161 c 0,42,43
 346 -172 346 -172 335.5 -180.5 c 128,-1,44
 325 -189 325 -189 311 -193 c 128,-1,45
 297 -197 297 -197 284 -198 c 0,46,47
 268 -198 268 -198 248.5 -191.5 c 128,-1,48
 229 -185 229 -185 212 -173 c 1,49,-1
 159 -239 l 1,50,51
 192 -260 192 -260 225 -270 c 128,-1,52
 258 -280 258 -280 297 -280 c 0,53,54
 329 -279 329 -279 360 -266.5 c 128,-1,55
 391 -254 391 -254 413.5 -230 c 128,-1,56
 436 -206 436 -206 440 -172 c 0,57,58
 445 -129 445 -129 421 -102.5 c 128,-1,59
 397 -76 397 -76 363 -74 c 0,60,61
 354 -74 354 -74 345.5 -75 c 128,-1,62
 337 -76 337 -76 330 -77 c 1,63,-1
 438 44 l 1,64,-1
 326 47 l 1,34,-1
EndSplineSet
EndChar

StartChar: Cacute
Encoding: 262 262 16
Width: 680
GlyphClass: 2
Flags: W
LayerCount: 2
Fore
SplineSet
246 350 m 0,0,1
 254 395 254 395 276 432.5 c 128,-1,2
 298 470 298 470 331 497.5 c 128,-1,3
 364 525 364 525 404 540 c 128,-1,4
 444 555 444 555 488 555 c 0,5,6
 552 555 552 555 597 529.5 c 128,-1,7
 642 504 642 504 673 463 c 1,8,-1
 701 645 l 1,9,10
 659 679 659 679 610.5 698 c 128,-1,11
 562 717 562 717 496 716 c 0,12,13
 413 716 413 716 340 689 c 128,-1,14
 267 662 267 662 209 612.5 c 128,-1,15
 151 563 151 563 113.5 496 c 128,-1,16
 76 429 76 429 64 350 c 0,17,18
 53 274 53 274 71 207.5 c 128,-1,19
 89 141 89 141 130.5 90.5 c 128,-1,20
 172 40 172 40 236.5 12 c 128,-1,21
 301 -16 301 -16 381 -16 c 0,22,23
 450 -16 450 -16 503 3.5 c 128,-1,24
 556 23 556 23 603 55 c 1,25,-1
 630 236 l 1,26,27
 587 201 587 201 532.5 173 c 128,-1,28
 478 145 478 145 408 146 c 0,29,30
 365 146 365 146 332 162 c 128,-1,31
 299 178 299 178 277 206 c 128,-1,32
 255 234 255 234 247 271 c 128,-1,33
 239 308 239 308 246 350 c 0,0,1
664 924 m 1,34,-1
 556 978 l 1,35,-1
 386 822 l 1,36,-1
 467 777 l 1,37,-1
 664 924 l 1,34,-1
EndSplineSet
EndChar

StartChar: Ccircumflex
Encoding: 264 264 17
Width: 680
GlyphClass: 2
Flags: W
LayerCount: 2
Fore
SplineSet
246 350 m 0,0,1
 254 395 254 395 276 432.5 c 128,-1,2
 298 470 298 470 331 497.5 c 128,-1,3
 364 525 364 525 404 540 c 128,-1,4
 444 555 444 555 488 555 c 0,5,6
 552 555 552 555 597 529.5 c 128,-1,7
 642 504 642 504 673 463 c 1,8,-1
 701 645 l 1,9,10
 659 679 659 679 610.5 698 c 128,-1,11
 562 717 562 717 496 716 c 0,12,13
 413 716 413 716 340 689 c 128,-1,14
 267 662 267 662 209 612.5 c 128,-1,15
 151 563 151 563 113.5 496 c 128,-1,16
 76 429 76 429 64 350 c 0,17,18
 53 274 53 274 71 207.5 c 128,-1,19
 89 141 89 141 130.5 90.5 c 128,-1,20
 172 40 172 40 236.5 12 c 128,-1,21
 301 -16 301 -16 381 -16 c 0,22,23
 450 -16 450 -16 503 3.5 c 128,-1,24
 556 23 556 23 603 55 c 1,25,-1
 630 236 l 1,26,27
 587 201 587 201 532.5 173 c 128,-1,28
 478 145 478 145 408 146 c 0,29,30
 365 146 365 146 332 162 c 128,-1,31
 299 178 299 178 277 206 c 128,-1,32
 255 234 255 234 247 271 c 128,-1,33
 239 308 239 308 246 350 c 0,0,1
529 861 m 1,34,-1
 603 776 l 1,35,-1
 715 845 l 1,36,-1
 544 987 l 1,37,-1
 332 851 l 1,38,-1
 426 777 l 1,39,-1
 529 861 l 1,34,-1
EndSplineSet
EndChar

StartChar: Cdotaccent
Encoding: 266 266 18
Width: 680
GlyphClass: 2
Flags: W
LayerCount: 2
Fore
SplineSet
246 350 m 0,0,1
 254 395 254 395 276 432.5 c 128,-1,2
 298 470 298 470 331 497.5 c 128,-1,3
 364 525 364 525 404 540 c 128,-1,4
 444 555 444 555 488 555 c 0,5,6
 552 555 552 555 597 529.5 c 128,-1,7
 642 504 642 504 673 463 c 1,8,-1
 701 645 l 1,9,10
 659 679 659 679 610.5 698 c 128,-1,11
 562 717 562 717 496 716 c 0,12,13
 413 716 413 716 340 689 c 128,-1,14
 267 662 267 662 209 612.5 c 128,-1,15
 151 563 151 563 113.5 496 c 128,-1,16
 76 429 76 429 64 350 c 0,17,18
 53 274 53 274 71 207.5 c 128,-1,19
 89 141 89 141 130.5 90.5 c 128,-1,20
 172 40 172 40 236.5 12 c 128,-1,21
 301 -16 301 -16 381 -16 c 0,22,23
 450 -16 450 -16 503 3.5 c 128,-1,24
 556 23 556 23 603 55 c 1,25,-1
 630 236 l 1,26,27
 587 201 587 201 532.5 173 c 128,-1,28
 478 145 478 145 408 146 c 0,29,30
 365 146 365 146 332 162 c 128,-1,31
 299 178 299 178 277 206 c 128,-1,32
 255 234 255 234 247 271 c 128,-1,33
 239 308 239 308 246 350 c 0,0,1
415 860 m 0,34,35
 411 825 411 825 433.5 801.5 c 128,-1,36
 456 778 456 778 490 777 c 0,37,38
 525 777 525 777 554 800 c 128,-1,39
 583 823 583 823 587 857 c 0,40,41
 591 892 591 892 569 915.5 c 128,-1,42
 547 939 547 939 512 940 c 0,43,44
 478 940 478 940 448.5 916.5 c 128,-1,45
 419 893 419 893 415 860 c 0,34,35
EndSplineSet
EndChar

StartChar: Ccaron
Encoding: 268 268 19
Width: 680
GlyphClass: 2
Flags: W
LayerCount: 2
Fore
SplineSet
246 350 m 0,0,1
 254 395 254 395 276 432.5 c 128,-1,2
 298 470 298 470 331 497.5 c 128,-1,3
 364 525 364 525 404 540 c 128,-1,4
 444 555 444 555 488 555 c 0,5,6
 552 555 552 555 597 529.5 c 128,-1,7
 642 504 642 504 673 463 c 1,8,-1
 701 645 l 1,9,10
 659 679 659 679 610.5 698 c 128,-1,11
 562 717 562 717 496 716 c 0,12,13
 413 716 413 716 340 689 c 128,-1,14
 267 662 267 662 209 612.5 c 128,-1,15
 151 563 151 563 113.5 496 c 128,-1,16
 76 429 76 429 64 350 c 0,17,18
 53 274 53 274 71 207.5 c 128,-1,19
 89 141 89 141 130.5 90.5 c 128,-1,20
 172 40 172 40 236.5 12 c 128,-1,21
 301 -16 301 -16 381 -16 c 0,22,23
 450 -16 450 -16 503 3.5 c 128,-1,24
 556 23 556 23 603 55 c 1,25,-1
 630 236 l 1,26,27
 587 201 587 201 532.5 173 c 128,-1,28
 478 145 478 145 408 146 c 0,29,30
 365 146 365 146 332 162 c 128,-1,31
 299 178 299 178 277 206 c 128,-1,32
 255 234 255 234 247 271 c 128,-1,33
 239 308 239 308 246 350 c 0,0,1
529 903 m 1,34,-1
 455 988 l 1,35,-1
 344 919 l 1,36,-1
 515 776 l 1,37,-1
 727 914 l 1,38,-1
 633 987 l 1,39,-1
 529 903 l 1,34,-1
EndSplineSet
EndChar

StartChar: D
Encoding: 68 68 20
Width: 711
GlyphClass: 2
Flags: W
LayerCount: 2
Fore
SplineSet
163 700 m 1,0,-1
 44 0 l 1,1,-1
 215 0 l 1,2,-1
 335 700 l 1,3,-1
 163 700 l 1,0,-1
293 0 m 2,4,5
 376 0 376 0 447 25.5 c 128,-1,6
 518 51 518 51 573.5 97 c 128,-1,7
 629 143 629 143 665 207 c 128,-1,8
 701 271 701 271 713 350 c 0,9,10
 724 426 724 426 707.5 490.5 c 128,-1,11
 691 555 691 555 649.5 601.5 c 128,-1,12
 608 648 608 648 545.5 674 c 128,-1,13
 483 700 483 700 402 700 c 2,14,-1
 272 700 l 1,15,-1
 245 550 l 1,16,-1
 380 550 l 2,17,18
 422 550 422 550 455.5 537 c 128,-1,19
 489 524 489 524 510 498 c 128,-1,20
 531 472 531 472 539.5 435 c 128,-1,21
 548 398 548 398 541 350 c 0,22,23
 530 284 530 284 495.5 239.5 c 128,-1,24
 461 195 461 195 411 172.5 c 128,-1,25
 361 150 361 150 303 150 c 2,26,-1
 178 150 l 1,27,-1
 152 0 l 1,28,-1
 293 0 l 2,4,5
EndSplineSet
EndChar

StartChar: Dcaron
Encoding: 270 270 21
Width: 711
GlyphClass: 2
Flags: W
LayerCount: 2
Fore
SplineSet
163 700 m 1,0,-1
 44 0 l 1,1,-1
 215 0 l 1,2,-1
 335 700 l 1,3,-1
 163 700 l 1,0,-1
293 0 m 2,4,5
 403 2 403 2 492.5 45.5 c 128,-1,6
 582 89 582 89 639.5 167 c 128,-1,7
 697 245 697 245 713 350 c 0,8,9
 728 452 728 452 694 530.5 c 128,-1,10
 660 609 660 609 585 654 c 128,-1,11
 510 699 510 699 402 700 c 2,12,-1
 272 700 l 1,13,-1
 245 550 l 1,14,-1
 380 550 l 2,15,16
 437 549 437 549 476.5 525.5 c 128,-1,17
 516 502 516 502 533.5 458 c 128,-1,18
 551 414 551 414 541 350 c 0,19,20
 530 284 530 284 495.5 240 c 128,-1,21
 461 196 461 196 411 174 c 128,-1,22
 361 152 361 152 303 150 c 2,23,-1
 178 150 l 1,24,-1
 152 0 l 1,25,-1
 293 0 l 2,4,5
487 903 m 1,26,-1
 413 988 l 1,27,-1
 302 919 l 1,28,-1
 474 776 l 1,29,-1
 685 914 l 1,30,-1
 590 987 l 1,31,-1
 487 903 l 1,26,-1
EndSplineSet
EndChar

StartChar: E
Encoding: 69 69 22
Width: 585
GlyphClass: 2
Flags: W
LayerCount: 2
Fore
SplineSet
152 0 m 1,0,-1
 498 0 l 1,1,-1
 522 139 l 1,2,-1
 176 139 l 1,3,-1
 152 0 l 1,0,-1
248 561 m 1,4,-1
 593 561 l 1,5,-1
 618 700 l 1,6,-1
 273 700 l 1,7,-1
 248 561 l 1,4,-1
203 300 m 1,8,-1
 529 300 l 1,9,-1
 553 436 l 1,10,-1
 227 436 l 1,11,-1
 203 300 l 1,8,-1
163 700 m 1,12,-1
 44 0 l 1,13,-1
 203 0 l 1,14,-1
 324 700 l 1,15,-1
 163 700 l 1,12,-1
EndSplineSet
EndChar

StartChar: Egrave
Encoding: 200 200 23
Width: 585
GlyphClass: 2
Flags: W
LayerCount: 2
Fore
SplineSet
152 0 m 1,0,-1
 498 0 l 1,1,-1
 522 139 l 1,2,-1
 176 139 l 1,3,-1
 152 0 l 1,0,-1
248 561 m 1,4,-1
 593 561 l 1,5,-1
 618 700 l 1,6,-1
 273 700 l 1,7,-1
 248 561 l 1,4,-1
203 300 m 1,8,-1
 529 300 l 1,9,-1
 553 436 l 1,10,-1
 227 436 l 1,11,-1
 203 300 l 1,8,-1
163 700 m 1,12,-1
 44 0 l 1,13,-1
 203 0 l 1,14,-1
 324 700 l 1,15,-1
 163 700 l 1,12,-1
273 935 m 1,16,-1
 426 782 l 1,17,-1
 512 823 l 1,18,-1
 391 985 l 1,19,-1
 273 935 l 1,16,-1
EndSplineSet
EndChar

StartChar: Eacute
Encoding: 201 201 24
Width: 585
GlyphClass: 2
Flags: W
LayerCount: 2
Fore
SplineSet
152 0 m 1,0,-1
 498 0 l 1,1,-1
 522 139 l 1,2,-1
 176 139 l 1,3,-1
 152 0 l 1,0,-1
248 561 m 1,4,-1
 593 561 l 1,5,-1
 618 700 l 1,6,-1
 273 700 l 1,7,-1
 248 561 l 1,4,-1
203 300 m 1,8,-1
 529 300 l 1,9,-1
 553 436 l 1,10,-1
 227 436 l 1,11,-1
 203 300 l 1,8,-1
163 700 m 1,12,-1
 44 0 l 1,13,-1
 203 0 l 1,14,-1
 324 700 l 1,15,-1
 163 700 l 1,12,-1
584 930 m 1,16,-1
 476 984 l 1,17,-1
 306 828 l 1,18,-1
 387 783 l 1,19,-1
 584 930 l 1,16,-1
EndSplineSet
EndChar

StartChar: Ecircumflex
Encoding: 202 202 25
Width: 585
GlyphClass: 2
Flags: W
LayerCount: 2
Fore
SplineSet
152 0 m 1,0,-1
 498 0 l 1,1,-1
 522 139 l 1,2,-1
 176 139 l 1,3,-1
 152 0 l 1,0,-1
248 561 m 1,4,-1
 593 561 l 1,5,-1
 618 700 l 1,6,-1
 273 700 l 1,7,-1
 248 561 l 1,4,-1
203 300 m 1,8,-1
 529 300 l 1,9,-1
 553 436 l 1,10,-1
 227 436 l 1,11,-1
 203 300 l 1,8,-1
163 700 m 1,12,-1
 44 0 l 1,13,-1
 203 0 l 1,14,-1
 324 700 l 1,15,-1
 163 700 l 1,12,-1
421 861 m 1,16,-1
 494 776 l 1,17,-1
 606 845 l 1,18,-1
 435 987 l 1,19,-1
 223 851 l 1,20,-1
 317 777 l 1,21,-1
 421 861 l 1,16,-1
EndSplineSet
EndChar

StartChar: Edieresis
Encoding: 203 203 26
Width: 585
GlyphClass: 2
Flags: W
LayerCount: 2
Fore
SplineSet
152 0 m 1,0,-1
 498 0 l 1,1,-1
 522 139 l 1,2,-1
 176 139 l 1,3,-1
 152 0 l 1,0,-1
248 561 m 1,4,-1
 593 561 l 1,5,-1
 618 700 l 1,6,-1
 273 700 l 1,7,-1
 248 561 l 1,4,-1
203 300 m 1,8,-1
 529 300 l 1,9,-1
 553 436 l 1,10,-1
 227 436 l 1,11,-1
 203 300 l 1,8,-1
163 700 m 1,12,-1
 44 0 l 1,13,-1
 203 0 l 1,14,-1
 324 700 l 1,15,-1
 163 700 l 1,12,-1
454 867 m 0,16,17
 450 832 450 832 472.5 808.5 c 128,-1,18
 495 785 495 785 530 785 c 0,19,20
 564 784 564 784 593.5 807.5 c 128,-1,21
 623 831 623 831 626 865 c 0,22,23
 631 899 631 899 608.5 923 c 128,-1,24
 586 947 586 947 551 947 c 0,25,26
 517 948 517 948 487.5 924.5 c 128,-1,27
 458 901 458 901 454 867 c 0,16,17
218 867 m 0,28,29
 214 832 214 832 236 808.5 c 128,-1,30
 258 785 258 785 293 785 c 0,31,32
 328 784 328 784 357 807.5 c 128,-1,33
 386 831 386 831 390 865 c 0,34,35
 395 899 395 899 372.5 923 c 128,-1,36
 350 947 350 947 315 947 c 0,37,38
 280 948 280 948 251 924.5 c 128,-1,39
 222 901 222 901 218 867 c 0,28,29
EndSplineSet
EndChar

StartChar: Emacron
Encoding: 274 274 27
Width: 585
GlyphClass: 2
Flags: W
LayerCount: 2
Fore
SplineSet
152 0 m 1,0,-1
 498 0 l 1,1,-1
 522 139 l 1,2,-1
 176 139 l 1,3,-1
 152 0 l 1,0,-1
248 561 m 1,4,-1
 593 561 l 1,5,-1
 618 700 l 1,6,-1
 273 700 l 1,7,-1
 248 561 l 1,4,-1
203 300 m 1,8,-1
 529 300 l 1,9,-1
 553 436 l 1,10,-1
 227 436 l 1,11,-1
 203 300 l 1,8,-1
163 700 m 1,12,-1
 44 0 l 1,13,-1
 203 0 l 1,14,-1
 324 700 l 1,15,-1
 163 700 l 1,12,-1
221 777 m 1,16,-1
 585 776 l 1,17,-1
 607 907 l 1,18,-1
 244 907 l 1,19,-1
 221 777 l 1,16,-1
EndSplineSet
EndChar

StartChar: Ebreve
Encoding: 276 276 28
Width: 585
GlyphClass: 2
Flags: W
LayerCount: 2
Fore
SplineSet
152 0 m 1,0,-1
 498 0 l 1,1,-1
 522 139 l 1,2,-1
 176 139 l 1,3,-1
 152 0 l 1,0,-1
248 561 m 1,4,-1
 593 561 l 1,5,-1
 618 700 l 1,6,-1
 273 700 l 1,7,-1
 248 561 l 1,4,-1
203 300 m 1,8,-1
 529 300 l 1,9,-1
 553 436 l 1,10,-1
 227 436 l 1,11,-1
 203 300 l 1,8,-1
163 700 m 1,12,-1
 44 0 l 1,13,-1
 203 0 l 1,14,-1
 324 700 l 1,15,-1
 163 700 l 1,12,-1
267 922 m 1,16,17
 264 881 264 881 278.5 848 c 128,-1,18
 293 815 293 815 325.5 796 c 128,-1,19
 358 777 358 777 407 777 c 0,20,21
 457 777 457 777 494 796.5 c 128,-1,22
 531 816 531 816 555 848.5 c 128,-1,23
 579 881 579 881 587 921 c 1,24,-1
 487 922 l 1,25,26
 483 907 483 907 472.5 893.5 c 128,-1,27
 462 880 462 880 447 871.5 c 128,-1,28
 432 863 432 863 413 864 c 256,29,30
 394 865 394 865 383 872.5 c 128,-1,31
 372 880 372 880 367 893.5 c 128,-1,32
 362 907 362 907 362 922 c 1,33,-1
 267 922 l 1,16,17
EndSplineSet
EndChar

StartChar: Edotaccent
Encoding: 278 278 29
Width: 585
GlyphClass: 2
Flags: W
LayerCount: 2
Fore
SplineSet
152 0 m 1,0,-1
 498 0 l 1,1,-1
 522 139 l 1,2,-1
 176 139 l 1,3,-1
 152 0 l 1,0,-1
248 561 m 1,4,-1
 593 561 l 1,5,-1
 618 700 l 1,6,-1
 273 700 l 1,7,-1
 248 561 l 1,4,-1
203 300 m 1,8,-1
 529 300 l 1,9,-1
 553 436 l 1,10,-1
 227 436 l 1,11,-1
 203 300 l 1,8,-1
163 700 m 1,12,-1
 44 0 l 1,13,-1
 203 0 l 1,14,-1
 324 700 l 1,15,-1
 163 700 l 1,12,-1
330 860 m 0,16,17
 326 825 326 825 348.5 801.5 c 128,-1,18
 371 778 371 778 406 777 c 0,19,20
 440 777 440 777 469.5 800 c 128,-1,21
 499 823 499 823 503 857 c 0,22,23
 507 892 507 892 484.5 915.5 c 128,-1,24
 462 939 462 939 428 940 c 0,25,26
 393 940 393 940 364 916.5 c 128,-1,27
 335 893 335 893 330 860 c 0,16,17
EndSplineSet
EndChar

StartChar: Eogonek
Encoding: 280 280 30
Width: 585
GlyphClass: 2
Flags: W
LayerCount: 2
Fore
SplineSet
152 0 m 1,0,-1
 498 0 l 1,1,-1
 522 139 l 1,2,-1
 176 139 l 1,3,-1
 152 0 l 1,0,-1
248 561 m 1,4,-1
 593 561 l 1,5,-1
 618 700 l 1,6,-1
 273 700 l 1,7,-1
 248 561 l 1,4,-1
203 300 m 1,8,-1
 529 300 l 1,9,-1
 553 436 l 1,10,-1
 227 436 l 1,11,-1
 203 300 l 1,8,-1
163 700 m 1,12,-1
 44 0 l 1,13,-1
 203 0 l 1,14,-1
 324 700 l 1,15,-1
 163 700 l 1,12,-1
340 -111 m 1,16,17
 330 -118 330 -118 315.5 -124.5 c 128,-1,18
 301 -131 301 -131 287 -130 c 0,19,20
 271 -129 271 -129 265.5 -119 c 128,-1,21
 260 -109 260 -109 262 -94 c 0,22,23
 266 -74 266 -74 280 -58 c 128,-1,24
 294 -42 294 -42 314.5 -27.5 c 128,-1,25
 335 -13 335 -13 357 0 c 1,26,-1
 317 25 l 1,27,28
 284 9 284 9 249.5 -11 c 128,-1,29
 215 -31 215 -31 190.5 -57.5 c 128,-1,30
 166 -84 166 -84 160 -119 c 0,31,32
 154 -166 154 -166 184 -192.5 c 128,-1,33
 214 -219 214 -219 261 -220 c 0,34,35
 296 -220 296 -220 320.5 -208.5 c 128,-1,36
 345 -197 345 -197 363 -181 c 1,37,-1
 340 -111 l 1,16,17
EndSplineSet
EndChar

StartChar: Ecaron
Encoding: 282 282 31
Width: 585
GlyphClass: 2
Flags: W
LayerCount: 2
Fore
SplineSet
152 0 m 1,0,-1
 498 0 l 1,1,-1
 522 139 l 1,2,-1
 176 139 l 1,3,-1
 152 0 l 1,0,-1
248 561 m 1,4,-1
 593 561 l 1,5,-1
 618 700 l 1,6,-1
 273 700 l 1,7,-1
 248 561 l 1,4,-1
203 300 m 1,8,-1
 529 300 l 1,9,-1
 553 436 l 1,10,-1
 227 436 l 1,11,-1
 203 300 l 1,8,-1
163 700 m 1,12,-1
 44 0 l 1,13,-1
 203 0 l 1,14,-1
 324 700 l 1,15,-1
 163 700 l 1,12,-1
420 903 m 1,16,-1
 346 988 l 1,17,-1
 235 919 l 1,18,-1
 407 776 l 1,19,-1
 618 914 l 1,20,-1
 524 987 l 1,21,-1
 420 903 l 1,16,-1
EndSplineSet
EndChar

StartChar: F
Encoding: 70 70 32
Width: 537
GlyphClass: 2
Flags: W
LayerCount: 2
Fore
SplineSet
247 555 m 1,0,-1
 553 555 l 1,1,-1
 579 700 l 1,2,-1
 273 700 l 1,3,-1
 247 555 l 1,0,-1
200 281 m 1,4,-1
 497 281 l 1,5,-1
 521 417 l 1,6,-1
 224 417 l 1,7,-1
 200 281 l 1,4,-1
163 700 m 1,8,-1
 44 0 l 1,9,-1
 203 0 l 1,10,-1
 324 700 l 1,11,-1
 163 700 l 1,8,-1
EndSplineSet
EndChar

StartChar: G
Encoding: 71 71 33
Width: 790
GlyphClass: 2
Flags: W
LayerCount: 2
Fore
SplineSet
423 253 m 1,0,-1
 598 253 l 1,1,2
 584 226 584 226 565 202.5 c 128,-1,3
 546 179 546 179 522 162 c 128,-1,4
 498 145 498 145 468 135.5 c 128,-1,5
 438 126 438 126 400 126 c 0,6,7
 353 126 353 126 319.5 144 c 128,-1,8
 286 162 286 162 265.5 193.5 c 128,-1,9
 245 225 245 225 238.5 265 c 128,-1,10
 232 305 232 305 238 350 c 0,11,12
 246 397 246 397 268.5 437 c 128,-1,13
 291 477 291 477 324 506.5 c 128,-1,14
 357 536 357 536 398 552.5 c 128,-1,15
 439 569 439 569 485 569 c 0,16,17
 540 569 540 569 575 542.5 c 128,-1,18
 610 516 610 516 629 473 c 1,19,-1
 785 549 l 1,20,21
 742 625 742 625 671.5 671 c 128,-1,22
 601 717 601 717 501 716 c 0,23,24
 419 716 419 716 345 689 c 128,-1,25
 271 662 271 662 212.5 613 c 128,-1,26
 154 564 154 564 115.5 497 c 128,-1,27
 77 430 77 430 64 350 c 0,28,29
 53 273 53 273 70.5 205.5 c 128,-1,30
 88 138 88 138 130.5 87 c 128,-1,31
 173 36 173 36 237 7 c 128,-1,32
 301 -22 301 -22 382 -22 c 0,33,34
 473 -22 473 -22 544.5 10.5 c 128,-1,35
 616 43 616 43 667.5 99.5 c 128,-1,36
 719 156 719 156 749.5 229 c 128,-1,37
 780 302 780 302 789 383 c 1,38,-1
 445 383 l 1,39,-1
 423 253 l 1,0,-1
EndSplineSet
EndChar

StartChar: Gcircumflex
Encoding: 284 284 34
Width: 790
GlyphClass: 2
Flags: W
LayerCount: 2
Fore
SplineSet
423 253 m 1,0,-1
 606 254 l 1,1,2
 590 228 590 228 570 204.5 c 128,-1,3
 550 181 550 181 525 163 c 128,-1,4
 500 145 500 145 469 135.5 c 128,-1,5
 438 126 438 126 400 126 c 0,6,7
 353 126 353 126 319.5 144 c 128,-1,8
 286 162 286 162 265.5 193.5 c 128,-1,9
 245 225 245 225 238.5 265 c 128,-1,10
 232 305 232 305 238 350 c 0,11,12
 246 397 246 397 268.5 437 c 128,-1,13
 291 477 291 477 324 507 c 128,-1,14
 357 537 357 537 398 553.5 c 128,-1,15
 439 570 439 570 485 569 c 0,16,17
 540 568 540 568 575 542 c 128,-1,18
 610 516 610 516 629 473 c 1,19,-1
 785 549 l 1,20,21
 742 625 742 625 671.5 671 c 128,-1,22
 601 717 601 717 501 716 c 0,23,24
 419 716 419 716 345 689 c 128,-1,25
 271 662 271 662 212.5 613 c 128,-1,26
 154 564 154 564 115.5 497 c 128,-1,27
 77 430 77 430 64 350 c 0,28,29
 53 273 53 273 70.5 205.5 c 128,-1,30
 88 138 88 138 129.5 87 c 128,-1,31
 171 36 171 36 234.5 7 c 128,-1,32
 298 -22 298 -22 379 -22 c 0,33,34
 467 -22 467 -22 539 10.5 c 128,-1,35
 611 43 611 43 663.5 99.5 c 128,-1,36
 716 156 716 156 748 229 c 128,-1,37
 780 302 780 302 789 383 c 1,38,-1
 445 383 l 1,39,-1
 423 253 l 1,0,-1
534 861 m 1,40,-1
 608 776 l 1,41,-1
 720 845 l 1,42,-1
 549 987 l 1,43,-1
 337 851 l 1,44,-1
 431 777 l 1,45,-1
 534 861 l 1,40,-1
EndSplineSet
EndChar

StartChar: Gbreve
Encoding: 286 286 35
Width: 790
GlyphClass: 2
Flags: W
LayerCount: 2
Fore
SplineSet
423 253 m 1,0,-1
 606 254 l 1,1,2
 590 228 590 228 570 204.5 c 128,-1,3
 550 181 550 181 525 163 c 128,-1,4
 500 145 500 145 469 135.5 c 128,-1,5
 438 126 438 126 400 126 c 0,6,7
 353 126 353 126 319.5 144 c 128,-1,8
 286 162 286 162 265.5 193.5 c 128,-1,9
 245 225 245 225 238.5 265 c 128,-1,10
 232 305 232 305 238 350 c 0,11,12
 246 397 246 397 268.5 437 c 128,-1,13
 291 477 291 477 324 507 c 128,-1,14
 357 537 357 537 398 553.5 c 128,-1,15
 439 570 439 570 485 569 c 0,16,17
 540 568 540 568 575 542 c 128,-1,18
 610 516 610 516 629 473 c 1,19,-1
 785 549 l 1,20,21
 742 625 742 625 671.5 671 c 128,-1,22
 601 717 601 717 501 716 c 0,23,24
 419 716 419 716 345 689 c 128,-1,25
 271 662 271 662 212.5 613 c 128,-1,26
 154 564 154 564 115.5 497 c 128,-1,27
 77 430 77 430 64 350 c 0,28,29
 53 273 53 273 70.5 205.5 c 128,-1,30
 88 138 88 138 129.5 87 c 128,-1,31
 171 36 171 36 234.5 7 c 128,-1,32
 298 -22 298 -22 379 -22 c 0,33,34
 467 -22 467 -22 539 10.5 c 128,-1,35
 611 43 611 43 663.5 99.5 c 128,-1,36
 716 156 716 156 748 229 c 128,-1,37
 780 302 780 302 789 383 c 1,38,-1
 445 383 l 1,39,-1
 423 253 l 1,0,-1
380 922 m 1,40,41
 377 881 377 881 392 848 c 128,-1,42
 407 815 407 815 439 796 c 128,-1,43
 471 777 471 777 520 777 c 0,44,45
 570 777 570 777 607 796.5 c 128,-1,46
 644 816 644 816 668 848.5 c 128,-1,47
 692 881 692 881 701 921 c 1,48,-1
 601 922 l 1,49,50
 596 907 596 907 586 893.5 c 128,-1,51
 576 880 576 880 561 871.5 c 128,-1,52
 546 863 546 863 526 864 c 0,53,54
 508 865 508 865 496.5 872.5 c 128,-1,55
 485 880 485 880 480.5 893.5 c 128,-1,56
 476 907 476 907 475 922 c 1,57,-1
 380 922 l 1,40,41
EndSplineSet
EndChar

StartChar: Gdotaccent
Encoding: 288 288 36
Width: 790
GlyphClass: 2
Flags: W
LayerCount: 2
Fore
SplineSet
423 253 m 1,0,-1
 606 254 l 1,1,2
 590 228 590 228 570 204.5 c 128,-1,3
 550 181 550 181 525 163 c 128,-1,4
 500 145 500 145 469 135.5 c 128,-1,5
 438 126 438 126 400 126 c 0,6,7
 353 126 353 126 319.5 144 c 128,-1,8
 286 162 286 162 265.5 193.5 c 128,-1,9
 245 225 245 225 238.5 265 c 128,-1,10
 232 305 232 305 238 350 c 0,11,12
 246 397 246 397 268.5 437 c 128,-1,13
 291 477 291 477 324 507 c 128,-1,14
 357 537 357 537 398 553.5 c 128,-1,15
 439 570 439 570 485 569 c 0,16,17
 540 568 540 568 575 542 c 128,-1,18
 610 516 610 516 629 473 c 1,19,-1
 785 549 l 1,20,21
 742 625 742 625 671.5 671 c 128,-1,22
 601 717 601 717 501 716 c 0,23,24
 419 716 419 716 345 689 c 128,-1,25
 271 662 271 662 212.5 613 c 128,-1,26
 154 564 154 564 115.5 497 c 128,-1,27
 77 430 77 430 64 350 c 0,28,29
 53 273 53 273 70.5 205.5 c 128,-1,30
 88 138 88 138 129.5 87 c 128,-1,31
 171 36 171 36 234.5 7 c 128,-1,32
 298 -22 298 -22 379 -22 c 0,33,34
 467 -22 467 -22 539 10.5 c 128,-1,35
 611 43 611 43 663.5 99.5 c 128,-1,36
 716 156 716 156 748 229 c 128,-1,37
 780 302 780 302 789 383 c 1,38,-1
 445 383 l 1,39,-1
 423 253 l 1,0,-1
444 860 m 0,40,41
 440 825 440 825 462.5 801.5 c 128,-1,42
 485 778 485 778 519 777 c 0,43,44
 554 777 554 777 583 800 c 128,-1,45
 612 823 612 823 616 857 c 0,46,47
 620 892 620 892 598 915.5 c 128,-1,48
 576 939 576 939 540 940 c 0,49,50
 506 940 506 940 477 916.5 c 128,-1,51
 448 893 448 893 444 860 c 0,40,41
EndSplineSet
EndChar

StartChar: uni0122
Encoding: 290 290 37
Width: 790
GlyphClass: 2
Flags: W
LayerCount: 2
Fore
SplineSet
423 253 m 1,0,-1
 606 254 l 1,1,2
 590 228 590 228 570 204.5 c 128,-1,3
 550 181 550 181 525 163 c 128,-1,4
 500 145 500 145 469 135.5 c 128,-1,5
 438 126 438 126 400 126 c 0,6,7
 353 126 353 126 319.5 144 c 128,-1,8
 286 162 286 162 265.5 193.5 c 128,-1,9
 245 225 245 225 238.5 265 c 128,-1,10
 232 305 232 305 238 350 c 0,11,12
 246 397 246 397 268.5 437 c 128,-1,13
 291 477 291 477 324 507 c 128,-1,14
 357 537 357 537 398 553.5 c 128,-1,15
 439 570 439 570 485 569 c 0,16,17
 540 568 540 568 575 542 c 128,-1,18
 610 516 610 516 629 473 c 1,19,-1
 785 549 l 1,20,21
 742 625 742 625 671.5 671 c 128,-1,22
 601 717 601 717 501 716 c 0,23,24
 419 716 419 716 345 689 c 128,-1,25
 271 662 271 662 212.5 613 c 128,-1,26
 154 564 154 564 115.5 497 c 128,-1,27
 77 430 77 430 64 350 c 0,28,29
 53 273 53 273 70.5 205.5 c 128,-1,30
 88 138 88 138 129.5 87 c 128,-1,31
 171 36 171 36 234.5 7 c 128,-1,32
 298 -22 298 -22 379 -22 c 0,33,34
 467 -22 467 -22 539 10.5 c 128,-1,35
 611 43 611 43 663.5 99.5 c 128,-1,36
 716 156 716 156 748 229 c 128,-1,37
 780 302 780 302 789 383 c 1,38,-1
 445 383 l 1,39,-1
 423 253 l 1,0,-1
299 -83 m 1,40,-1
 171 -340 l 1,41,-1
 282 -364 l 1,42,-1
 447 -117 l 1,43,-1
 299 -83 l 1,40,-1
EndSplineSet
EndChar

StartChar: H
Encoding: 72 72 38
Width: 763
GlyphClass: 2
Flags: W
LayerCount: 2
Fore
SplineSet
139 294 m 1,0,-1
 656 294 l 1,1,-1
 682 445 l 1,2,-1
 166 445 l 1,3,-1
 139 294 l 1,0,-1
619 700 m 1,4,-1
 500 0 l 1,5,-1
 665 0 l 1,6,-1
 786 700 l 1,7,-1
 619 700 l 1,4,-1
163 700 m 1,8,-1
 44 0 l 1,9,-1
 209 0 l 1,10,-1
 330 700 l 1,11,-1
 163 700 l 1,8,-1
EndSplineSet
EndChar

StartChar: Hcircumflex
Encoding: 292 292 39
Width: 763
GlyphClass: 2
Flags: W
LayerCount: 2
Fore
SplineSet
139 294 m 1,0,-1
 656 293 l 1,1,-1
 682 445 l 1,2,-1
 166 445 l 1,3,-1
 139 294 l 1,0,-1
619 700 m 1,4,-1
 500 0 l 1,5,-1
 665 0 l 1,6,-1
 786 700 l 1,7,-1
 619 700 l 1,4,-1
163 700 m 1,8,-1
 44 0 l 1,9,-1
 209 0 l 1,10,-1
 330 700 l 1,11,-1
 163 700 l 1,8,-1
506 861 m 1,12,-1
 580 776 l 1,13,-1
 691 845 l 1,14,-1
 520 987 l 1,15,-1
 308 851 l 1,16,-1
 402 777 l 1,17,-1
 506 861 l 1,12,-1
EndSplineSet
EndChar

StartChar: I
Encoding: 73 73 40
Width: 310
GlyphClass: 2
Flags: W
LayerCount: 2
Fore
SplineSet
163 700 m 1,0,-1
 44 0 l 1,1,-1
 213 0 l 1,2,-1
 333 700 l 1,3,-1
 163 700 l 1,0,-1
EndSplineSet
EndChar

StartChar: Igrave
Encoding: 204 204 41
Width: 310
GlyphClass: 2
Flags: W
LayerCount: 2
Fore
SplineSet
163 700 m 1,0,-1
 44 0 l 1,1,-1
 213 0 l 1,2,-1
 333 700 l 1,3,-1
 163 700 l 1,0,-1
125 935 m 1,4,-1
 277 782 l 1,5,-1
 364 823 l 1,6,-1
 243 985 l 1,7,-1
 125 935 l 1,4,-1
EndSplineSet
EndChar

StartChar: Iacute
Encoding: 205 205 42
Width: 310
GlyphClass: 2
Flags: W
LayerCount: 2
Fore
SplineSet
163 700 m 1,0,-1
 44 0 l 1,1,-1
 213 0 l 1,2,-1
 333 700 l 1,3,-1
 163 700 l 1,0,-1
436 930 m 1,4,-1
 329 984 l 1,5,-1
 158 828 l 1,6,-1
 238 783 l 1,7,-1
 436 930 l 1,4,-1
EndSplineSet
EndChar

StartChar: Icircumflex
Encoding: 206 206 43
Width: 310
GlyphClass: 2
Flags: W
LayerCount: 2
Fore
SplineSet
163 700 m 1,0,-1
 44 0 l 1,1,-1
 213 0 l 1,2,-1
 333 700 l 1,3,-1
 163 700 l 1,0,-1
269 861 m 1,4,-1
 343 776 l 1,5,-1
 454 845 l 1,6,-1
 283 987 l 1,7,-1
 71 851 l 1,8,-1
 165 777 l 1,9,-1
 269 861 l 1,4,-1
EndSplineSet
EndChar

StartChar: Idieresis
Encoding: 207 207 44
Width: 310
GlyphClass: 2
Flags: W
LayerCount: 2
Fore
SplineSet
163 700 m 1,0,-1
 44 0 l 1,1,-1
 213 0 l 1,2,-1
 333 700 l 1,3,-1
 163 700 l 1,0,-1
307 860 m 0,4,5
 303 825 303 825 325 801.5 c 128,-1,6
 347 778 347 778 382 777 c 0,7,8
 417 777 417 777 446 800 c 128,-1,9
 475 823 475 823 480 857 c 0,10,11
 484 892 484 892 461.5 915.5 c 128,-1,12
 439 939 439 939 404 940 c 0,13,14
 369 940 369 940 340 916.5 c 128,-1,15
 311 893 311 893 307 860 c 0,4,5
71 860 m 0,16,17
 66 825 66 825 88.5 801.5 c 128,-1,18
 111 778 111 778 146 777 c 0,19,20
 180 777 180 777 209.5 800 c 128,-1,21
 239 823 239 823 243 857 c 0,22,23
 247 892 247 892 224.5 915.5 c 128,-1,24
 202 939 202 939 167 940 c 0,25,26
 133 940 133 940 104 916.5 c 128,-1,27
 75 893 75 893 71 860 c 0,16,17
EndSplineSet
EndChar

StartChar: Itilde
Encoding: 296 296 45
Width: 310
GlyphClass: 2
Flags: W
LayerCount: 2
Fore
SplineSet
163 700 m 1,0,-1
 44 0 l 1,1,-1
 213 0 l 1,2,-1
 333 700 l 1,3,-1
 163 700 l 1,0,-1
81 844 m 1,4,-1
 144 780 l 1,5,6
 150 794 150 794 162.5 811.5 c 128,-1,7
 175 829 175 829 200 830 c 0,8,9
 223 832 223 832 242.5 819 c 128,-1,10
 262 806 262 806 282 793 c 128,-1,11
 302 780 302 780 326 779 c 0,12,13
 356 778 356 778 383 790.5 c 128,-1,14
 410 803 410 803 432.5 823 c 128,-1,15
 455 843 455 843 468 862 c 1,16,-1
 406 937 l 1,17,18
 391 918 391 918 372.5 902 c 128,-1,19
 354 886 354 886 333 885 c 0,20,21
 308 885 308 885 290.5 897.5 c 128,-1,22
 273 910 273 910 255 923 c 128,-1,23
 237 936 237 936 209 936 c 0,24,25
 179 937 179 937 153.5 923.5 c 128,-1,26
 128 910 128 910 109.5 888.5 c 128,-1,27
 91 867 91 867 81 844 c 1,4,-1
EndSplineSet
EndChar

StartChar: Imacron
Encoding: 298 298 46
Width: 310
GlyphClass: 2
Flags: W
LayerCount: 2
Fore
SplineSet
163 700 m 1,0,-1
 44 0 l 1,1,-1
 213 0 l 1,2,-1
 333 700 l 1,3,-1
 163 700 l 1,0,-1
79 777 m 1,4,-1
 442 776 l 1,5,-1
 465 907 l 1,6,-1
 102 907 l 1,7,-1
 79 777 l 1,4,-1
EndSplineSet
EndChar

StartChar: Ibreve
Encoding: 300 300 47
Width: 310
GlyphClass: 2
Flags: W
LayerCount: 2
Fore
SplineSet
163 700 m 1,0,-1
 44 0 l 1,1,-1
 213 0 l 1,2,-1
 333 700 l 1,3,-1
 163 700 l 1,0,-1
124 922 m 1,4,5
 122 881 122 881 137 848 c 128,-1,6
 152 815 152 815 184 796 c 128,-1,7
 216 777 216 777 265 777 c 0,8,9
 315 777 315 777 352 796.5 c 128,-1,10
 389 816 389 816 412.5 848.5 c 128,-1,11
 436 881 436 881 445 921 c 1,12,-1
 346 922 l 1,13,14
 341 907 341 907 330.5 893.5 c 128,-1,15
 320 880 320 880 305 871.5 c 128,-1,16
 290 863 290 863 271 864 c 0,17,18
 253 865 253 865 241.5 872.5 c 128,-1,19
 230 880 230 880 225 893.5 c 128,-1,20
 220 907 220 907 220 922 c 1,21,-1
 124 922 l 1,4,5
EndSplineSet
EndChar

StartChar: Iogonek
Encoding: 302 302 48
Width: 310
GlyphClass: 2
Flags: W
LayerCount: 2
Fore
SplineSet
163 700 m 1,0,-1
 44 0 l 1,1,-1
 213 0 l 1,2,-1
 333 700 l 1,3,-1
 163 700 l 1,0,-1
171 -109 m 1,4,5
 161 -116 161 -116 146.5 -122.5 c 128,-1,6
 132 -129 132 -129 118 -128 c 0,7,8
 102 -127 102 -127 96.5 -117 c 128,-1,9
 91 -107 91 -107 92 -92 c 0,10,11
 96 -73 96 -73 110.5 -56.5 c 128,-1,12
 125 -40 125 -40 145.5 -26 c 128,-1,13
 166 -12 166 -12 188 1 c 1,14,-1
 148 27 l 1,15,16
 115 11 115 11 80 -9 c 128,-1,17
 45 -29 45 -29 21 -55.5 c 128,-1,18
 -3 -82 -3 -82 -9 -117 c 0,19,20
 -13 -148 -13 -148 0 -171 c 128,-1,21
 13 -194 13 -194 37.5 -205.5 c 128,-1,22
 62 -217 62 -217 92 -218 c 0,23,24
 128 -218 128 -218 152.5 -206.5 c 128,-1,25
 177 -195 177 -195 194 -179 c 1,26,-1
 171 -109 l 1,4,5
EndSplineSet
EndChar

StartChar: Idotaccent
Encoding: 304 304 49
Width: 310
GlyphClass: 2
Flags: W
LayerCount: 2
Fore
SplineSet
163 700 m 1,0,-1
 44 0 l 1,1,-1
 213 0 l 1,2,-1
 333 700 l 1,3,-1
 163 700 l 1,0,-1
188 860 m 0,4,5
 183 825 183 825 205.5 801.5 c 128,-1,6
 228 778 228 778 263 777 c 0,7,8
 298 777 298 777 327 800 c 128,-1,9
 356 823 356 823 361 857 c 0,10,11
 364 892 364 892 342 915.5 c 128,-1,12
 320 939 320 939 285 940 c 0,13,14
 250 940 250 940 221 916.5 c 128,-1,15
 192 893 192 893 188 860 c 0,4,5
EndSplineSet
EndChar

StartChar: J
Encoding: 74 74 50
Width: 321
GlyphClass: 2
Flags: W
LayerCount: 2
Fore
SplineSet
-112 -64 m 1,0,-1
 -217 -181 l 1,1,2
 -183 -204 -183 -204 -137.5 -221 c 128,-1,3
 -92 -238 -92 -238 -38 -238 c 0,4,5
 24 -238 24 -238 77.5 -218.5 c 128,-1,6
 131 -199 131 -199 168 -157.5 c 128,-1,7
 205 -116 205 -116 215 -54 c 2,8,-1
 343 700 l 1,9,-1
 163 700 l 1,10,-1
 40 -15 l 2,11,12
 35 -51 35 -51 11.5 -73.5 c 128,-1,13
 -12 -96 -12 -96 -40 -97 c 0,14,15
 -60 -98 -60 -98 -78.5 -87.5 c 128,-1,16
 -97 -77 -97 -77 -112 -64 c 1,0,-1
EndSplineSet
EndChar

StartChar: Jcircumflex
Encoding: 308 308 51
Width: 321
GlyphClass: 2
Flags: W
LayerCount: 2
Fore
SplineSet
-112 -64 m 1,0,-1
 -217 -181 l 1,1,2
 -183 -204 -183 -204 -137.5 -221 c 128,-1,3
 -92 -238 -92 -238 -38 -238 c 0,4,5
 24 -238 24 -238 77.5 -218.5 c 128,-1,6
 131 -199 131 -199 168 -157.5 c 128,-1,7
 205 -116 205 -116 215 -54 c 2,8,-1
 343 700 l 1,9,-1
 163 700 l 1,10,-1
 40 -15 l 2,11,12
 34 -51 34 -51 11 -73.5 c 128,-1,13
 -12 -96 -12 -96 -40 -97 c 0,14,15
 -60 -98 -60 -98 -78.5 -87.5 c 128,-1,16
 -97 -77 -97 -77 -112 -64 c 1,0,-1
283 861 m 1,17,-1
 357 776 l 1,18,-1
 469 845 l 1,19,-1
 298 987 l 1,20,-1
 86 851 l 1,21,-1
 181 777 l 1,22,-1
 283 861 l 1,17,-1
EndSplineSet
EndChar

StartChar: K
Encoding: 75 75 52
Width: 678
GlyphClass: 2
Flags: W
LayerCount: 2
Fore
SplineSet
163 700 m 1,0,-1
 44 0 l 1,1,-1
 216 0 l 1,2,-1
 336 700 l 1,3,-1
 163 700 l 1,0,-1
561 700 m 1,4,-1
 230 371 l 1,5,-1
 456 0 l 1,6,-1
 651 0 l 1,7,-1
 425 369 l 1,8,-1
 762 700 l 1,9,-1
 561 700 l 1,4,-1
EndSplineSet
EndChar

StartChar: uni0136
Encoding: 310 310 53
Width: 678
GlyphClass: 2
Flags: W
LayerCount: 2
Fore
SplineSet
163 700 m 1,0,-1
 44 0 l 1,1,-1
 216 0 l 1,2,-1
 336 700 l 1,3,-1
 163 700 l 1,0,-1
561 700 m 1,4,-1
 230 371 l 1,5,-1
 456 0 l 1,6,-1
 651 0 l 1,7,-1
 425 369 l 1,8,-1
 762 700 l 1,9,-1
 561 700 l 1,4,-1
281 -61 m 1,10,-1
 151 -317 l 1,11,-1
 264 -341 l 1,12,-1
 428 -94 l 1,13,-1
 281 -61 l 1,10,-1
EndSplineSet
EndChar

StartChar: L
Encoding: 76 76 54
Width: 512
GlyphClass: 2
Flags: W
LayerCount: 2
Fore
SplineSet
163 700 m 1,0,-1
 43 0 l 1,1,-1
 482 0 l 1,2,-1
 508 145 l 1,3,-1
 235 145 l 1,4,-1
 330 700 l 1,5,-1
 163 700 l 1,0,-1
EndSplineSet
EndChar

StartChar: Lacute
Encoding: 313 313 55
Width: 512
GlyphClass: 2
Flags: W
LayerCount: 2
Fore
SplineSet
163 700 m 1,0,-1
 43 0 l 1,1,-1
 482 0 l 1,2,-1
 508 145 l 1,3,-1
 235 145 l 1,4,-1
 330 700 l 1,5,-1
 163 700 l 1,0,-1
579 924 m 1,6,-1
 471 978 l 1,7,-1
 300 822 l 1,8,-1
 381 777 l 1,9,-1
 579 924 l 1,6,-1
EndSplineSet
EndChar

StartChar: uni013B
Encoding: 315 315 56
Width: 512
GlyphClass: 2
Flags: W
LayerCount: 2
Fore
SplineSet
163 700 m 1,0,-1
 43 0 l 1,1,-1
 482 0 l 1,2,-1
 508 145 l 1,3,-1
 235 145 l 1,4,-1
 330 700 l 1,5,-1
 163 700 l 1,0,-1
219 -61 m 1,6,-1
 90 -317 l 1,7,-1
 202 -341 l 1,8,-1
 366 -94 l 1,9,-1
 219 -61 l 1,6,-1
EndSplineSet
EndChar

StartChar: Lcaron
Encoding: 317 317 57
Width: 512
GlyphClass: 2
Flags: W
LayerCount: 2
Fore
SplineSet
163 700 m 1,0,-1
 43 0 l 1,1,-1
 482 0 l 1,2,-1
 508 145 l 1,3,-1
 235 145 l 1,4,-1
 330 700 l 1,5,-1
 163 700 l 1,0,-1
492 715 m 1,6,-1
 363 459 l 1,7,-1
 475 435 l 1,8,-1
 639 682 l 1,9,-1
 492 715 l 1,6,-1
EndSplineSet
EndChar

StartChar: M
Encoding: 77 77 58
Width: 864
GlyphClass: 2
Flags: W
LayerCount: 2
Fore
SplineSet
283 356 m 1,0,-1
 418 64 l 1,1,-1
 650 350 l 1,2,-1
 631 0 l 1,3,-1
 805 0 l 1,4,-1
 823 740 l 1,5,-1
 456 310 l 1,6,-1
 240 735 l 1,7,-1
 3 0 l 1,8,-1
 180 0 l 1,9,-1
 283 356 l 1,0,-1
EndSplineSet
EndChar

StartChar: N
Encoding: 78 78 59
Width: 770
GlyphClass: 2
Flags: W
LayerCount: 2
Fore
SplineSet
632 700 m 1,0,-1
 564 305 l 1,1,-1
 168 733 l 1,2,-1
 43 0 l 1,3,-1
 204 0 l 1,4,-1
 272 395 l 1,5,-1
 667 -33 l 1,6,-1
 793 700 l 1,7,-1
 632 700 l 1,0,-1
EndSplineSet
EndChar

StartChar: Ntilde
Encoding: 209 209 60
Width: 770
GlyphClass: 2
Flags: W
LayerCount: 2
Fore
SplineSet
632 700 m 1,0,-1
 564 305 l 1,1,-1
 168 733 l 1,2,-1
 43 0 l 1,3,-1
 204 0 l 1,4,-1
 272 395 l 1,5,-1
 667 -33 l 1,6,-1
 793 700 l 1,7,-1
 632 700 l 1,0,-1
281 835 m 1,8,-1
 344 772 l 1,9,10
 350 786 350 786 362 803.5 c 128,-1,11
 374 821 374 821 400 822 c 0,12,13
 423 823 423 823 442.5 810.5 c 128,-1,14
 462 798 462 798 482 784.5 c 128,-1,15
 502 771 502 771 526 770 c 0,16,17
 556 769 556 769 583.5 782 c 128,-1,18
 611 795 611 795 633 814.5 c 128,-1,19
 655 834 655 834 667 853 c 1,20,-1
 606 928 l 1,21,22
 591 909 591 909 572.5 893 c 128,-1,23
 554 877 554 877 533 876 c 0,24,25
 508 876 508 876 490.5 888.5 c 128,-1,26
 473 901 473 901 454.5 914 c 128,-1,27
 436 927 436 927 409 927 c 0,28,29
 379 928 379 928 353.5 914.5 c 128,-1,30
 328 901 328 901 309.5 879.5 c 128,-1,31
 291 858 291 858 281 835 c 1,8,-1
EndSplineSet
EndChar

StartChar: Nacute
Encoding: 323 323 61
Width: 770
GlyphClass: 2
Flags: W
LayerCount: 2
Fore
SplineSet
632 700 m 1,0,-1
 564 305 l 1,1,-1
 168 733 l 1,2,-1
 43 0 l 1,3,-1
 204 0 l 1,4,-1
 272 395 l 1,5,-1
 667 -33 l 1,6,-1
 793 700 l 1,7,-1
 632 700 l 1,0,-1
661 909 m 1,8,-1
 553 963 l 1,9,-1
 383 807 l 1,10,-1
 464 762 l 1,11,-1
 661 909 l 1,8,-1
EndSplineSet
EndChar

StartChar: uni0145
Encoding: 325 325 62
Width: 770
GlyphClass: 2
Flags: W
LayerCount: 2
Fore
SplineSet
314 -55 m 1,0,-1
 185 -311 l 1,1,-1
 297 -335 l 1,2,-1
 461 -88 l 1,3,-1
 314 -55 l 1,0,-1
632 700 m 1,4,-1
 564 305 l 1,5,-1
 168 733 l 1,6,-1
 43 0 l 1,7,-1
 204 0 l 1,8,-1
 272 395 l 1,9,-1
 667 -33 l 1,10,-1
 793 700 l 1,11,-1
 632 700 l 1,4,-1
EndSplineSet
EndChar

StartChar: Ncaron
Encoding: 327 327 63
Width: 770
GlyphClass: 2
Flags: W
LayerCount: 2
Fore
SplineSet
488 903 m 1,0,-1
 414 988 l 1,1,-1
 302 919 l 1,2,-1
 474 776 l 1,3,-1
 685 914 l 1,4,-1
 591 987 l 1,5,-1
 488 903 l 1,0,-1
632 700 m 1,6,-1
 564 305 l 1,7,-1
 168 733 l 1,8,-1
 43 0 l 1,9,-1
 204 0 l 1,10,-1
 272 395 l 1,11,-1
 667 -33 l 1,12,-1
 793 700 l 1,13,-1
 632 700 l 1,6,-1
EndSplineSet
EndChar

StartChar: O
Encoding: 79 79 64
Width: 797
GlyphClass: 2
Flags: W
LayerCount: 2
Fore
SplineSet
240 350 m 0,0,1
 247 394 247 394 267.5 432 c 128,-1,2
 288 470 288 470 318.5 499.5 c 128,-1,3
 349 529 349 529 388 545 c 128,-1,4
 427 561 427 561 472 561 c 256,5,6
 517 561 517 561 548.5 543.5 c 128,-1,7
 580 526 580 526 598.5 496 c 128,-1,8
 617 466 617 466 623 428.5 c 128,-1,9
 629 391 629 391 623 350 c 0,10,11
 616 307 616 307 595.5 268.5 c 128,-1,12
 575 230 575 230 544 201 c 128,-1,13
 513 172 513 172 474 155.5 c 128,-1,14
 435 139 435 139 390 140 c 0,15,16
 346 140 346 140 314.5 157.5 c 128,-1,17
 283 175 283 175 264.5 204.5 c 128,-1,18
 246 234 246 234 240 271.5 c 128,-1,19
 234 309 234 309 240 350 c 0,0,1
64 350 m 0,20,21
 54 275 54 275 70 208 c 128,-1,22
 86 141 86 141 127 89.5 c 128,-1,23
 168 38 168 38 230.5 8 c 128,-1,24
 293 -22 293 -22 373 -22 c 0,25,26
 454 -22 454 -22 526 6.5 c 128,-1,27
 598 35 598 35 655.5 86 c 128,-1,28
 713 137 713 137 750 204.5 c 128,-1,29
 787 272 787 272 799 350 c 0,30,31
 809 425 809 425 792 491.5 c 128,-1,32
 775 558 775 558 733.5 608.5 c 128,-1,33
 692 659 692 659 629.5 687.5 c 128,-1,34
 567 716 567 716 488 716 c 256,35,36
 409 716 409 716 337 688.5 c 128,-1,37
 265 661 265 661 208 611 c 128,-1,38
 151 561 151 561 113.5 494.5 c 128,-1,39
 76 428 76 428 64 350 c 0,20,21
EndSplineSet
EndChar

StartChar: Ograve
Encoding: 210 210 65
Width: 797
GlyphClass: 2
Flags: W
LayerCount: 2
Fore
SplineSet
240 350 m 0,0,1
 247 394 247 394 267.5 432 c 128,-1,2
 288 470 288 470 318.5 499.5 c 128,-1,3
 349 529 349 529 388 545 c 128,-1,4
 427 561 427 561 472 561 c 256,5,6
 517 561 517 561 548.5 543.5 c 128,-1,7
 580 526 580 526 598.5 496 c 128,-1,8
 617 466 617 466 623 428.5 c 128,-1,9
 629 391 629 391 623 350 c 0,10,11
 616 307 616 307 595.5 268.5 c 128,-1,12
 575 230 575 230 544 201 c 128,-1,13
 513 172 513 172 474 155.5 c 128,-1,14
 435 139 435 139 390 140 c 0,15,16
 346 140 346 140 314.5 157.5 c 128,-1,17
 283 175 283 175 264.5 204.5 c 128,-1,18
 246 234 246 234 240 271.5 c 128,-1,19
 234 309 234 309 240 350 c 0,0,1
64 350 m 0,20,21
 54 275 54 275 70 208 c 128,-1,22
 86 141 86 141 127 89.5 c 128,-1,23
 168 38 168 38 230.5 8 c 128,-1,24
 293 -22 293 -22 373 -22 c 0,25,26
 454 -22 454 -22 526 6.5 c 128,-1,27
 598 35 598 35 655.5 86 c 128,-1,28
 713 137 713 137 750 204.5 c 128,-1,29
 787 272 787 272 799 350 c 0,30,31
 809 425 809 425 792 491.5 c 128,-1,32
 775 558 775 558 733.5 608.5 c 128,-1,33
 692 659 692 659 629.5 687.5 c 128,-1,34
 567 716 567 716 488 716 c 256,35,36
 409 716 409 716 337 688.5 c 128,-1,37
 265 661 265 661 208 611 c 128,-1,38
 151 561 151 561 113.5 494.5 c 128,-1,39
 76 428 76 428 64 350 c 0,20,21
387 935 m 1,40,-1
 540 782 l 1,41,-1
 626 823 l 1,42,-1
 505 985 l 1,43,-1
 387 935 l 1,40,-1
EndSplineSet
EndChar

StartChar: Oacute
Encoding: 211 211 66
Width: 797
GlyphClass: 2
Flags: W
LayerCount: 2
Fore
SplineSet
240 350 m 0,0,1
 247 394 247 394 267.5 432 c 128,-1,2
 288 470 288 470 318.5 499.5 c 128,-1,3
 349 529 349 529 388 545 c 128,-1,4
 427 561 427 561 472 561 c 256,5,6
 517 561 517 561 548.5 543.5 c 128,-1,7
 580 526 580 526 598.5 496 c 128,-1,8
 617 466 617 466 623 428.5 c 128,-1,9
 629 391 629 391 623 350 c 0,10,11
 616 307 616 307 595.5 268.5 c 128,-1,12
 575 230 575 230 544 201 c 128,-1,13
 513 172 513 172 474 155.5 c 128,-1,14
 435 139 435 139 390 140 c 0,15,16
 346 140 346 140 314.5 157.5 c 128,-1,17
 283 175 283 175 264.5 204.5 c 128,-1,18
 246 234 246 234 240 271.5 c 128,-1,19
 234 309 234 309 240 350 c 0,0,1
64 350 m 0,20,21
 54 275 54 275 70 208 c 128,-1,22
 86 141 86 141 127 89.5 c 128,-1,23
 168 38 168 38 230.5 8 c 128,-1,24
 293 -22 293 -22 373 -22 c 0,25,26
 454 -22 454 -22 526 6.5 c 128,-1,27
 598 35 598 35 655.5 86 c 128,-1,28
 713 137 713 137 750 204.5 c 128,-1,29
 787 272 787 272 799 350 c 0,30,31
 809 425 809 425 792 491.5 c 128,-1,32
 775 558 775 558 733.5 608.5 c 128,-1,33
 692 659 692 659 629.5 687.5 c 128,-1,34
 567 716 567 716 488 716 c 256,35,36
 409 716 409 716 337 688.5 c 128,-1,37
 265 661 265 661 208 611 c 128,-1,38
 151 561 151 561 113.5 494.5 c 128,-1,39
 76 428 76 428 64 350 c 0,20,21
691 930 m 1,40,-1
 583 984 l 1,41,-1
 412 828 l 1,42,-1
 493 783 l 1,43,-1
 691 930 l 1,40,-1
EndSplineSet
EndChar

StartChar: Ocircumflex
Encoding: 212 212 67
Width: 797
GlyphClass: 2
Flags: W
LayerCount: 2
Fore
SplineSet
240 350 m 0,0,1
 247 394 247 394 267.5 432 c 128,-1,2
 288 470 288 470 318.5 499.5 c 128,-1,3
 349 529 349 529 388 545 c 128,-1,4
 427 561 427 561 472 561 c 256,5,6
 517 561 517 561 548.5 543.5 c 128,-1,7
 580 526 580 526 598.5 496 c 128,-1,8
 617 466 617 466 623 428.5 c 128,-1,9
 629 391 629 391 623 350 c 0,10,11
 616 307 616 307 595.5 268.5 c 128,-1,12
 575 230 575 230 544 201 c 128,-1,13
 513 172 513 172 474 155.5 c 128,-1,14
 435 139 435 139 390 140 c 0,15,16
 346 140 346 140 314.5 157.5 c 128,-1,17
 283 175 283 175 264.5 204.5 c 128,-1,18
 246 234 246 234 240 271.5 c 128,-1,19
 234 309 234 309 240 350 c 0,0,1
64 350 m 0,20,21
 54 275 54 275 70 208 c 128,-1,22
 86 141 86 141 127 89.5 c 128,-1,23
 168 38 168 38 230.5 8 c 128,-1,24
 293 -22 293 -22 373 -22 c 0,25,26
 454 -22 454 -22 526 6.5 c 128,-1,27
 598 35 598 35 655.5 86 c 128,-1,28
 713 137 713 137 750 204.5 c 128,-1,29
 787 272 787 272 799 350 c 0,30,31
 809 425 809 425 792 491.5 c 128,-1,32
 775 558 775 558 733.5 608.5 c 128,-1,33
 692 659 692 659 629.5 687.5 c 128,-1,34
 567 716 567 716 489 716 c 0,35,36
 409 716 409 716 337.5 688.5 c 128,-1,37
 266 661 266 661 208.5 611 c 128,-1,38
 151 561 151 561 113.5 494.5 c 128,-1,39
 76 428 76 428 64 350 c 0,20,21
526 861 m 1,40,-1
 599 776 l 1,41,-1
 711 845 l 1,42,-1
 539 987 l 1,43,-1
 328 851 l 1,44,-1
 422 777 l 1,45,-1
 526 861 l 1,40,-1
EndSplineSet
EndChar

StartChar: Otilde
Encoding: 213 213 68
Width: 797
GlyphClass: 2
Flags: W
LayerCount: 2
Fore
SplineSet
240 350 m 0,0,1
 247 394 247 394 267.5 432 c 128,-1,2
 288 470 288 470 318.5 499.5 c 128,-1,3
 349 529 349 529 388 545 c 128,-1,4
 427 561 427 561 472 561 c 256,5,6
 517 561 517 561 548.5 543.5 c 128,-1,7
 580 526 580 526 598.5 496 c 128,-1,8
 617 466 617 466 623 428.5 c 128,-1,9
 629 391 629 391 623 350 c 0,10,11
 616 307 616 307 595.5 268.5 c 128,-1,12
 575 230 575 230 544 201 c 128,-1,13
 513 172 513 172 474 155.5 c 128,-1,14
 435 139 435 139 390 140 c 0,15,16
 346 140 346 140 314.5 157.5 c 128,-1,17
 283 175 283 175 264.5 204.5 c 128,-1,18
 246 234 246 234 240 271.5 c 128,-1,19
 234 309 234 309 240 350 c 0,0,1
64 350 m 0,20,21
 54 275 54 275 70 208 c 128,-1,22
 86 141 86 141 127 89.5 c 128,-1,23
 168 38 168 38 230.5 8 c 128,-1,24
 293 -22 293 -22 373 -22 c 0,25,26
 454 -22 454 -22 526 6.5 c 128,-1,27
 598 35 598 35 655.5 86 c 128,-1,28
 713 137 713 137 750 204.5 c 128,-1,29
 787 272 787 272 799 350 c 0,30,31
 809 425 809 425 792 491.5 c 128,-1,32
 775 558 775 558 733.5 608.5 c 128,-1,33
 692 659 692 659 629.5 687.5 c 128,-1,34
 567 716 567 716 489 716 c 0,35,36
 409 716 409 716 337.5 688.5 c 128,-1,37
 266 661 266 661 208.5 611 c 128,-1,38
 151 561 151 561 113.5 494.5 c 128,-1,39
 76 428 76 428 64 350 c 0,20,21
321 841 m 1,40,-1
 385 777 l 1,41,42
 391 791 391 791 403 808.5 c 128,-1,43
 415 826 415 826 440 827 c 0,44,45
 464 829 464 829 483.5 816 c 128,-1,46
 503 803 503 803 523 790 c 128,-1,47
 543 777 543 777 567 776 c 0,48,49
 597 775 597 775 624 787.5 c 128,-1,50
 651 800 651 800 673 820 c 128,-1,51
 695 840 695 840 707 858 c 1,52,-1
 647 934 l 1,53,54
 632 914 632 914 613.5 898.5 c 128,-1,55
 595 883 595 883 573 882 c 0,56,57
 549 882 549 882 531.5 894.5 c 128,-1,58
 514 907 514 907 495.5 920 c 128,-1,59
 477 933 477 933 450 933 c 0,60,61
 422 934 422 934 395 920.5 c 128,-1,62
 368 907 368 907 348 886 c 128,-1,63
 328 865 328 865 321 841 c 1,40,-1
EndSplineSet
EndChar

StartChar: Odieresis
Encoding: 214 214 69
Width: 797
GlyphClass: 2
Flags: W
LayerCount: 2
Fore
SplineSet
240 350 m 0,0,1
 247 394 247 394 267.5 432 c 128,-1,2
 288 470 288 470 318.5 499.5 c 128,-1,3
 349 529 349 529 388 545 c 128,-1,4
 427 561 427 561 472 561 c 256,5,6
 517 561 517 561 548.5 543.5 c 128,-1,7
 580 526 580 526 598.5 496 c 128,-1,8
 617 466 617 466 623 428.5 c 128,-1,9
 629 391 629 391 623 350 c 0,10,11
 616 307 616 307 595.5 268.5 c 128,-1,12
 575 230 575 230 544 201 c 128,-1,13
 513 172 513 172 474 155.5 c 128,-1,14
 435 139 435 139 390 140 c 0,15,16
 346 140 346 140 314.5 157.5 c 128,-1,17
 283 175 283 175 264.5 204.5 c 128,-1,18
 246 234 246 234 240 271.5 c 128,-1,19
 234 309 234 309 240 350 c 0,0,1
64 350 m 0,20,21
 54 275 54 275 70 208 c 128,-1,22
 86 141 86 141 127 89.5 c 128,-1,23
 168 38 168 38 230.5 8 c 128,-1,24
 293 -22 293 -22 373 -22 c 0,25,26
 454 -22 454 -22 526 6.5 c 128,-1,27
 598 35 598 35 655.5 86 c 128,-1,28
 713 137 713 137 750 204.5 c 128,-1,29
 787 272 787 272 799 350 c 0,30,31
 809 425 809 425 792 491.5 c 128,-1,32
 775 558 775 558 733.5 608.5 c 128,-1,33
 692 659 692 659 629.5 687.5 c 128,-1,34
 567 716 567 716 488 716 c 256,35,36
 409 716 409 716 337 688.5 c 128,-1,37
 265 661 265 661 208 611 c 128,-1,38
 151 561 151 561 113.5 494.5 c 128,-1,39
 76 428 76 428 64 350 c 0,20,21
550 860 m 0,40,41
 545 825 545 825 567.5 801.5 c 128,-1,42
 590 778 590 778 625 777 c 0,43,44
 660 777 660 777 689 800 c 128,-1,45
 718 823 718 823 723 857 c 0,46,47
 726 892 726 892 704 915.5 c 128,-1,48
 682 939 682 939 647 940 c 0,49,50
 612 940 612 940 583 916.5 c 128,-1,51
 554 893 554 893 550 860 c 0,40,41
314 860 m 0,52,53
 309 825 309 825 331.5 801.5 c 128,-1,54
 354 778 354 778 389 777 c 0,55,56
 424 777 424 777 453 800 c 128,-1,57
 482 823 482 823 486 857 c 0,58,59
 490 892 490 892 468 915.5 c 128,-1,60
 446 939 446 939 410 940 c 0,61,62
 376 940 376 940 347 916.5 c 128,-1,63
 318 893 318 893 314 860 c 0,52,53
EndSplineSet
EndChar

StartChar: Omacron
Encoding: 332 332 70
Width: 797
GlyphClass: 2
Flags: W
LayerCount: 2
Fore
SplineSet
240 350 m 0,0,1
 247 394 247 394 267.5 432 c 128,-1,2
 288 470 288 470 318.5 499.5 c 128,-1,3
 349 529 349 529 388 545 c 128,-1,4
 427 561 427 561 472 561 c 256,5,6
 517 561 517 561 548.5 543.5 c 128,-1,7
 580 526 580 526 598.5 496 c 128,-1,8
 617 466 617 466 623 428.5 c 128,-1,9
 629 391 629 391 623 350 c 0,10,11
 616 307 616 307 595.5 268.5 c 128,-1,12
 575 230 575 230 544 201 c 128,-1,13
 513 172 513 172 474 155.5 c 128,-1,14
 435 139 435 139 390 140 c 0,15,16
 346 140 346 140 314.5 157.5 c 128,-1,17
 283 175 283 175 264.5 204.5 c 128,-1,18
 246 234 246 234 240 271.5 c 128,-1,19
 234 309 234 309 240 350 c 0,0,1
64 350 m 0,20,21
 54 275 54 275 70 208 c 128,-1,22
 86 141 86 141 127 89.5 c 128,-1,23
 168 38 168 38 230.5 8 c 128,-1,24
 293 -22 293 -22 373 -22 c 0,25,26
 454 -22 454 -22 526 6.5 c 128,-1,27
 598 35 598 35 655.5 86 c 128,-1,28
 713 137 713 137 750 204.5 c 128,-1,29
 787 272 787 272 799 350 c 0,30,31
 809 425 809 425 792 491.5 c 128,-1,32
 775 558 775 558 733.5 608.5 c 128,-1,33
 692 659 692 659 629.5 687.5 c 128,-1,34
 567 716 567 716 489 716 c 0,35,36
 409 716 409 716 337.5 688.5 c 128,-1,37
 266 661 266 661 208.5 611 c 128,-1,38
 151 561 151 561 113.5 494.5 c 128,-1,39
 76 428 76 428 64 350 c 0,20,21
322 777 m 1,40,-1
 685 776 l 1,41,-1
 708 907 l 1,42,-1
 345 907 l 1,43,-1
 322 777 l 1,40,-1
EndSplineSet
EndChar

StartChar: Obreve
Encoding: 334 334 71
Width: 797
GlyphClass: 2
Flags: W
LayerCount: 2
Fore
SplineSet
240 350 m 0,0,1
 247 394 247 394 267.5 432 c 128,-1,2
 288 470 288 470 318.5 499.5 c 128,-1,3
 349 529 349 529 388 545 c 128,-1,4
 427 561 427 561 472 561 c 256,5,6
 517 561 517 561 548.5 543.5 c 128,-1,7
 580 526 580 526 598.5 496 c 128,-1,8
 617 466 617 466 623 428.5 c 128,-1,9
 629 391 629 391 623 350 c 0,10,11
 616 307 616 307 595.5 268.5 c 128,-1,12
 575 230 575 230 544 201 c 128,-1,13
 513 172 513 172 474 155.5 c 128,-1,14
 435 139 435 139 390 140 c 0,15,16
 346 140 346 140 314.5 157.5 c 128,-1,17
 283 175 283 175 264.5 204.5 c 128,-1,18
 246 234 246 234 240 271.5 c 128,-1,19
 234 309 234 309 240 350 c 0,0,1
64 350 m 0,20,21
 54 275 54 275 70 208 c 128,-1,22
 86 141 86 141 127 89.5 c 128,-1,23
 168 38 168 38 230.5 8 c 128,-1,24
 293 -22 293 -22 373 -22 c 0,25,26
 454 -22 454 -22 526 6.5 c 128,-1,27
 598 35 598 35 655.5 86 c 128,-1,28
 713 137 713 137 750 204.5 c 128,-1,29
 787 272 787 272 799 350 c 0,30,31
 809 425 809 425 792 491.5 c 128,-1,32
 775 558 775 558 733.5 608.5 c 128,-1,33
 692 659 692 659 629.5 687.5 c 128,-1,34
 567 716 567 716 489 716 c 0,35,36
 409 716 409 716 337.5 688.5 c 128,-1,37
 266 661 266 661 208.5 611 c 128,-1,38
 151 561 151 561 113.5 494.5 c 128,-1,39
 76 428 76 428 64 350 c 0,20,21
368 922 m 1,40,41
 366 881 366 881 380.5 848 c 128,-1,42
 395 815 395 815 427 796 c 128,-1,43
 459 777 459 777 508 777 c 0,44,45
 558 777 558 777 595 796.5 c 128,-1,46
 632 816 632 816 656 848.5 c 128,-1,47
 680 881 680 881 688 921 c 1,48,-1
 589 922 l 1,49,50
 584 907 584 907 574 893.5 c 128,-1,51
 564 880 564 880 549 871.5 c 128,-1,52
 534 863 534 863 514 864 c 0,53,54
 496 865 496 865 484.5 872.5 c 128,-1,55
 473 880 473 880 468.5 893.5 c 128,-1,56
 464 907 464 907 464 922 c 1,57,-1
 368 922 l 1,40,41
EndSplineSet
EndChar

StartChar: P
Encoding: 80 80 73
Width: 604
GlyphClass: 2
Flags: W
LayerCount: 2
Fore
SplineSet
163 700 m 1,0,-1
 44 0 l 1,1,-1
 209 0 l 1,2,-1
 330 700 l 1,3,-1
 163 700 l 1,0,-1
243 562 m 1,4,-1
 380 562 l 2,5,6
 410 562 410 562 431 551 c 128,-1,7
 452 540 452 540 462 520 c 128,-1,8
 472 500 472 500 466 472 c 0,9,10
 461 443 461 443 443.5 423 c 128,-1,11
 426 403 426 403 399 392.5 c 128,-1,12
 372 382 372 382 341 382 c 2,13,-1
 212 382 l 1,14,-1
 187 243 l 1,15,-1
 327 243 l 2,16,17
 409 243 409 243 473.5 270 c 128,-1,18
 538 297 538 297 578 348.5 c 128,-1,19
 618 400 618 400 626 471 c 0,20,21
 634 543 634 543 608.5 594 c 128,-1,22
 583 645 583 645 528.5 672 c 128,-1,23
 474 699 474 699 395 700 c 2,24,-1
 266 700 l 1,25,-1
 243 562 l 1,4,-1
EndSplineSet
EndChar

StartChar: Q
Encoding: 81 81 74
Width: 838
GlyphClass: 2
Flags: W
LayerCount: 2
Fore
SplineSet
240 350 m 256,0,1
 247 394 247 394 268 432 c 128,-1,2
 289 470 289 470 320 499.5 c 128,-1,3
 351 529 351 529 390.5 545 c 128,-1,4
 430 561 430 561 475 561 c 0,5,6
 524 560 524 560 558 540.5 c 128,-1,7
 592 521 592 521 612 487.5 c 128,-1,8
 632 454 632 454 638 413.5 c 128,-1,9
 644 373 644 373 638 331 c 0,10,11
 630 288 630 288 609 251 c 128,-1,12
 588 214 588 214 557 186 c 128,-1,13
 526 158 526 158 487 143 c 128,-1,14
 448 128 448 128 403 128 c 256,15,16
 358 128 358 128 324 146 c 128,-1,17
 290 164 290 164 269.5 195 c 128,-1,18
 249 226 249 226 241 266 c 128,-1,19
 233 306 233 306 240 350 c 256,0,1
64 350 m 0,20,21
 54 275 54 275 70.5 207.5 c 128,-1,22
 87 140 87 140 128.5 89 c 128,-1,23
 170 38 170 38 233 8 c 128,-1,24
 296 -22 296 -22 376 -22 c 0,25,26
 457 -22 457 -22 529 6.5 c 128,-1,27
 601 35 601 35 657 86 c 128,-1,28
 713 137 713 137 750 204.5 c 128,-1,29
 787 272 787 272 799 350 c 0,30,31
 809 425 809 425 792.5 491.5 c 128,-1,32
 776 558 776 558 735 608 c 128,-1,33
 694 658 694 658 632.5 687 c 128,-1,34
 571 716 571 716 492 716 c 0,35,36
 412 716 412 716 340 688.5 c 128,-1,37
 268 661 268 661 210 611 c 128,-1,38
 152 561 152 561 114 494.5 c 128,-1,39
 76 428 76 428 64 350 c 0,20,21
373 300 m 1,40,-1
 641 -12 l 1,41,-1
 812 -12 l 1,42,-1
 537 300 l 1,43,-1
 373 300 l 1,40,-1
EndSplineSet
EndChar

StartChar: R
Encoding: 82 82 75
Width: 628
GlyphClass: 2
Flags: W
LayerCount: 2
Fore
SplineSet
270 317 m 1,0,-1
 406 0 l 1,1,-1
 595 0 l 1,2,-1
 438 317 l 1,3,-1
 270 317 l 1,0,-1
163 700 m 1,4,-1
 44 0 l 1,5,-1
 209 0 l 1,6,-1
 330 700 l 1,7,-1
 163 700 l 1,4,-1
242 557 m 1,8,-1
 379 557 l 2,9,10
 409 557 409 557 430.5 545.5 c 128,-1,11
 452 534 452 534 461.5 514 c 128,-1,12
 471 494 471 494 466 466 c 0,13,14
 461 437 461 437 443 416 c 128,-1,15
 425 395 425 395 398.5 384.5 c 128,-1,16
 372 374 372 374 340 374 c 2,17,-1
 211 374 l 1,18,-1
 187 243 l 1,19,-1
 339 243 l 2,20,21
 420 243 420 243 484 270.5 c 128,-1,22
 548 298 548 298 588.5 350 c 128,-1,23
 629 402 629 402 639 471 c 0,24,25
 648 541 648 541 621.5 592 c 128,-1,26
 595 643 595 643 540.5 671.5 c 128,-1,27
 486 700 486 700 407 700 c 2,28,-1
 266 700 l 1,29,-1
 242 557 l 1,8,-1
EndSplineSet
EndChar

StartChar: Racute
Encoding: 340 340 76
Width: 628
GlyphClass: 2
Flags: W
LayerCount: 2
Fore
SplineSet
270 317 m 1,0,-1
 406 0 l 1,1,-1
 595 0 l 1,2,-1
 438 317 l 1,3,-1
 270 317 l 1,0,-1
163 700 m 1,4,-1
 44 0 l 1,5,-1
 209 0 l 1,6,-1
 330 700 l 1,7,-1
 163 700 l 1,4,-1
242 557 m 1,8,-1
 379 557 l 2,9,10
 409 556 409 556 430.5 544.5 c 128,-1,11
 452 533 452 533 461.5 513.5 c 128,-1,12
 471 494 471 494 466 466 c 0,13,14
 461 437 461 437 443 416.5 c 128,-1,15
 425 396 425 396 398.5 385.5 c 128,-1,16
 372 375 372 375 340 374 c 2,17,-1
 211 374 l 1,18,-1
 187 243 l 1,19,-1
 339 243 l 2,20,21
 420 244 420 244 483.5 272 c 128,-1,22
 547 300 547 300 587.5 351 c 128,-1,23
 628 402 628 402 639 471 c 0,24,25
 649 541 649 541 623 591.5 c 128,-1,26
 597 642 597 642 541.5 670.5 c 128,-1,27
 486 699 486 699 407 700 c 2,28,-1
 266 700 l 1,29,-1
 242 557 l 1,8,-1
587 924 m 1,30,-1
 479 978 l 1,31,-1
 309 822 l 1,32,-1
 390 777 l 1,33,-1
 587 924 l 1,30,-1
EndSplineSet
EndChar

StartChar: uni0156
Encoding: 342 342 77
Width: 628
GlyphClass: 2
Flags: W
LayerCount: 2
Fore
SplineSet
270 317 m 1,0,-1
 406 0 l 1,1,-1
 595 0 l 1,2,-1
 438 317 l 1,3,-1
 270 317 l 1,0,-1
163 700 m 1,4,-1
 44 0 l 1,5,-1
 209 0 l 1,6,-1
 330 700 l 1,7,-1
 163 700 l 1,4,-1
242 557 m 1,8,-1
 379 557 l 2,9,10
 409 556 409 556 430.5 544.5 c 128,-1,11
 452 533 452 533 461.5 513.5 c 128,-1,12
 471 494 471 494 466 466 c 0,13,14
 461 437 461 437 443 416.5 c 128,-1,15
 425 396 425 396 398.5 385.5 c 128,-1,16
 372 375 372 375 340 374 c 2,17,-1
 211 374 l 1,18,-1
 187 243 l 1,19,-1
 339 243 l 2,20,21
 420 244 420 244 483.5 272 c 128,-1,22
 547 300 547 300 587.5 351 c 128,-1,23
 628 402 628 402 639 471 c 0,24,25
 649 541 649 541 623 591.5 c 128,-1,26
 597 642 597 642 541.5 670.5 c 128,-1,27
 486 699 486 699 407 700 c 2,28,-1
 266 700 l 1,29,-1
 242 557 l 1,8,-1
277 -61 m 1,30,-1
 148 -317 l 1,31,-1
 260 -341 l 1,32,-1
 424 -94 l 1,33,-1
 277 -61 l 1,30,-1
EndSplineSet
EndChar

StartChar: Rcaron
Encoding: 344 344 78
Width: 628
GlyphClass: 2
Flags: W
LayerCount: 2
Fore
SplineSet
270 317 m 1,0,-1
 406 0 l 1,1,-1
 595 0 l 1,2,-1
 438 317 l 1,3,-1
 270 317 l 1,0,-1
163 700 m 1,4,-1
 44 0 l 1,5,-1
 209 0 l 1,6,-1
 330 700 l 1,7,-1
 163 700 l 1,4,-1
242 557 m 1,8,-1
 379 557 l 2,9,10
 409 556 409 556 430.5 544.5 c 128,-1,11
 452 533 452 533 461.5 513.5 c 128,-1,12
 471 494 471 494 466 466 c 0,13,14
 461 437 461 437 443 416.5 c 128,-1,15
 425 396 425 396 398.5 385.5 c 128,-1,16
 372 375 372 375 340 374 c 2,17,-1
 211 374 l 1,18,-1
 187 243 l 1,19,-1
 339 243 l 2,20,21
 420 244 420 244 483.5 272 c 128,-1,22
 547 300 547 300 587.5 351 c 128,-1,23
 628 402 628 402 639 471 c 0,24,25
 649 541 649 541 623 591.5 c 128,-1,26
 597 642 597 642 541.5 670.5 c 128,-1,27
 486 699 486 699 407 700 c 2,28,-1
 266 700 l 1,29,-1
 242 557 l 1,8,-1
427 903 m 1,30,-1
 354 988 l 1,31,-1
 241 919 l 1,32,-1
 413 776 l 1,33,-1
 625 914 l 1,34,-1
 530 987 l 1,35,-1
 427 903 l 1,30,-1
EndSplineSet
EndChar

StartChar: uni0212
Encoding: 530 530 79
Width: 628
GlyphClass: 2
Flags: W
LayerCount: 2
Fore
SplineSet
270 317 m 1,0,-1
 406 0 l 1,1,-1
 595 0 l 1,2,-1
 438 317 l 1,3,-1
 270 317 l 1,0,-1
163 700 m 1,4,-1
 44 0 l 1,5,-1
 209 0 l 1,6,-1
 330 700 l 1,7,-1
 163 700 l 1,4,-1
242 557 m 1,8,-1
 379 557 l 2,9,10
 409 556 409 556 430.5 544.5 c 128,-1,11
 452 533 452 533 461.5 513.5 c 128,-1,12
 471 494 471 494 466 466 c 0,13,14
 461 437 461 437 443 416.5 c 128,-1,15
 425 396 425 396 398.5 385.5 c 128,-1,16
 372 375 372 375 340 374 c 2,17,-1
 211 374 l 1,18,-1
 187 243 l 1,19,-1
 339 243 l 2,20,21
 420 244 420 244 483.5 272 c 128,-1,22
 547 300 547 300 587.5 351 c 128,-1,23
 628 402 628 402 639 471 c 0,24,25
 649 541 649 541 623 591.5 c 128,-1,26
 597 642 597 642 541.5 670.5 c 128,-1,27
 486 699 486 699 407 700 c 2,28,-1
 266 700 l 1,29,-1
 242 557 l 1,8,-1
262 776 m 1,30,31
 273 816 273 816 298.5 849.5 c 128,-1,32
 324 883 324 883 362.5 903 c 128,-1,33
 401 923 401 923 452 922 c 0,34,35
 501 922 501 922 531 902 c 128,-1,36
 561 882 561 882 573 849.5 c 128,-1,37
 585 817 585 817 580 776 c 1,38,-1
 485 776 l 1,39,40
 485 793 485 793 479.5 806.5 c 128,-1,41
 474 820 474 820 462 827.5 c 128,-1,42
 450 835 450 835 430 836 c 0,43,44
 412 836 412 836 397 827.5 c 128,-1,45
 382 819 382 819 372 805.5 c 128,-1,46
 362 792 362 792 357 777 c 1,47,-1
 262 776 l 1,30,31
EndSplineSet
EndChar

StartChar: S
Encoding: 83 83 80
Width: 607
GlyphClass: 2
Flags: W
LayerCount: 2
Fore
SplineSet
156 246 m 1,0,-1
 32 162 l 1,1,2
 50 110 50 110 88 68 c 128,-1,3
 126 26 126 26 179 2 c 128,-1,4
 232 -22 232 -22 296 -22 c 0,5,6
 365 -22 365 -22 427.5 5.5 c 128,-1,7
 490 33 490 33 531.5 84 c 128,-1,8
 573 135 573 135 580 205 c 0,9,10
 584 259 584 259 566.5 299 c 128,-1,11
 549 339 549 339 514.5 367.5 c 128,-1,12
 480 396 480 396 434 413 c 0,13,14
 409 423 409 423 384.5 433 c 128,-1,15
 360 443 360 443 340.5 455 c 128,-1,16
 321 467 321 467 310.5 482 c 128,-1,17
 300 497 300 497 303 515 c 0,18,19
 304 533 304 533 315.5 546.5 c 128,-1,20
 327 560 327 560 345 567 c 128,-1,21
 363 574 363 574 386 574 c 0,22,23
 416 574 416 574 437 563.5 c 128,-1,24
 458 553 458 553 473.5 534.5 c 128,-1,25
 489 516 489 516 501 493 c 1,26,-1
 634 562 l 1,27,28
 617 604 617 604 586 639 c 128,-1,29
 555 674 555 674 509 695 c 128,-1,30
 463 716 463 716 400 716 c 0,31,32
 332 717 332 717 273.5 692 c 128,-1,33
 215 667 215 667 177 621.5 c 128,-1,34
 139 576 139 576 133 513 c 0,35,36
 129 470 129 470 142.5 436 c 128,-1,37
 156 402 156 402 179.5 376 c 128,-1,38
 203 350 203 350 231.5 331.5 c 128,-1,39
 260 313 260 313 287 302 c 0,40,41
 323 287 323 287 351 273.5 c 128,-1,42
 379 260 379 260 394 243.5 c 128,-1,43
 409 227 409 227 405 200 c 0,44,45
 404 179 404 179 390 161.5 c 128,-1,46
 376 144 376 144 354 134 c 128,-1,47
 332 124 332 124 305 124 c 0,48,49
 269 124 269 124 241.5 139.5 c 128,-1,50
 214 155 214 155 193.5 182.5 c 128,-1,51
 173 210 173 210 156 246 c 1,0,-1
EndSplineSet
EndChar

StartChar: Sacute
Encoding: 346 346 81
Width: 607
GlyphClass: 2
Flags: W
LayerCount: 2
Fore
SplineSet
161 251 m 1,0,-1
 34 169 l 1,1,2
 50 112 50 112 85 69 c 128,-1,3
 120 26 120 26 171 2.5 c 128,-1,4
 222 -21 222 -21 283 -22 c 0,5,6
 360 -22 360 -22 422.5 3 c 128,-1,7
 485 28 485 28 526 77 c 128,-1,8
 567 126 567 126 577 196 c 0,9,10
 584 251 584 251 567.5 292.5 c 128,-1,11
 551 334 551 334 517 364.5 c 128,-1,12
 483 395 483 395 436 413 c 0,13,14
 414 422 414 422 388.5 431.5 c 128,-1,15
 363 441 363 441 341.5 452.5 c 128,-1,16
 320 464 320 464 308.5 479 c 128,-1,17
 297 494 297 494 301 513 c 256,18,19
 305 532 305 532 318.5 545.5 c 128,-1,20
 332 559 332 559 352 566 c 128,-1,21
 372 573 372 573 393 573 c 0,22,23
 420 573 420 573 439 562 c 128,-1,24
 458 551 458 551 472 532.5 c 128,-1,25
 486 514 486 514 496 490 c 1,26,-1
 630 561 l 1,27,28
 618 605 618 605 588.5 639.5 c 128,-1,29
 559 674 559 674 512.5 695 c 128,-1,30
 466 716 466 716 402 716 c 0,31,32
 336 716 336 716 277.5 692 c 128,-1,33
 219 668 219 668 180.5 624.5 c 128,-1,34
 142 581 142 581 133 520 c 0,35,36
 126 462 126 462 148 419.5 c 128,-1,37
 170 377 170 377 208 348.5 c 128,-1,38
 246 320 246 320 284 302 c 0,39,40
 315 289 315 289 344.5 275.5 c 128,-1,41
 374 262 374 262 391 243 c 128,-1,42
 408 224 408 224 402 194 c 0,43,44
 398 172 398 172 384 156.5 c 128,-1,45
 370 141 370 141 349.5 133.5 c 128,-1,46
 329 126 329 126 303 126 c 0,47,48
 275 126 275 126 254 135 c 128,-1,49
 233 144 233 144 216.5 161 c 128,-1,50
 200 178 200 178 186.5 201 c 128,-1,51
 173 224 173 224 161 251 c 1,0,-1
618 924 m 1,52,-1
 511 978 l 1,53,-1
 340 822 l 1,54,-1
 421 777 l 1,55,-1
 618 924 l 1,52,-1
EndSplineSet
EndChar

StartChar: Scircumflex
Encoding: 348 348 82
Width: 607
GlyphClass: 2
Flags: W
LayerCount: 2
Fore
SplineSet
161 251 m 1,0,-1
 34 169 l 1,1,2
 50 112 50 112 85 69 c 128,-1,3
 120 26 120 26 171 2.5 c 128,-1,4
 222 -21 222 -21 283 -22 c 0,5,6
 360 -22 360 -22 422.5 3 c 128,-1,7
 485 28 485 28 526 77 c 128,-1,8
 567 126 567 126 577 196 c 0,9,10
 584 251 584 251 567.5 292.5 c 128,-1,11
 551 334 551 334 517 364.5 c 128,-1,12
 483 395 483 395 436 413 c 0,13,14
 414 422 414 422 388.5 431.5 c 128,-1,15
 363 441 363 441 341.5 452.5 c 128,-1,16
 320 464 320 464 308.5 479 c 128,-1,17
 297 494 297 494 301 513 c 256,18,19
 305 532 305 532 318.5 545.5 c 128,-1,20
 332 559 332 559 352 566 c 128,-1,21
 372 573 372 573 393 573 c 0,22,23
 420 573 420 573 439 562 c 128,-1,24
 458 551 458 551 472 532.5 c 128,-1,25
 486 514 486 514 496 490 c 1,26,-1
 630 561 l 1,27,28
 618 605 618 605 588.5 639.5 c 128,-1,29
 559 674 559 674 512.5 695 c 128,-1,30
 466 716 466 716 402 716 c 0,31,32
 336 716 336 716 277.5 692 c 128,-1,33
 219 668 219 668 180.5 624.5 c 128,-1,34
 142 581 142 581 133 520 c 0,35,36
 126 462 126 462 148 419.5 c 128,-1,37
 170 377 170 377 208 348.5 c 128,-1,38
 246 320 246 320 284 302 c 0,39,40
 315 289 315 289 344.5 275.5 c 128,-1,41
 374 262 374 262 391 243 c 128,-1,42
 408 224 408 224 402 194 c 0,43,44
 398 172 398 172 384 156.5 c 128,-1,45
 370 141 370 141 349.5 133.5 c 128,-1,46
 329 126 329 126 303 126 c 0,47,48
 275 126 275 126 254 135 c 128,-1,49
 233 144 233 144 216.5 161 c 128,-1,50
 200 178 200 178 186.5 201 c 128,-1,51
 173 224 173 224 161 251 c 1,0,-1
435 861 m 1,52,-1
 509 776 l 1,53,-1
 621 845 l 1,54,-1
 449 987 l 1,55,-1
 237 851 l 1,56,-1
 332 777 l 1,57,-1
 435 861 l 1,52,-1
EndSplineSet
EndChar

StartChar: Scedilla
Encoding: 350 350 83
Width: 607
GlyphClass: 2
Flags: W
LayerCount: 2
Fore
SplineSet
161 251 m 1,0,-1
 34 169 l 1,1,2
 50 112 50 112 85 69 c 128,-1,3
 120 26 120 26 171 2.5 c 128,-1,4
 222 -21 222 -21 283 -22 c 0,5,6
 358 -22 358 -22 421 3 c 128,-1,7
 484 28 484 28 525.5 77 c 128,-1,8
 567 126 567 126 577 196 c 0,9,10
 584 251 584 251 567.5 292.5 c 128,-1,11
 551 334 551 334 517 364.5 c 128,-1,12
 483 395 483 395 436 413 c 0,13,14
 414 422 414 422 388.5 431.5 c 128,-1,15
 363 441 363 441 341.5 452 c 128,-1,16
 320 463 320 463 308.5 478 c 128,-1,17
 297 493 297 493 301 513 c 0,18,19
 305 532 305 532 318 545.5 c 128,-1,20
 331 559 331 559 349.5 566 c 128,-1,21
 368 573 368 573 389 573 c 0,22,23
 416 573 416 573 436 562 c 128,-1,24
 456 551 456 551 471 532.5 c 128,-1,25
 486 514 486 514 496 490 c 1,26,-1
 630 561 l 1,27,28
 616 606 616 606 587 640.5 c 128,-1,29
 558 675 558 675 512 695.5 c 128,-1,30
 466 716 466 716 402 716 c 0,31,32
 334 716 334 716 276 692 c 128,-1,33
 218 668 218 668 180 623.5 c 128,-1,34
 142 579 142 579 133 519 c 0,35,36
 126 459 126 459 148 416.5 c 128,-1,37
 170 374 170 374 207.5 346.5 c 128,-1,38
 245 319 245 319 284 302 c 0,39,40
 315 289 315 289 344.5 275.5 c 128,-1,41
 374 262 374 262 391 243 c 128,-1,42
 408 224 408 224 402 194 c 0,43,44
 398 172 398 172 384 156.5 c 128,-1,45
 370 141 370 141 349.5 133.5 c 128,-1,46
 329 126 329 126 303 126 c 0,47,48
 275 126 275 126 254 135 c 128,-1,49
 233 144 233 144 216.5 161 c 128,-1,50
 200 178 200 178 186.5 201 c 128,-1,51
 173 224 173 224 161 251 c 1,0,-1
263 60 m 1,52,-1
 148 -132 l 1,53,54
 171 -124 171 -124 195 -120.5 c 128,-1,55
 219 -117 219 -117 233 -118 c 0,56,57
 245 -118 245 -118 257 -120.5 c 128,-1,58
 269 -123 269 -123 277 -129.5 c 128,-1,59
 285 -136 285 -136 283 -148 c 0,60,61
 283 -159 283 -159 273 -168 c 128,-1,62
 263 -177 263 -177 249 -181 c 128,-1,63
 235 -185 235 -185 222 -185 c 0,64,65
 205 -186 205 -186 185.5 -179 c 128,-1,66
 166 -172 166 -172 149 -160 c 1,67,-1
 96 -226 l 1,68,69
 129 -247 129 -247 162 -257 c 128,-1,70
 195 -267 195 -267 234 -267 c 0,71,72
 266 -266 266 -266 297 -253 c 128,-1,73
 328 -240 328 -240 350.5 -216.5 c 128,-1,74
 373 -193 373 -193 377 -160 c 0,75,76
 382 -117 382 -117 357.5 -89.5 c 128,-1,77
 333 -62 333 -62 300 -61 c 0,78,79
 291 -61 291 -61 283 -62.5 c 128,-1,80
 275 -64 275 -64 267 -65 c 1,81,-1
 375 57 l 1,82,-1
 263 60 l 1,52,-1
EndSplineSet
EndChar

StartChar: Scaron
Encoding: 352 352 84
Width: 607
GlyphClass: 2
Flags: W
LayerCount: 2
Fore
SplineSet
161 251 m 1,0,-1
 34 169 l 1,1,2
 50 112 50 112 85 69 c 128,-1,3
 120 26 120 26 171 2.5 c 128,-1,4
 222 -21 222 -21 283 -22 c 0,5,6
 360 -22 360 -22 422.5 3 c 128,-1,7
 485 28 485 28 526 77 c 128,-1,8
 567 126 567 126 577 196 c 0,9,10
 584 251 584 251 567.5 292.5 c 128,-1,11
 551 334 551 334 517 364.5 c 128,-1,12
 483 395 483 395 436 413 c 0,13,14
 414 422 414 422 388.5 431.5 c 128,-1,15
 363 441 363 441 341.5 452.5 c 128,-1,16
 320 464 320 464 308.5 479 c 128,-1,17
 297 494 297 494 301 513 c 256,18,19
 305 532 305 532 318.5 545.5 c 128,-1,20
 332 559 332 559 352 566 c 128,-1,21
 372 573 372 573 393 573 c 0,22,23
 420 573 420 573 439 562 c 128,-1,24
 458 551 458 551 472 532.5 c 128,-1,25
 486 514 486 514 496 490 c 1,26,-1
 630 561 l 1,27,28
 618 605 618 605 588.5 639.5 c 128,-1,29
 559 674 559 674 512.5 695 c 128,-1,30
 466 716 466 716 402 716 c 0,31,32
 336 716 336 716 277.5 692 c 128,-1,33
 219 668 219 668 180.5 624.5 c 128,-1,34
 142 581 142 581 133 520 c 0,35,36
 126 462 126 462 148 419.5 c 128,-1,37
 170 377 170 377 208 348.5 c 128,-1,38
 246 320 246 320 284 302 c 0,39,40
 315 289 315 289 344.5 275.5 c 128,-1,41
 374 262 374 262 391 243 c 128,-1,42
 408 224 408 224 402 194 c 0,43,44
 398 172 398 172 384 156.5 c 128,-1,45
 370 141 370 141 349.5 133.5 c 128,-1,46
 329 126 329 126 303 126 c 0,47,48
 275 126 275 126 254 135 c 128,-1,49
 233 144 233 144 216.5 161 c 128,-1,50
 200 178 200 178 186.5 201 c 128,-1,51
 173 224 173 224 161 251 c 1,0,-1
435 903 m 1,52,-1
 361 988 l 1,53,-1
 249 919 l 1,54,-1
 421 776 l 1,55,-1
 632 914 l 1,56,-1
 538 987 l 1,57,-1
 435 903 l 1,52,-1
EndSplineSet
EndChar

StartChar: uni0218
Encoding: 536 536 85
Width: 607
GlyphClass: 2
Flags: W
LayerCount: 2
Fore
SplineSet
161 251 m 1,0,-1
 34 169 l 1,1,2
 50 112 50 112 85 69 c 128,-1,3
 120 26 120 26 171 2.5 c 128,-1,4
 222 -21 222 -21 283 -22 c 0,5,6
 360 -22 360 -22 422.5 3 c 128,-1,7
 485 28 485 28 526 77 c 128,-1,8
 567 126 567 126 577 196 c 0,9,10
 584 251 584 251 567.5 292.5 c 128,-1,11
 551 334 551 334 517 364.5 c 128,-1,12
 483 395 483 395 436 413 c 0,13,14
 414 422 414 422 388.5 431.5 c 128,-1,15
 363 441 363 441 341.5 452.5 c 128,-1,16
 320 464 320 464 308.5 479 c 128,-1,17
 297 494 297 494 301 513 c 256,18,19
 305 532 305 532 318.5 545.5 c 128,-1,20
 332 559 332 559 352 566 c 128,-1,21
 372 573 372 573 393 573 c 0,22,23
 420 573 420 573 439 562 c 128,-1,24
 458 551 458 551 472 532.5 c 128,-1,25
 486 514 486 514 496 490 c 1,26,-1
 630 561 l 1,27,28
 618 605 618 605 588.5 639.5 c 128,-1,29
 559 674 559 674 512.5 695 c 128,-1,30
 466 716 466 716 402 716 c 0,31,32
 336 716 336 716 277.5 692 c 128,-1,33
 219 668 219 668 180.5 624.5 c 128,-1,34
 142 581 142 581 133 520 c 0,35,36
 126 462 126 462 148 419.5 c 128,-1,37
 170 377 170 377 208 348.5 c 128,-1,38
 246 320 246 320 284 302 c 0,39,40
 315 289 315 289 344.5 275.5 c 128,-1,41
 374 262 374 262 391 243 c 128,-1,42
 408 224 408 224 402 194 c 0,43,44
 398 172 398 172 384 156.5 c 128,-1,45
 370 141 370 141 349.5 133.5 c 128,-1,46
 329 126 329 126 303 126 c 0,47,48
 275 126 275 126 254 135 c 128,-1,49
 233 144 233 144 216.5 161 c 128,-1,50
 200 178 200 178 186.5 201 c 128,-1,51
 173 224 173 224 161 251 c 1,0,-1
213 -71 m 1,52,-1
 83 -327 l 1,53,-1
 195 -351 l 1,54,-1
 360 -104 l 1,55,-1
 213 -71 l 1,52,-1
EndSplineSet
EndChar

StartChar: T
Encoding: 84 84 86
Width: 545
GlyphClass: 2
Flags: W
LayerCount: 2
Fore
SplineSet
68 549 m 1,0,-1
 256 549 l 1,1,-1
 162 0 l 1,2,-1
 328 0 l 1,3,-1
 423 549 l 1,4,-1
 609 549 l 1,5,-1
 635 700 l 1,6,-1
 95 700 l 1,7,-1
 68 549 l 1,0,-1
EndSplineSet
EndChar

StartChar: Tcaron
Encoding: 356 356 88
Width: 545
GlyphClass: 2
Flags: W
LayerCount: 2
Fore
SplineSet
68 549 m 1,0,-1
 256 549 l 1,1,-1
 162 0 l 1,2,-1
 328 0 l 1,3,-1
 423 549 l 1,4,-1
 609 549 l 1,5,-1
 635 700 l 1,6,-1
 95 700 l 1,7,-1
 68 549 l 1,0,-1
396 903 m 1,8,-1
 322 988 l 1,9,-1
 210 919 l 1,10,-1
 382 776 l 1,11,-1
 593 914 l 1,12,-1
 499 987 l 1,13,-1
 396 903 l 1,8,-1
EndSplineSet
EndChar

StartChar: uni021A
Encoding: 538 538 89
Width: 545
GlyphClass: 2
Flags: W
LayerCount: 2
Fore
SplineSet
68 549 m 1,0,-1
 256 549 l 1,1,-1
 162 0 l 1,2,-1
 328 0 l 1,3,-1
 423 549 l 1,4,-1
 609 549 l 1,5,-1
 635 700 l 1,6,-1
 95 700 l 1,7,-1
 68 549 l 1,0,-1
202 -60 m 1,8,-1
 73 -316 l 1,9,-1
 184 -340 l 1,10,-1
 348 -93 l 1,11,-1
 202 -60 l 1,8,-1
EndSplineSet
EndChar

StartChar: U
Encoding: 85 85 90
Width: 680
GlyphClass: 2
Flags: W
LayerCount: 2
Fore
SplineSet
158 700 m 1,0,-1
 79 230 l 2,1,2
 68 150 68 150 95 92 c 128,-1,3
 122 34 122 34 179 3 c 128,-1,4
 236 -28 236 -28 313 -28 c 0,5,6
 396 -28 396 -28 462.5 2.5 c 128,-1,7
 529 33 529 33 572 91 c 128,-1,8
 615 149 615 149 628 230 c 2,9,-1
 707 700 l 1,10,-1
 541 700 l 1,11,-1
 462 243 l 2,12,13
 456 210 456 210 439.5 182.5 c 128,-1,14
 423 155 423 155 395.5 139 c 128,-1,15
 368 123 368 123 329 124 c 0,16,17
 294 124 294 124 274 140.5 c 128,-1,18
 254 157 254 157 247.5 184.5 c 128,-1,19
 241 212 241 212 245 242 c 2,20,-1
 325 700 l 1,21,-1
 158 700 l 1,0,-1
EndSplineSet
EndChar

StartChar: Ugrave
Encoding: 217 217 91
Width: 680
GlyphClass: 2
Flags: W
LayerCount: 2
Fore
SplineSet
158 700 m 1,0,-1
 79 230 l 2,1,2
 68 150 68 150 95 92 c 128,-1,3
 122 34 122 34 178.5 3 c 128,-1,4
 235 -28 235 -28 313 -28 c 0,5,6
 393 -28 393 -28 459.5 3 c 128,-1,7
 526 34 526 34 570.5 91.5 c 128,-1,8
 615 149 615 149 628 230 c 2,9,-1
 707 700 l 1,10,-1
 541 700 l 1,11,-1
 462 243 l 2,12,13
 456 210 456 210 438.5 182.5 c 128,-1,14
 421 155 421 155 393.5 139 c 128,-1,15
 366 123 366 123 329 124 c 0,16,17
 294 125 294 125 274 141.5 c 128,-1,18
 254 158 254 158 247.5 185 c 128,-1,19
 241 212 241 212 245 242 c 2,20,-1
 325 700 l 1,21,-1
 158 700 l 1,0,-1
315 928 m 1,22,-1
 468 776 l 1,23,-1
 553 816 l 1,24,-1
 433 979 l 1,25,-1
 315 928 l 1,22,-1
EndSplineSet
EndChar

StartChar: Uacute
Encoding: 218 218 92
Width: 680
GlyphClass: 2
Flags: W
LayerCount: 2
Fore
SplineSet
158 700 m 1,0,-1
 79 230 l 2,1,2
 68 150 68 150 95 92 c 128,-1,3
 122 34 122 34 178.5 3 c 128,-1,4
 235 -28 235 -28 313 -28 c 0,5,6
 393 -28 393 -28 459.5 3 c 128,-1,7
 526 34 526 34 570.5 91.5 c 128,-1,8
 615 149 615 149 628 230 c 2,9,-1
 707 700 l 1,10,-1
 541 700 l 1,11,-1
 462 243 l 2,12,13
 456 210 456 210 438.5 182.5 c 128,-1,14
 421 155 421 155 393.5 139 c 128,-1,15
 366 123 366 123 329 124 c 0,16,17
 294 125 294 125 274 141.5 c 128,-1,18
 254 158 254 158 247.5 185 c 128,-1,19
 241 212 241 212 245 242 c 2,20,-1
 325 700 l 1,21,-1
 158 700 l 1,0,-1
629 924 m 1,22,-1
 521 978 l 1,23,-1
 350 822 l 1,24,-1
 431 777 l 1,25,-1
 629 924 l 1,22,-1
EndSplineSet
EndChar

StartChar: Ucircumflex
Encoding: 219 219 93
Width: 680
GlyphClass: 2
Flags: W
LayerCount: 2
Fore
SplineSet
158 700 m 1,0,-1
 79 230 l 2,1,2
 68 150 68 150 95 92 c 128,-1,3
 122 34 122 34 178.5 3 c 128,-1,4
 235 -28 235 -28 313 -28 c 0,5,6
 393 -28 393 -28 459.5 3 c 128,-1,7
 526 34 526 34 570.5 91.5 c 128,-1,8
 615 149 615 149 628 230 c 2,9,-1
 707 700 l 1,10,-1
 541 700 l 1,11,-1
 462 243 l 2,12,13
 456 210 456 210 438.5 182.5 c 128,-1,14
 421 155 421 155 393.5 139 c 128,-1,15
 366 123 366 123 329 124 c 0,16,17
 294 125 294 125 274 141.5 c 128,-1,18
 254 158 254 158 247.5 185 c 128,-1,19
 241 212 241 212 245 242 c 2,20,-1
 325 700 l 1,21,-1
 158 700 l 1,0,-1
464 861 m 1,22,-1
 538 776 l 1,23,-1
 649 845 l 1,24,-1
 478 987 l 1,25,-1
 266 851 l 1,26,-1
 360 777 l 1,27,-1
 464 861 l 1,22,-1
EndSplineSet
EndChar

StartChar: Udieresis
Encoding: 220 220 94
Width: 680
GlyphClass: 2
Flags: W
LayerCount: 2
Fore
SplineSet
158 700 m 1,0,-1
 79 230 l 2,1,2
 68 150 68 150 95 92 c 128,-1,3
 122 34 122 34 178.5 3 c 128,-1,4
 235 -28 235 -28 313 -28 c 0,5,6
 393 -28 393 -28 459.5 3 c 128,-1,7
 526 34 526 34 570.5 91.5 c 128,-1,8
 615 149 615 149 628 230 c 2,9,-1
 707 700 l 1,10,-1
 541 700 l 1,11,-1
 462 243 l 2,12,13
 456 210 456 210 438.5 182.5 c 128,-1,14
 421 155 421 155 393.5 139 c 128,-1,15
 366 123 366 123 329 124 c 0,16,17
 294 125 294 125 274 141.5 c 128,-1,18
 254 158 254 158 247.5 185 c 128,-1,19
 241 212 241 212 245 242 c 2,20,-1
 325 700 l 1,21,-1
 158 700 l 1,0,-1
509 860 m 0,22,23
 506 825 506 825 528 801.5 c 128,-1,24
 550 778 550 778 585 777 c 0,25,26
 620 777 620 777 649 800 c 128,-1,27
 678 823 678 823 682 857 c 0,28,29
 687 892 687 892 664.5 915.5 c 128,-1,30
 642 939 642 939 607 940 c 0,31,32
 572 940 572 940 543 916.5 c 128,-1,33
 514 893 514 893 509 860 c 0,22,23
237 860 m 0,34,35
 233 825 233 825 255 801.5 c 128,-1,36
 277 778 277 778 312 777 c 0,37,38
 347 777 347 777 376 800 c 128,-1,39
 405 823 405 823 410 857 c 0,40,41
 414 892 414 892 391.5 915.5 c 128,-1,42
 369 939 369 939 334 940 c 0,43,44
 299 940 299 940 270 916.5 c 128,-1,45
 241 893 241 893 237 860 c 0,34,35
EndSplineSet
EndChar

StartChar: Utilde
Encoding: 360 360 95
Width: 680
GlyphClass: 2
Flags: W
LayerCount: 2
Fore
SplineSet
158 700 m 1,0,-1
 78 230 l 2,1,2
 68 150 68 150 95 92 c 128,-1,3
 122 34 122 34 179 3 c 128,-1,4
 236 -28 236 -28 314 -28 c 0,5,6
 394 -28 394 -28 460.5 3 c 128,-1,7
 527 34 527 34 571 91.5 c 128,-1,8
 615 149 615 149 628 230 c 2,9,-1
 707 700 l 1,10,-1
 541 700 l 1,11,-1
 462 243 l 2,12,13
 456 210 456 210 438.5 182.5 c 128,-1,14
 421 155 421 155 393.5 139 c 128,-1,15
 366 123 366 123 329 124 c 0,16,17
 294 125 294 125 274 141.5 c 128,-1,18
 254 158 254 158 247.5 185 c 128,-1,19
 241 212 241 212 245 242 c 2,20,-1
 325 700 l 1,21,-1
 158 700 l 1,0,-1
265 843 m 1,22,-1
 330 780 l 1,23,24
 336 794 336 794 348 811.5 c 128,-1,25
 360 829 360 829 385 830 c 0,26,27
 409 832 409 832 428.5 819 c 128,-1,28
 448 806 448 806 467.5 792.5 c 128,-1,29
 487 779 487 779 512 778 c 0,30,31
 542 777 542 777 569 790 c 128,-1,32
 596 803 596 803 617.5 822.5 c 128,-1,33
 639 842 639 842 652 861 c 1,34,-1
 590 937 l 1,35,36
 575 918 575 918 556.5 902 c 128,-1,37
 538 886 538 886 517 885 c 0,38,39
 492 884 492 884 474.5 896.5 c 128,-1,40
 457 909 457 909 438.5 922.5 c 128,-1,41
 420 936 420 936 393 936 c 0,42,43
 364 936 364 936 337.5 922.5 c 128,-1,44
 311 909 311 909 291.5 888 c 128,-1,45
 272 867 272 867 265 843 c 1,22,-1
EndSplineSet
EndChar

StartChar: Umacron
Encoding: 362 362 96
Width: 680
GlyphClass: 2
Flags: W
LayerCount: 2
Fore
SplineSet
158 700 m 1,0,-1
 78 230 l 2,1,2
 68 150 68 150 95 92 c 128,-1,3
 122 34 122 34 179 3 c 128,-1,4
 236 -28 236 -28 314 -28 c 0,5,6
 394 -28 394 -28 460.5 3 c 128,-1,7
 527 34 527 34 571 91.5 c 128,-1,8
 615 149 615 149 628 230 c 2,9,-1
 707 700 l 1,10,-1
 541 700 l 1,11,-1
 462 243 l 2,12,13
 456 210 456 210 438.5 182.5 c 128,-1,14
 421 155 421 155 393.5 139 c 128,-1,15
 366 123 366 123 329 124 c 0,16,17
 294 125 294 125 274 141.5 c 128,-1,18
 254 158 254 158 247.5 185 c 128,-1,19
 241 212 241 212 245 242 c 2,20,-1
 325 700 l 1,21,-1
 158 700 l 1,0,-1
265 777 m 1,22,-1
 629 777 l 1,23,-1
 650 907 l 1,24,-1
 286 907 l 1,25,-1
 265 777 l 1,22,-1
EndSplineSet
EndChar

StartChar: Ubreve
Encoding: 364 364 97
Width: 680
GlyphClass: 2
Flags: W
LayerCount: 2
Fore
SplineSet
158 700 m 1,0,-1
 78 230 l 2,1,2
 68 150 68 150 95 92 c 128,-1,3
 122 34 122 34 179 3 c 128,-1,4
 236 -28 236 -28 314 -28 c 0,5,6
 394 -28 394 -28 460.5 3 c 128,-1,7
 527 34 527 34 571 91.5 c 128,-1,8
 615 149 615 149 628 230 c 2,9,-1
 707 700 l 1,10,-1
 541 700 l 1,11,-1
 462 243 l 2,12,13
 456 210 456 210 438.5 182.5 c 128,-1,14
 421 155 421 155 393.5 139 c 128,-1,15
 366 123 366 123 329 124 c 0,16,17
 294 125 294 125 274 141.5 c 128,-1,18
 254 158 254 158 247.5 185 c 128,-1,19
 241 212 241 212 245 242 c 2,20,-1
 325 700 l 1,21,-1
 158 700 l 1,0,-1
310 922 m 1,22,23
 308 881 308 881 323 848 c 128,-1,24
 338 815 338 815 370.5 796 c 128,-1,25
 403 777 403 777 452 777 c 0,26,27
 502 777 502 777 538.5 796.5 c 128,-1,28
 575 816 575 816 598.5 848.5 c 128,-1,29
 622 881 622 881 631 921 c 1,30,-1
 531 922 l 1,31,32
 527 906 527 906 516.5 892.5 c 128,-1,33
 506 879 506 879 491 871 c 128,-1,34
 476 863 476 863 457 863 c 0,35,36
 438 864 438 864 427 872 c 128,-1,37
 416 880 416 880 411 893.5 c 128,-1,38
 406 907 406 907 405 922 c 1,39,-1
 310 922 l 1,22,23
EndSplineSet
EndChar

StartChar: Uring
Encoding: 366 366 98
Width: 680
GlyphClass: 2
Flags: W
LayerCount: 2
Fore
SplineSet
158 700 m 1,0,-1
 79 230 l 2,1,2
 68 150 68 150 95 92 c 128,-1,3
 122 34 122 34 178.5 3 c 128,-1,4
 235 -28 235 -28 313 -28 c 0,5,6
 393 -28 393 -28 459.5 3 c 128,-1,7
 526 34 526 34 570.5 91.5 c 128,-1,8
 615 149 615 149 628 230 c 2,9,-1
 707 700 l 1,10,-1
 541 700 l 1,11,-1
 462 243 l 2,12,13
 456 210 456 210 438.5 182.5 c 128,-1,14
 421 155 421 155 393.5 139 c 128,-1,15
 366 123 366 123 329 124 c 0,16,17
 294 125 294 125 274 141.5 c 128,-1,18
 254 158 254 158 247.5 185 c 128,-1,19
 241 212 241 212 245 242 c 2,20,-1
 325 700 l 1,21,-1
 158 700 l 1,0,-1
343 893 m 0,22,23
 338 860 338 860 351 834 c 128,-1,24
 364 808 364 808 390 792.5 c 128,-1,25
 416 777 416 777 449 777 c 256,26,27
 482 777 482 777 512.5 792 c 128,-1,28
 543 807 543 807 563.5 832.5 c 128,-1,29
 584 858 584 858 588 891 c 256,30,31
 592 924 592 924 579 950 c 128,-1,32
 566 976 566 976 540 991.5 c 128,-1,33
 514 1007 514 1007 480 1007 c 0,34,35
 447 1007 447 1007 417.5 992 c 128,-1,36
 388 977 388 977 367.5 951.5 c 128,-1,37
 347 926 347 926 343 893 c 0,22,23
420 891 m 0,38,39
 422 904 422 904 430.5 915 c 128,-1,40
 439 926 439 926 451.5 933.5 c 128,-1,41
 464 941 464 941 475 940 c 0,42,43
 493 939 493 939 502.5 925 c 128,-1,44
 512 911 512 911 510 893 c 0,45,46
 509 881 509 881 500 869.5 c 128,-1,47
 491 858 491 858 478.5 851.5 c 128,-1,48
 466 845 466 845 454 845 c 0,49,50
 437 846 437 846 427.5 860 c 128,-1,51
 418 874 418 874 420 891 c 0,38,39
EndSplineSet
EndChar

StartChar: V
Encoding: 86 86 101
Width: 713
GlyphClass: 2
Flags: W
LayerCount: 2
Fore
SplineSet
381 285 m 1,0,-1
 281 700 l 1,1,-1
 90 700 l 1,2,-1
 333 -46 l 1,3,-1
 809 700 l 1,4,-1
 611 700 l 1,5,-1
 381 285 l 1,0,-1
EndSplineSet
EndChar

StartChar: W
Encoding: 87 87 102
Width: 1033
GlyphClass: 2
Flags: W
LayerCount: 2
Fore
SplineSet
730 295 m 1,0,-1
 612 738 l 1,1,-1
 355 297 l 1,2,-1
 289 700 l 1,3,-1
 95 700 l 1,4,-1
 275 -44 l 1,5,-1
 560 379 l 1,6,-1
 714 -43 l 1,7,-1
 1124 700 l 1,8,-1
 924 700 l 1,9,-1
 730 295 l 1,0,-1
EndSplineSet
EndChar

StartChar: Wcircumflex
Encoding: 372 372 103
Width: 1033
GlyphClass: 2
Flags: W
LayerCount: 2
Fore
SplineSet
730 287 m 1,0,-1
 613 738 l 1,1,-1
 349 289 l 1,2,-1
 290 700 l 1,3,-1
 96 700 l 1,4,-1
 270 -44 l 1,5,-1
 560 379 l 1,6,-1
 709 -43 l 1,7,-1
 1125 700 l 1,8,-1
 924 700 l 1,9,-1
 730 287 l 1,0,-1
642 882 m 1,10,-1
 716 797 l 1,11,-1
 827 866 l 1,12,-1
 655 1009 l 1,13,-1
 444 872 l 1,14,-1
 538 798 l 1,15,-1
 642 882 l 1,10,-1
EndSplineSet
EndChar

StartChar: X
Encoding: 88 88 109
Width: 665
GlyphClass: 2
Flags: W
LayerCount: 2
Fore
SplineSet
532 700 m 1,0,-1
 393 500 l 1,1,-1
 320 700 l 1,2,-1
 120 700 l 1,3,-1
 276 363 l 1,4,-1
 -17 0 l 1,5,-1
 192 0 l 1,6,-1
 355 230 l 1,7,-1
 443 0 l 1,8,-1
 643 0 l 1,9,-1
 472 356 l 1,10,-1
 742 700 l 1,11,-1
 532 700 l 1,0,-1
EndSplineSet
EndChar

StartChar: Y
Encoding: 89 89 110
Width: 640
GlyphClass: 2
Flags: W
LayerCount: 2
Fore
SplineSet
542 700 m 1,0,-1
 366 440 l 1,1,-1
 279 700 l 1,2,-1
 92 700 l 1,3,-1
 259 288 l 1,4,-1
 209 0 l 1,5,-1
 378 0 l 1,6,-1
 426 281 l 1,7,-1
 738 700 l 1,8,-1
 542 700 l 1,0,-1
EndSplineSet
EndChar

StartChar: Yacute
Encoding: 221 221 111
Width: 640
GlyphClass: 2
Flags: W
LayerCount: 2
Fore
SplineSet
609 924 m 1,0,-1
 501 978 l 1,1,-1
 331 822 l 1,2,-1
 411 777 l 1,3,-1
 609 924 l 1,0,-1
542 700 m 1,4,-1
 366 440 l 1,5,-1
 279 700 l 1,6,-1
 92 700 l 1,7,-1
 259 288 l 1,8,-1
 209 0 l 1,9,-1
 378 0 l 1,10,-1
 426 281 l 1,11,-1
 738 700 l 1,12,-1
 542 700 l 1,4,-1
EndSplineSet
EndChar

StartChar: Ycircumflex
Encoding: 374 374 112
Width: 640
GlyphClass: 2
Flags: W
LayerCount: 2
Fore
SplineSet
542 700 m 1,0,-1
 365 441 l 1,1,-1
 279 700 l 1,2,-1
 93 700 l 1,3,-1
 259 289 l 1,4,-1
 208 0 l 1,5,-1
 378 0 l 1,6,-1
 426 281 l 1,7,-1
 739 700 l 1,8,-1
 542 700 l 1,0,-1
440 862 m 1,9,-1
 514 776 l 1,10,-1
 626 846 l 1,11,-1
 454 988 l 1,12,-1
 243 851 l 1,13,-1
 338 777 l 1,14,-1
 440 862 l 1,9,-1
EndSplineSet
EndChar

StartChar: Ydieresis
Encoding: 376 376 113
Width: 640
GlyphClass: 2
Flags: W
LayerCount: 2
Fore
SplineSet
219 870 m 0,0,1
 215 836 215 836 237 812 c 128,-1,2
 259 788 259 788 294 788 c 0,3,4
 329 787 329 787 358.5 810.5 c 128,-1,5
 388 834 388 834 391 867 c 0,6,7
 396 902 396 902 373.5 926 c 128,-1,8
 351 950 351 950 316 950 c 0,9,10
 282 951 282 951 253 927.5 c 128,-1,11
 224 904 224 904 219 870 c 0,0,1
492 870 m 256,12,13
 488 836 488 836 510 812 c 128,-1,14
 532 788 532 788 567 788 c 0,15,16
 601 787 601 787 630.5 810.5 c 128,-1,17
 660 834 660 834 664 867 c 0,18,19
 669 902 669 902 646 926 c 128,-1,20
 623 950 623 950 589 950 c 0,21,22
 554 951 554 951 525 927.5 c 128,-1,23
 496 904 496 904 492 870 c 256,12,13
542 700 m 1,24,-1
 366 440 l 1,25,-1
 279 700 l 1,26,-1
 92 700 l 1,27,-1
 259 288 l 1,28,-1
 209 0 l 1,29,-1
 378 0 l 1,30,-1
 426 281 l 1,31,-1
 738 700 l 1,32,-1
 542 700 l 1,24,-1
EndSplineSet
EndChar

StartChar: Z
Encoding: 90 90 115
Width: 601
GlyphClass: 2
Flags: W
LayerCount: 2
Fore
SplineSet
120 549 m 1,0,-1
 389 549 l 1,1,-1
 -22 0 l 1,2,-1
 527 0 l 1,3,-1
 553 145 l 1,4,-1
 268 146 l 1,5,-1
 684 700 l 1,6,-1
 147 700 l 1,7,-1
 120 549 l 1,0,-1
EndSplineSet
EndChar

StartChar: Zacute
Encoding: 377 377 116
Width: 601
GlyphClass: 2
Flags: W
LayerCount: 2
Fore
SplineSet
120 549 m 1,0,-1
 389 549 l 1,1,-1
 -22 0 l 1,2,-1
 527 0 l 1,3,-1
 553 145 l 1,4,-1
 268 146 l 1,5,-1
 684 700 l 1,6,-1
 147 700 l 1,7,-1
 120 549 l 1,0,-1
621 924 m 1,8,-1
 513 978 l 1,9,-1
 342 822 l 1,10,-1
 424 777 l 1,11,-1
 621 924 l 1,8,-1
EndSplineSet
EndChar

StartChar: Zdotaccent
Encoding: 379 379 117
Width: 601
GlyphClass: 2
Flags: W
LayerCount: 2
Fore
SplineSet
120 549 m 1,0,-1
 389 549 l 1,1,-1
 -22 0 l 1,2,-1
 527 0 l 1,3,-1
 553 145 l 1,4,-1
 268 146 l 1,5,-1
 684 700 l 1,6,-1
 147 700 l 1,7,-1
 120 549 l 1,0,-1
354 860 m 0,8,9
 351 825 351 825 373 801.5 c 128,-1,10
 395 778 395 778 430 777 c 0,11,12
 464 777 464 777 493.5 800 c 128,-1,13
 523 823 523 823 527 857 c 0,14,15
 531 892 531 892 508.5 915.5 c 128,-1,16
 486 939 486 939 452 940 c 0,17,18
 417 940 417 940 388 916.5 c 128,-1,19
 359 893 359 893 354 860 c 0,8,9
EndSplineSet
EndChar

StartChar: Zcaron
Encoding: 381 381 118
Width: 601
GlyphClass: 2
Flags: W
LayerCount: 2
Fore
SplineSet
120 549 m 1,0,-1
 389 549 l 1,1,-1
 -22 0 l 1,2,-1
 527 0 l 1,3,-1
 553 145 l 1,4,-1
 268 146 l 1,5,-1
 684 700 l 1,6,-1
 147 700 l 1,7,-1
 120 549 l 1,0,-1
445 903 m 1,8,-1
 371 988 l 1,9,-1
 259 919 l 1,10,-1
 431 776 l 1,11,-1
 642 914 l 1,12,-1
 548 987 l 1,13,-1
 445 903 l 1,8,-1
EndSplineSet
EndChar

StartChar: AE
Encoding: 198 198 119
Width: 1053
GlyphClass: 2
Flags: W
LayerCount: 2
Fore
SplineSet
259 151 m 1,0,-1
 559 151 l 1,1,-1
 586 306 l 1,2,-1
 292 306 l 1,3,-1
 259 151 l 1,0,-1
521 700 m 1,4,-1
 -16 0 l 1,5,-1
 197 0 l 1,6,-1
 670 658 l 1,7,-1
 521 700 l 1,4,-1
584 0 m 1,8,-1
 959 0 l 1,9,-1
 983 139 l 1,10,-1
 607 139 l 1,11,-1
 584 0 l 1,8,-1
692 561 m 1,12,-1
 1055 561 l 1,13,-1
 1079 700 l 1,14,-1
 521 700 l 1,15,-1
 692 561 l 1,12,-1
635 300 m 1,16,-1
 991 300 l 1,17,-1
 1015 436 l 1,18,-1
 659 436 l 1,19,-1
 635 300 l 1,16,-1
624 700 m 1,20,-1
 505 0 l 1,21,-1
 683 0 l 1,22,-1
 803 700 l 1,23,-1
 624 700 l 1,20,-1
EndSplineSet
EndChar

StartChar: Eth
Encoding: 208 208 120
Width: 711
GlyphClass: 2
Flags: W
LayerCount: 2
Fore
SplineSet
29 303 m 1,0,-1
 371 303 l 1,1,-1
 388 402 l 1,2,-1
 46 402 l 1,3,-1
 29 303 l 1,0,-1
163 700 m 1,4,-1
 44 0 l 1,5,-1
 215 0 l 1,6,-1
 335 700 l 1,7,-1
 163 700 l 1,4,-1
293 0 m 2,8,9
 403 2 403 2 492.5 45.5 c 128,-1,10
 582 89 582 89 639.5 167 c 128,-1,11
 697 245 697 245 713 350 c 0,12,13
 728 452 728 452 694 530.5 c 128,-1,14
 660 609 660 609 585 654 c 128,-1,15
 510 699 510 699 402 700 c 2,16,-1
 272 700 l 1,17,-1
 245 550 l 1,18,-1
 380 550 l 2,19,20
 437 549 437 549 476.5 525.5 c 128,-1,21
 516 502 516 502 533.5 458 c 128,-1,22
 551 414 551 414 541 350 c 0,23,24
 530 284 530 284 495.5 240 c 128,-1,25
 461 196 461 196 411 174 c 128,-1,26
 361 152 361 152 303 150 c 2,27,-1
 178 150 l 1,28,-1
 152 0 l 1,29,-1
 293 0 l 2,8,9
EndSplineSet
EndChar

StartChar: Oslash
Encoding: 216 216 121
Width: 767
GlyphClass: 2
Flags: W
LayerCount: 2
Fore
SplineSet
240 350 m 0,0,1
 247 394 247 394 267.5 432.5 c 128,-1,2
 288 471 288 471 318.5 500 c 128,-1,3
 349 529 349 529 388 545 c 128,-1,4
 427 561 427 561 472 561 c 256,5,6
 517 561 517 561 548 543.5 c 128,-1,7
 579 526 579 526 598 496.5 c 128,-1,8
 617 467 617 467 623 429 c 128,-1,9
 629 391 629 391 623 350 c 0,10,11
 616 306 616 306 595.5 268 c 128,-1,12
 575 230 575 230 544 201 c 128,-1,13
 513 172 513 172 474 155.5 c 128,-1,14
 435 139 435 139 390 140 c 0,15,16
 346 140 346 140 314.5 157.5 c 128,-1,17
 283 175 283 175 264.5 204.5 c 128,-1,18
 246 234 246 234 240 271.5 c 128,-1,19
 234 309 234 309 240 350 c 0,0,1
64 350 m 0,20,21
 54 275 54 275 70.5 208 c 128,-1,22
 87 141 87 141 128 89.5 c 128,-1,23
 169 38 169 38 231 8 c 128,-1,24
 293 -22 293 -22 373 -22 c 0,25,26
 454 -22 454 -22 526 6.5 c 128,-1,27
 598 35 598 35 655 86 c 128,-1,28
 712 137 712 137 749.5 204.5 c 128,-1,29
 787 272 787 272 799 350 c 0,30,31
 809 425 809 425 792 491.5 c 128,-1,32
 775 558 775 558 733.5 608.5 c 128,-1,33
 692 659 692 659 629.5 687.5 c 128,-1,34
 567 716 567 716 489 716 c 0,35,36
 408 716 408 716 336 688.5 c 128,-1,37
 264 661 264 661 207.5 611 c 128,-1,38
 151 561 151 561 113.5 494.5 c 128,-1,39
 76 428 76 428 64 350 c 0,20,21
775 756 m 1,40,-1
 19 -3 l 1,41,-1
 83 -56 l 1,42,-1
 840 700 l 1,43,-1
 775 756 l 1,40,-1
EndSplineSet
EndChar

StartChar: Thorn
Encoding: 222 222 122
Width: 594
GlyphClass: 2
Flags: W
LayerCount: 2
Fore
SplineSet
169 700 m 1,0,-1
 50 0 l 1,1,-1
 195 0 l 1,2,-1
 315 700 l 1,3,-1
 169 700 l 1,0,-1
216 446 m 1,4,-1
 355 446 l 2,5,6
 388 445 388 445 412 435.5 c 128,-1,7
 436 426 436 426 447 406 c 128,-1,8
 458 386 458 386 452 354 c 0,9,10
 447 321 447 321 427.5 300.5 c 128,-1,11
 408 280 408 280 379 270.5 c 128,-1,12
 350 261 350 261 314 260 c 2,13,-1
 185 260 l 1,14,-1
 161 128 l 1,15,-1
 301 128 l 2,16,17
 382 129 382 129 445.5 155.5 c 128,-1,18
 509 182 509 182 549 232 c 128,-1,19
 589 282 589 282 600 353 c 0,20,21
 612 424 612 424 585 474 c 128,-1,22
 558 524 558 524 502.5 551 c 128,-1,23
 447 578 447 578 368 579 c 2,24,-1
 239 579 l 1,25,-1
 216 446 l 1,4,-1
EndSplineSet
EndChar

StartChar: Dcroat
Encoding: 272 272 123
Width: 711
GlyphClass: 2
Flags: W
LayerCount: 2
Fore
SplineSet
27 298 m 1,0,-1
 364 298 l 1,1,-1
 381 397 l 1,2,-1
 45 397 l 1,3,-1
 27 298 l 1,0,-1
163 700 m 1,4,-1
 44 0 l 1,5,-1
 215 0 l 1,6,-1
 335 700 l 1,7,-1
 163 700 l 1,4,-1
293 0 m 2,8,9
 403 2 403 2 492.5 45.5 c 128,-1,10
 582 89 582 89 639.5 167 c 128,-1,11
 697 245 697 245 713 350 c 0,12,13
 728 452 728 452 694 530.5 c 128,-1,14
 660 609 660 609 585 654 c 128,-1,15
 510 699 510 699 402 700 c 2,16,-1
 272 700 l 1,17,-1
 245 550 l 1,18,-1
 380 550 l 2,19,20
 437 549 437 549 476.5 525.5 c 128,-1,21
 516 502 516 502 533.5 458 c 128,-1,22
 551 414 551 414 541 350 c 0,23,24
 530 284 530 284 495.5 240 c 128,-1,25
 461 196 461 196 411 174 c 128,-1,26
 361 152 361 152 303 150 c 2,27,-1
 178 150 l 1,28,-1
 152 0 l 1,29,-1
 293 0 l 2,8,9
EndSplineSet
EndChar

StartChar: Hbar
Encoding: 294 294 124
Width: 763
GlyphClass: 2
Flags: W
LayerCount: 2
Fore
SplineSet
92 294 m 1,0,-1
 611 294 l 1,1,-1
 637 445 l 1,2,-1
 118 445 l 1,3,-1
 92 294 l 1,0,-1
571 700 m 1,4,-1
 452 0 l 1,5,-1
 620 0 l 1,6,-1
 740 700 l 1,7,-1
 571 700 l 1,4,-1
115 700 m 1,8,-1
 -4 0 l 1,9,-1
 163 0 l 1,10,-1
 284 700 l 1,11,-1
 115 700 l 1,8,-1
21 537 m 1,12,-1
 779 537 l 1,13,-1
 797 643 l 1,14,-1
 40 643 l 1,15,-1
 21 537 l 1,12,-1
EndSplineSet
EndChar

StartChar: IJ
Encoding: 306 306 125
Width: 605
GlyphClass: 2
Flags: W
LayerCount: 2
Fore
SplineSet
173 -64 m 1,0,-1
 67 -181 l 1,1,2
 102 -204 102 -204 148 -221 c 128,-1,3
 194 -238 194 -238 247 -238 c 0,4,5
 309 -238 309 -238 362.5 -218.5 c 128,-1,6
 416 -199 416 -199 452.5 -157.5 c 128,-1,7
 489 -116 489 -116 499 -54 c 2,8,-1
 628 700 l 1,9,-1
 448 700 l 1,10,-1
 325 -15 l 2,11,12
 319 -51 319 -51 296 -73.5 c 128,-1,13
 273 -96 273 -96 246 -97 c 0,14,15
 224 -98 224 -98 205.5 -87.5 c 128,-1,16
 187 -77 187 -77 173 -64 c 1,0,-1
163 700 m 1,17,-1
 44 0 l 1,18,-1
 213 0 l 1,19,-1
 333 700 l 1,20,-1
 163 700 l 1,17,-1
EndSplineSet
EndChar

StartChar: Ldot
Encoding: 319 319 126
Width: 512
GlyphClass: 2
Flags: W
LayerCount: 2
Fore
SplineSet
163 700 m 1,0,-1
 43 0 l 1,1,-1
 482 0 l 1,2,-1
 508 145 l 1,3,-1
 235 145 l 1,4,-1
 330 700 l 1,5,-1
 163 700 l 1,0,-1
359 432 m 0,6,7
 354 395 354 395 377 367.5 c 128,-1,8
 400 340 400 340 439 339 c 0,9,10
 465 339 465 339 487.5 351.5 c 128,-1,11
 510 364 510 364 525.5 385 c 128,-1,12
 541 406 541 406 544 430 c 0,13,14
 548 454 548 454 538 475 c 128,-1,15
 528 496 528 496 509 509 c 128,-1,16
 490 522 490 522 464 523 c 0,17,18
 438 523 438 523 415.5 510.5 c 128,-1,19
 393 498 393 498 378 477 c 128,-1,20
 363 456 363 456 359 432 c 0,6,7
EndSplineSet
EndChar

StartChar: Lslash
Encoding: 321 321 127
Width: 518
GlyphClass: 2
Flags: W
LayerCount: 2
Fore
SplineSet
33 309 m 1,0,-1
 426 552 l 1,1,-1
 399 628 l 1,2,-1
 7 386 l 1,3,-1
 33 309 l 1,0,-1
163 700 m 1,4,-1
 43 0 l 1,5,-1
 482 0 l 1,6,-1
 508 145 l 1,7,-1
 235 145 l 1,8,-1
 330 700 l 1,9,-1
 163 700 l 1,4,-1
EndSplineSet
EndChar

StartChar: Eng
Encoding: 330 330 128
Width: 794
GlyphClass: 2
Flags: W
LayerCount: 2
Fore
SplineSet
466 -215 m 0,0,1
 520 -215 520 -215 562 -195 c 128,-1,2
 604 -175 604 -175 631.5 -137.5 c 128,-1,3
 659 -100 659 -100 667 -49 c 2,4,-1
 792 700 l 1,5,-1
 629 700 l 1,6,-1
 563 306 l 1,7,-1
 152 735 l 1,8,-1
 29 0 l 1,9,-1
 191 0 l 1,10,-1
 257 394 l 1,11,-1
 544 86 l 1,12,-1
 528 -11 l 2,13,14
 525 -34 525 -34 516.5 -49 c 128,-1,15
 508 -64 508 -64 496 -71.5 c 128,-1,16
 484 -79 484 -79 469 -79 c 256,17,18
 454 -79 454 -79 444.5 -72.5 c 128,-1,19
 435 -66 435 -66 426 -54 c 1,20,-1
 347 -164 l 1,21,22
 372 -191 372 -191 400 -203 c 128,-1,23
 428 -215 428 -215 466 -215 c 0,0,1
EndSplineSet
EndChar

StartChar: OE
Encoding: 338 338 129
Width: 956
GlyphClass: 2
Flags: W
LayerCount: 2
Fore
SplineSet
568 300 m 1,0,-1
 927 300 l 1,1,-1
 951 436 l 1,2,-1
 592 436 l 1,3,-1
 568 300 l 1,0,-1
556 670 m 1,4,-1
 446 30 l 1,5,-1
 607 30 l 1,6,-1
 717 670 l 1,7,-1
 556 670 l 1,4,-1
918 139 m 1,8,-1
 548 139 l 1,9,-1
 526 148 l 1,10,-1
 402 149 l 2,11,12
 354 150 354 150 319 164.5 c 128,-1,13
 284 179 284 179 263.5 205.5 c 128,-1,14
 243 232 243 232 236 268.5 c 128,-1,15
 229 305 229 305 236 350 c 0,16,17
 245 397 245 397 265.5 434 c 128,-1,18
 286 471 286 471 317 497 c 128,-1,19
 348 523 348 523 389.5 537 c 128,-1,20
 431 551 431 551 481 552 c 2,21,-1
 607 552 l 1,22,-1
 625 561 l 1,23,-1
 991 561 l 1,24,-1
 1016 700 l 1,25,-1
 466 700 l 2,26,27
 390 699 390 699 322 672.5 c 128,-1,28
 254 646 254 646 200 599.5 c 128,-1,29
 146 553 146 553 111 489.5 c 128,-1,30
 76 426 76 426 64 350 c 0,31,32
 54 277 54 277 70 214 c 128,-1,33
 86 151 86 151 125 103.5 c 128,-1,34
 164 56 164 56 223 29 c 128,-1,35
 282 2 282 2 357 0 c 2,36,-1
 896 0 l 1,37,-1
 918 139 l 1,8,-1
EndSplineSet
EndChar

StartChar: Tbar
Encoding: 358 358 130
Width: 561
GlyphClass: 2
Flags: W
LayerCount: 2
Fore
SplineSet
108 303 m 1,0,-1
 476 303 l 1,1,-1
 517 433 l 1,2,-1
 149 433 l 1,3,-1
 108 303 l 1,0,-1
68 549 m 1,4,-1
 256 549 l 1,5,-1
 162 0 l 1,6,-1
 328 0 l 1,7,-1
 423 549 l 1,8,-1
 609 549 l 1,9,-1
 635 700 l 1,10,-1
 95 700 l 1,11,-1
 68 549 l 1,4,-1
EndSplineSet
EndChar

StartChar: uni1E9E
Encoding: 7838 7838 131
Width: 814
GlyphClass: 2
Flags: W
LayerCount: 2
Fore
SplineSet
546 -12 m 0,0,1
 504 -12 504 -12 461 -6.5 c 128,-1,2
 418 -1 418 -1 378 10 c 128,-1,3
 338 21 338 21 305 34 c 1,4,-1
 343 171 l 1,5,6
 386 151 386 151 423.5 140 c 128,-1,7
 461 129 461 129 494 129 c 0,8,9
 521 129 521 129 543 135 c 128,-1,10
 565 141 565 141 577.5 155 c 128,-1,11
 590 169 590 169 590 191 c 0,12,13
 590 216 590 216 579.5 231.5 c 128,-1,14
 569 247 569 247 553 258 c 128,-1,15
 537 269 537 269 520.5 280.5 c 128,-1,16
 504 292 504 292 493 309 c 128,-1,17
 482 326 482 326 482 353 c 0,18,19
 482 375 482 375 493.5 392 c 128,-1,20
 505 409 505 409 522 422 c 128,-1,21
 539 435 539 435 555.5 446.5 c 128,-1,22
 572 458 572 458 583.5 471.5 c 128,-1,23
 595 485 595 485 595 502 c 0,24,25
 595 520 595 520 582.5 534 c 128,-1,26
 570 548 570 548 547 556 c 128,-1,27
 524 564 524 564 492 564 c 0,28,29
 435 564 435 564 392.5 537.5 c 128,-1,30
 350 511 350 511 323.5 463 c 128,-1,31
 297 415 297 415 285 350 c 2,32,-1
 224 -2 l 1,33,-1
 50 -2 l 1,34,-1
 112 366 l 2,35,36
 124 443 124 443 153 507 c 128,-1,37
 182 571 182 571 229.5 618 c 128,-1,38
 277 665 277 665 346 690.5 c 128,-1,39
 415 716 415 716 508 716 c 0,40,41
 595 716 595 716 655.5 694 c 128,-1,42
 716 672 716 672 747 634 c 128,-1,43
 778 596 778 596 778 549 c 0,44,45
 778 518 778 518 766.5 493.5 c 128,-1,46
 755 469 755 469 737.5 449.5 c 128,-1,47
 720 430 720 430 703 414 c 128,-1,48
 686 398 686 398 674.5 383.5 c 128,-1,49
 663 369 663 369 663 353 c 0,50,51
 663 336 663 336 673.5 323 c 128,-1,52
 684 310 684 310 700 298 c 128,-1,53
 716 286 716 286 732 269.5 c 128,-1,54
 748 253 748 253 758.5 227.5 c 128,-1,55
 769 202 769 202 769 161 c 0,56,57
 769 109 769 109 741 70 c 128,-1,58
 713 31 713 31 663 9.5 c 128,-1,59
 613 -12 613 -12 546 -12 c 0,0,1
EndSplineSet
EndChar

StartChar: uni0394
Encoding: 916 916 132
Width: 600
GlyphClass: 2
Flags: W
LayerCount: 2
Fore
SplineSet
-27 0 m 1,0,-1
 389 800 l 1,1,-1
 536 0 l 1,2,-1
 -27 0 l 1,0,-1
161 115 m 1,3,-1
 388 115 l 1,4,-1
 337 486 l 1,5,-1
 161 115 l 1,3,-1
EndSplineSet
EndChar

StartChar: uni03A9
Encoding: 937 937 133
Width: 600
GlyphClass: 2
Flags: W
LayerCount: 2
Fore
SplineSet
21 0 m 1,0,-1
 43 130 l 1,1,-1
 129 118 l 1,2,3
 108 148 108 148 95 180 c 128,-1,4
 82 212 82 212 77.5 246.5 c 128,-1,5
 73 281 73 281 78 317 c 0,6,7
 87 386 87 386 124.5 440.5 c 128,-1,8
 162 495 162 495 219.5 527 c 128,-1,9
 277 559 277 559 343 559 c 256,10,11
 409 559 409 559 457 527 c 128,-1,12
 505 495 505 495 527.5 440.5 c 128,-1,13
 550 386 550 386 538 317 c 0,14,15
 533 281 533 281 518 247 c 128,-1,16
 503 213 503 213 479.5 181 c 128,-1,17
 456 149 456 149 421 118 c 1,18,-1
 511 130 l 1,19,-1
 489 0 l 1,20,-1
 280 0 l 1,21,-1
 297 103 l 1,22,23
 318 119 318 119 336 138 c 128,-1,24
 354 157 354 157 367.5 179 c 128,-1,25
 381 201 381 201 391 224.5 c 128,-1,26
 401 248 401 248 405 272 c 0,27,28
 411 310 411 310 403 338 c 128,-1,29
 395 366 395 366 374.5 382 c 128,-1,30
 354 398 354 398 322 398 c 0,31,32
 291 398 291 398 264.5 382 c 128,-1,33
 238 366 238 366 220.5 338 c 128,-1,34
 203 310 203 310 196 272 c 0,35,36
 191 241 191 241 195.5 209.5 c 128,-1,37
 200 178 200 178 213.5 150.5 c 128,-1,38
 227 123 227 123 247 103 c 1,39,-1
 230 0 l 1,40,-1
 21 0 l 1,0,-1
EndSplineSet
EndChar

StartChar: uni0410
Encoding: 1040 1040 134
Width: 713
GlyphClass: 2
Flags: W
LayerCount: 2
Fore
SplineSet
173 136 m 1,0,-1
 537 135 l 1,1,-1
 548 264 l 1,2,-1
 206 264 l 1,3,-1
 173 136 l 1,0,-1
410 443 m 1,4,-1
 463 216 l 1,5,-1
 449 174 l 1,6,-1
 503 0 l 1,7,-1
 686 0 l 1,8,-1
 456 749 l 1,9,-1
 -33 0 l 1,10,-1
 162 0 l 1,11,-1
 276 179 l 1,12,-1
 275 217 l 1,13,-1
 410 443 l 1,4,-1
EndSplineSet
EndChar

StartChar: uni0411
Encoding: 1041 1041 135
Width: 653
GlyphClass: 2
Flags: W
LayerCount: 2
Fore
SplineSet
148 300 m 1,0,-1
 375 300 l 2,1,2
 404 299 404 299 423.5 290 c 128,-1,3
 443 281 443 281 452 264 c 128,-1,4
 461 247 461 247 456 220 c 256,5,6
 451 193 451 193 435 175 c 128,-1,7
 419 157 419 157 394.5 148 c 128,-1,8
 370 139 370 139 340 139 c 2,9,-1
 118 139 l 1,10,-1
 93 0 l 1,11,-1
 363 0 l 2,12,13
 429 1 429 1 485.5 29 c 128,-1,14
 542 57 542 57 580 106.5 c 128,-1,15
 618 156 618 156 626 219 c 0,16,17
 635 282 635 282 610 331 c 128,-1,18
 585 380 585 380 536 407.5 c 128,-1,19
 487 435 487 435 423 436 c 2,20,-1
 169 436 l 1,21,-1
 148 300 l 1,0,-1
168 700 m 1,22,-1
 49 0 l 1,23,-1
 219 0 l 1,24,-1
 316 561 l 1,25,-1
 633 561 l 1,26,-1
 657 700 l 1,27,-1
 168 700 l 1,22,-1
EndSplineSet
EndChar

StartChar: uni0412
Encoding: 1042 1042 136
Width: 645
GlyphClass: 2
Flags: W
LayerCount: 2
Fore
SplineSet
225 349 m 1,0,-1
 362 349 l 2,1,2
 427 350 427 350 484.5 368.5 c 128,-1,3
 542 387 542 387 580.5 425 c 128,-1,4
 619 463 619 463 627 522 c 0,5,6
 634 568 634 568 618 601.5 c 128,-1,7
 602 635 602 635 570.5 656.5 c 128,-1,8
 539 678 539 678 496.5 689 c 128,-1,9
 454 700 454 700 408 700 c 2,10,-1
 163 700 l 1,11,-1
 43 0 l 1,12,-1
 319 0 l 2,13,14
 394 1 394 1 456.5 21 c 128,-1,15
 519 41 519 41 560.5 84 c 128,-1,16
 602 127 602 127 611 197 c 0,17,18
 618 249 618 249 599.5 286.5 c 128,-1,19
 581 324 581 324 545.5 348.5 c 128,-1,20
 510 373 510 373 464.5 384.5 c 128,-1,21
 419 396 419 396 372 396 c 2,22,-1
 234 396 l 1,23,-1
 217 305 l 1,24,-1
 351 304 l 2,25,26
 380 303 380 303 402.5 294.5 c 128,-1,27
 425 286 425 286 436.5 268.5 c 128,-1,28
 448 251 448 251 443 221 c 0,29,30
 438 190 438 190 418 170 c 128,-1,31
 398 150 398 150 369.5 141 c 128,-1,32
 341 132 341 132 309 131 c 2,33,-1
 232 130 l 1,34,-1
 311 570 l 1,35,-1
 380 569 l 2,36,37
 417 568 417 568 437 550 c 128,-1,38
 457 532 457 532 451 498 c 0,39,40
 446 474 446 474 430.5 457.5 c 128,-1,41
 415 441 415 441 392.5 432 c 128,-1,42
 370 423 370 423 343 422 c 2,43,-1
 238 422 l 1,44,-1
 225 349 l 1,0,-1
EndSplineSet
EndChar

StartChar: uni0413
Encoding: 1043 1043 137
Width: 492
GlyphClass: 2
Flags: W
LayerCount: 2
Fore
SplineSet
168 700 m 1,0,-1
 49 0 l 1,1,-1
 216 0 l 1,2,-1
 311 549 l 1,3,-1
 550 549 l 1,4,-1
 577 700 l 1,5,-1
 168 700 l 1,0,-1
EndSplineSet
EndChar

StartChar: uni0403
Encoding: 1027 1027 138
Width: 492
GlyphClass: 2
Flags: W
LayerCount: 2
Fore
SplineSet
168 700 m 1,0,-1
 49 0 l 1,1,-1
 216 0 l 1,2,-1
 311 549 l 1,3,-1
 550 549 l 1,4,-1
 577 700 l 1,5,-1
 168 700 l 1,0,-1
581 922 m 1,6,-1
 471 978 l 1,7,-1
 303 823 l 1,8,-1
 385 777 l 1,9,-1
 581 922 l 1,6,-1
EndSplineSet
EndChar

StartChar: uni0414
Encoding: 1044 1044 139
Width: 856
GlyphClass: 2
Flags: W
LayerCount: 2
Fore
SplineSet
474 426 m 1,0,-1
 546 30 l 1,1,-1
 733 30 l 1,2,-1
 523 739 l 1,3,-1
 68 31 l 1,4,-1
 267 31 l 1,5,-1
 474 426 l 1,0,-1
621 0 m 1,6,-1
 601 -110 l 1,7,-1
 768 -110 l 1,8,-1
 813 145 l 1,9,-1
 35 145 l 1,10,-1
 -9 -110 l 1,11,-1
 158 -110 l 1,12,-1
 178 0 l 1,13,-1
 621 0 l 1,6,-1
EndSplineSet
EndChar

StartChar: uni0415
Encoding: 1045 1045 140
Width: 587
GlyphClass: 2
Flags: W
LayerCount: 2
Fore
SplineSet
153 0 m 1,0,-1
 500 0 l 1,1,-1
 524 139 l 1,2,-1
 176 139 l 1,3,-1
 153 0 l 1,0,-1
248 561 m 1,4,-1
 595 561 l 1,5,-1
 619 700 l 1,6,-1
 272 700 l 1,7,-1
 248 561 l 1,4,-1
204 300 m 1,8,-1
 532 300 l 1,9,-1
 555 436 l 1,10,-1
 228 436 l 1,11,-1
 204 300 l 1,8,-1
162 700 m 1,12,-1
 44 0 l 1,13,-1
 205 0 l 1,14,-1
 326 700 l 1,15,-1
 162 700 l 1,12,-1
EndSplineSet
EndChar

StartChar: uni0400
Encoding: 1024 1024 141
Width: 560
GlyphClass: 2
Flags: W
LayerCount: 2
Fore
SplineSet
152 0 m 1,0,-1
 499 0 l 1,1,-1
 523 139 l 1,2,-1
 176 139 l 1,3,-1
 152 0 l 1,0,-1
248 561 m 1,4,-1
 594 561 l 1,5,-1
 619 700 l 1,6,-1
 272 700 l 1,7,-1
 248 561 l 1,4,-1
203 300 m 1,8,-1
 530 300 l 1,9,-1
 554 436 l 1,10,-1
 226 436 l 1,11,-1
 203 300 l 1,8,-1
162 700 m 1,12,-1
 43 0 l 1,13,-1
 204 0 l 1,14,-1
 325 700 l 1,15,-1
 162 700 l 1,12,-1
257 930 m 1,16,-1
 411 776 l 1,17,-1
 496 815 l 1,18,-1
 373 979 l 1,19,-1
 257 930 l 1,16,-1
EndSplineSet
EndChar

StartChar: uni0401
Encoding: 1025 1025 142
Width: 560
GlyphClass: 2
Flags: W
LayerCount: 2
Fore
SplineSet
152 0 m 1,0,-1
 499 0 l 1,1,-1
 523 139 l 1,2,-1
 176 139 l 1,3,-1
 152 0 l 1,0,-1
248 561 m 1,4,-1
 594 561 l 1,5,-1
 619 700 l 1,6,-1
 272 700 l 1,7,-1
 248 561 l 1,4,-1
203 300 m 1,8,-1
 530 300 l 1,9,-1
 554 436 l 1,10,-1
 226 436 l 1,11,-1
 203 300 l 1,8,-1
162 700 m 1,12,-1
 43 0 l 1,13,-1
 204 0 l 1,14,-1
 325 700 l 1,15,-1
 162 700 l 1,12,-1
452 860 m 0,16,17
 449 825 449 825 472 801.5 c 128,-1,18
 495 778 495 778 530 777 c 256,19,20
 565 776 565 776 594 799.5 c 128,-1,21
 623 823 623 823 626 856 c 0,22,23
 630 892 630 892 607 915.5 c 128,-1,24
 584 939 584 939 549 939 c 0,25,26
 514 940 514 940 485 916.5 c 128,-1,27
 456 893 456 893 452 860 c 0,16,17
216 860 m 0,28,29
 213 825 213 825 236 801.5 c 128,-1,30
 259 778 259 778 294 777 c 256,31,32
 329 776 329 776 358 799.5 c 128,-1,33
 387 823 387 823 389 856 c 0,34,35
 393 892 393 892 370.5 915.5 c 128,-1,36
 348 939 348 939 312 939 c 0,37,38
 278 940 278 940 249 916.5 c 128,-1,39
 220 893 220 893 216 860 c 0,28,29
EndSplineSet
EndChar

StartChar: uni0416
Encoding: 1046 1046 143
Width: 1053
GlyphClass: 2
Flags: W
LayerCount: 2
Fore
SplineSet
295 700 m 1,0,-1
 109 700 l 1,1,-1
 333 378 l 1,2,-1
 -34 0 l 1,3,-1
 170 0 l 1,4,-1
 522 365 l 1,5,-1
 295 700 l 1,0,-1
533 700 m 1,6,-1
 415 0 l 1,7,-1
 588 0 l 1,8,-1
 709 700 l 1,9,-1
 533 700 l 1,6,-1
927 700 m 1,10,-1
 607 376 l 1,11,-1
 831 0 l 1,12,-1
 1024 0 l 1,13,-1
 793 367 l 1,14,-1
 1138 700 l 1,15,-1
 927 700 l 1,10,-1
EndSplineSet
EndChar

StartChar: uni0417
Encoding: 1047 1047 144
Width: 648
GlyphClass: 2
Flags: W
LayerCount: 2
Fore
SplineSet
326 339 m 1,0,1
 382 340 382 340 439 349.5 c 128,-1,2
 496 359 496 359 544 379 c 128,-1,3
 592 399 592 399 624.5 433.5 c 128,-1,4
 657 468 657 468 664 519 c 0,5,6
 673 579 673 579 643 622.5 c 128,-1,7
 613 666 613 666 556 690 c 128,-1,8
 499 714 499 714 426 713 c 0,9,10
 346 713 346 713 284.5 686 c 128,-1,11
 223 659 223 659 184 610 c 128,-1,12
 145 561 145 561 133 496 c 1,13,-1
 289 495 l 1,14,15
 301 532 301 532 334 555.5 c 128,-1,16
 367 579 367 579 416 578 c 0,17,18
 444 578 444 578 463.5 568.5 c 128,-1,19
 483 559 483 559 492.5 542.5 c 128,-1,20
 502 526 502 526 497 504 c 0,21,22
 492 474 492 474 468 455 c 128,-1,23
 444 436 444 436 409.5 426.5 c 128,-1,24
 375 417 375 417 335 415 c 1,25,-1
 326 339 l 1,0,1
321 -16 m 0,26,27
 402 -16 402 -16 467.5 8.5 c 128,-1,28
 533 33 533 33 575.5 79 c 128,-1,29
 618 125 618 125 627 191 c 0,30,31
 635 248 635 248 612.5 286.5 c 128,-1,32
 590 325 590 325 546.5 348 c 128,-1,33
 503 371 503 371 447 381.5 c 128,-1,34
 391 392 391 392 333 392 c 1,35,-1
 321 307 l 1,36,37
 354 306 354 306 382.5 300.5 c 128,-1,38
 411 295 411 295 431.5 283 c 128,-1,39
 452 271 452 271 461.5 252.5 c 128,-1,40
 471 234 471 234 465 208 c 0,41,42
 459 178 459 178 438.5 158.5 c 128,-1,43
 418 139 418 139 388 129.5 c 128,-1,44
 358 120 358 120 324 121 c 0,45,46
 271 121 271 121 243 147 c 128,-1,47
 215 173 215 173 216 222 c 1,48,-1
 54 222 l 1,49,50
 48 153 48 153 77.5 99.5 c 128,-1,51
 107 46 107 46 169 15.5 c 128,-1,52
 231 -15 231 -15 321 -16 c 0,26,27
EndSplineSet
EndChar

StartChar: uni0418
Encoding: 1048 1048 145
Width: 770
GlyphClass: 2
Flags: W
LayerCount: 2
Fore
SplineSet
757 521 m 1,0,-1
 804 744 l 1,1,-1
 79 180 l 1,2,-1
 33 -43 l 1,3,-1
 757 521 l 1,0,-1
325 700 m 1,4,-1
 162 700 l 1,5,-1
 33 -43 l 1,6,-1
 226 127 l 1,7,-1
 325 700 l 1,4,-1
804 744 m 1,8,-1
 609 568 l 1,9,-1
 511 0 l 1,10,-1
 673 0 l 1,11,-1
 804 744 l 1,8,-1
EndSplineSet
EndChar

StartChar: uni040D
Encoding: 1037 1037 146
Width: 770
GlyphClass: 2
Flags: W
LayerCount: 2
Fore
SplineSet
757 521 m 1,0,-1
 804 744 l 1,1,-1
 79 180 l 1,2,-1
 33 -43 l 1,3,-1
 757 521 l 1,0,-1
325 700 m 1,4,-1
 162 700 l 1,5,-1
 33 -43 l 1,6,-1
 226 127 l 1,7,-1
 325 700 l 1,4,-1
804 744 m 1,8,-1
 609 568 l 1,9,-1
 511 0 l 1,10,-1
 673 0 l 1,11,-1
 804 744 l 1,8,-1
359 911 m 1,12,-1
 513 757 l 1,13,-1
 597 796 l 1,14,-1
 475 961 l 1,15,-1
 359 911 l 1,12,-1
EndSplineSet
EndChar

StartChar: uni0419
Encoding: 1049 1049 147
Width: 770
GlyphClass: 2
Flags: W
LayerCount: 2
Fore
SplineSet
757 521 m 1,0,-1
 804 744 l 1,1,-1
 79 180 l 1,2,-1
 33 -43 l 1,3,-1
 757 521 l 1,0,-1
325 700 m 1,4,-1
 162 700 l 1,5,-1
 33 -43 l 1,6,-1
 226 127 l 1,7,-1
 325 700 l 1,4,-1
804 744 m 1,8,-1
 609 568 l 1,9,-1
 511 0 l 1,10,-1
 673 0 l 1,11,-1
 804 744 l 1,8,-1
363 922 m 1,12,13
 361 880 361 880 376 847 c 128,-1,14
 391 814 391 814 423.5 795 c 128,-1,15
 456 776 456 776 506 776 c 0,16,17
 555 776 555 776 591.5 795.5 c 128,-1,18
 628 815 628 815 651.5 847.5 c 128,-1,19
 675 880 675 880 684 921 c 1,20,-1
 584 921 l 1,21,22
 580 906 580 906 570 892 c 128,-1,23
 560 878 560 878 544.5 870 c 128,-1,24
 529 862 529 862 511 862 c 0,25,26
 492 863 492 863 480.5 871 c 128,-1,27
 469 879 469 879 464 892.5 c 128,-1,28
 459 906 459 906 458 922 c 1,29,-1
 363 922 l 1,12,13
EndSplineSet
EndChar

StartChar: uni041A
Encoding: 1050 1050 148
Width: 680
GlyphClass: 2
Flags: W
LayerCount: 2
Fore
SplineSet
162 700 m 1,0,-1
 43 0 l 1,1,-1
 216 0 l 1,2,-1
 337 700 l 1,3,-1
 162 700 l 1,0,-1
559 700 m 1,4,-1
 230 373 l 1,5,-1
 457 0 l 1,6,-1
 650 0 l 1,7,-1
 425 367 l 1,8,-1
 765 700 l 1,9,-1
 559 700 l 1,4,-1
EndSplineSet
EndChar

StartChar: uni040C
Encoding: 1036 1036 149
Width: 615
GlyphClass: 2
Flags: W
LayerCount: 2
Fore
SplineSet
162 700 m 1,0,-1
 43 0 l 1,1,-1
 216 0 l 1,2,-1
 337 700 l 1,3,-1
 162 700 l 1,0,-1
559 700 m 1,4,-1
 230 373 l 1,5,-1
 457 0 l 1,6,-1
 650 0 l 1,7,-1
 425 367 l 1,8,-1
 765 700 l 1,9,-1
 559 700 l 1,4,-1
645 916 m 1,10,-1
 535 972 l 1,11,-1
 366 817 l 1,12,-1
 449 771 l 1,13,-1
 645 916 l 1,10,-1
EndSplineSet
EndChar

StartChar: uni041B
Encoding: 1051 1051 150
Width: 747
GlyphClass: 2
Flags: W
LayerCount: 2
Fore
SplineSet
764 700 m 1,0,-1
 202 700 l 1,1,-1
 131 287 l 2,2,3
 124 247 124 247 107.5 216.5 c 128,-1,4
 91 186 91 186 65 166.5 c 128,-1,5
 39 147 39 147 3 143 c 1,6,-1
 -16 1 l 1,7,8
 80 4 80 4 145.5 38.5 c 128,-1,9
 211 73 211 73 250 138 c 128,-1,10
 289 203 289 203 304 296 c 2,11,-1
 346 549 l 1,12,-1
 567 549 l 1,13,-1
 473 0 l 1,14,-1
 644 0 l 1,15,-1
 764 700 l 1,0,-1
EndSplineSet
EndChar

StartChar: uni041C
Encoding: 1052 1052 151
Width: 865
GlyphClass: 2
Flags: W
LayerCount: 2
Fore
SplineSet
284 356 m 1,0,-1
 419 63 l 1,1,-1
 649 347 l 1,2,-1
 630 0 l 1,3,-1
 806 0 l 1,4,-1
 824 743 l 1,5,-1
 454 311 l 1,6,-1
 238 736 l 1,7,-1
 2 0 l 1,8,-1
 182 0 l 1,9,-1
 284 356 l 1,0,-1
EndSplineSet
EndChar

StartChar: uni041D
Encoding: 1053 1053 152
Width: 764
GlyphClass: 2
Flags: W
LayerCount: 2
Fore
SplineSet
139 294 m 1,0,-1
 657 294 l 1,1,-1
 683 445 l 1,2,-1
 165 445 l 1,3,-1
 139 294 l 1,0,-1
618 700 m 1,4,-1
 499 0 l 1,5,-1
 666 0 l 1,6,-1
 787 700 l 1,7,-1
 618 700 l 1,4,-1
162 700 m 1,8,-1
 43 0 l 1,9,-1
 210 0 l 1,10,-1
 331 700 l 1,11,-1
 162 700 l 1,8,-1
EndSplineSet
EndChar

StartChar: uni041E
Encoding: 1054 1054 153
Width: 797
GlyphClass: 2
Flags: W
LayerCount: 2
Fore
SplineSet
241 350 m 0,0,1
 249 393 249 393 269 431.5 c 128,-1,2
 289 470 289 470 320.5 499 c 128,-1,3
 352 528 352 528 390.5 544.5 c 128,-1,4
 429 561 429 561 474 561 c 0,5,6
 519 560 519 560 550.5 542.5 c 128,-1,7
 582 525 582 525 600 495.5 c 128,-1,8
 618 466 618 466 623.5 428.5 c 128,-1,9
 629 391 629 391 622 350 c 0,10,11
 614 307 614 307 593.5 268.5 c 128,-1,12
 573 230 573 230 542 201 c 128,-1,13
 511 172 511 172 472.5 155.5 c 128,-1,14
 434 139 434 139 389 140 c 0,15,16
 344 140 344 140 313 157.5 c 128,-1,17
 282 175 282 175 264 205 c 128,-1,18
 246 235 246 235 240.5 272.5 c 128,-1,19
 235 310 235 310 241 350 c 0,0,1
63 350 m 0,20,21
 53 275 53 275 70 207.5 c 128,-1,22
 87 140 87 140 128.5 88.5 c 128,-1,23
 170 37 170 37 232.5 7.5 c 128,-1,24
 295 -22 295 -22 375 -22 c 0,25,26
 457 -22 457 -22 529 6.5 c 128,-1,27
 601 35 601 35 657.5 86 c 128,-1,28
 714 137 714 137 751 204.5 c 128,-1,29
 788 272 788 272 799 350 c 0,30,31
 809 426 809 426 791.5 492 c 128,-1,32
 774 558 774 558 732 608.5 c 128,-1,33
 690 659 690 659 627.5 687.5 c 128,-1,34
 565 716 565 716 486 716 c 0,35,36
 406 716 406 716 334.5 688.5 c 128,-1,37
 263 661 263 661 206.5 611 c 128,-1,38
 150 561 150 561 112.5 494.5 c 128,-1,39
 75 428 75 428 63 350 c 0,20,21
EndSplineSet
EndChar

StartChar: uni041F
Encoding: 1055 1055 154
Width: 748
GlyphClass: 2
Flags: W
LayerCount: 2
Fore
SplineSet
569 549 m 1,0,-1
 475 0 l 1,1,-1
 645 0 l 1,2,-1
 765 700 l 1,3,-1
 168 700 l 1,4,-1
 48 0 l 1,5,-1
 220 0 l 1,6,-1
 314 549 l 1,7,-1
 569 549 l 1,0,-1
EndSplineSet
EndChar

StartChar: uni0420
Encoding: 1056 1056 155
Width: 607
GlyphClass: 2
Flags: W
LayerCount: 2
Fore
SplineSet
162 700 m 1,0,-1
 44 0 l 1,1,-1
 211 0 l 1,2,-1
 332 700 l 1,3,-1
 162 700 l 1,0,-1
243 562 m 1,4,-1
 382 561 l 2,5,6
 412 561 412 561 433 550 c 128,-1,7
 454 539 454 539 463 519.5 c 128,-1,8
 472 500 472 500 467 472 c 0,9,10
 461 443 461 443 443 423 c 128,-1,11
 425 403 425 403 398.5 392.5 c 128,-1,12
 372 382 372 382 340 382 c 2,13,-1
 212 382 l 1,14,-1
 187 243 l 1,15,-1
 330 243 l 2,16,17
 411 244 411 244 474.5 271 c 128,-1,18
 538 298 538 298 578 349 c 128,-1,19
 618 400 618 400 628 471 c 0,20,21
 639 543 639 543 612 593.5 c 128,-1,22
 585 644 585 644 528.5 671.5 c 128,-1,23
 472 699 472 699 393 700 c 2,24,-1
 266 700 l 1,25,-1
 243 562 l 1,4,-1
EndSplineSet
EndChar

StartChar: uni0421
Encoding: 1057 1057 156
Width: 680
GlyphClass: 2
Flags: W
LayerCount: 2
Fore
SplineSet
246 350 m 0,0,1
 255 395 255 395 277.5 432.5 c 128,-1,2
 300 470 300 470 333 497.5 c 128,-1,3
 366 525 366 525 406.5 540 c 128,-1,4
 447 555 447 555 490 555 c 0,5,6
 554 555 554 555 599 529.5 c 128,-1,7
 644 504 644 504 675 463 c 1,8,-1
 700 645 l 1,9,10
 657 679 657 679 608.5 698 c 128,-1,11
 560 717 560 717 493 716 c 0,12,13
 410 716 410 716 337.5 689 c 128,-1,14
 265 662 265 662 207.5 612.5 c 128,-1,15
 150 563 150 563 112.5 496 c 128,-1,16
 75 429 75 429 63 350 c 0,17,18
 53 273 53 273 71 207 c 128,-1,19
 89 141 89 141 131.5 90.5 c 128,-1,20
 174 40 174 40 238.5 12 c 128,-1,21
 303 -16 303 -16 383 -16 c 0,22,23
 452 -16 452 -16 504.5 3.5 c 128,-1,24
 557 23 557 23 604 55 c 1,25,-1
 629 237 l 1,26,27
 586 201 586 201 530.5 173 c 128,-1,28
 475 145 475 145 406 146 c 0,29,30
 363 146 363 146 330 162.5 c 128,-1,31
 297 179 297 179 276 206.5 c 128,-1,32
 255 234 255 234 247 271 c 128,-1,33
 239 308 239 308 246 350 c 0,0,1
EndSplineSet
EndChar

StartChar: uni0422
Encoding: 1058 1058 157
Width: 546
GlyphClass: 2
Flags: W
LayerCount: 2
Fore
SplineSet
68 549 m 1,0,-1
 256 549 l 1,1,-1
 162 0 l 1,2,-1
 330 0 l 1,3,-1
 424 549 l 1,4,-1
 610 549 l 1,5,-1
 637 700 l 1,6,-1
 95 700 l 1,7,-1
 68 549 l 1,0,-1
EndSplineSet
EndChar

StartChar: uni0423
Encoding: 1059 1059 158
Width: 600
GlyphClass: 2
Flags: W
LayerCount: 2
Fore
SplineSet
707 700 m 1,0,-1
 526 700 l 1,1,-1
 275 285 l 1,2,-1
 349 283 l 1,3,-1
 266 700 l 1,4,-1
 84 700 l 1,5,-1
 224 220 l 1,6,-1
 89 0 l 1,7,-1
 267 0 l 1,8,-1
 707 700 l 1,0,-1
EndSplineSet
EndChar

StartChar: uni040E
Encoding: 1038 1038 159
Width: 587
GlyphClass: 2
Flags: W
LayerCount: 2
Fore
SplineSet
695 700 m 1,0,-1
 520 700 l 1,1,-1
 269 285 l 1,2,-1
 342 283 l 1,3,-1
 259 700 l 1,4,-1
 84 700 l 1,5,-1
 217 220 l 1,6,-1
 84 0 l 1,7,-1
 255 0 l 1,8,-1
 695 700 l 1,0,-1
261 923 m 1,9,10
 259 882 259 882 274.5 848.5 c 128,-1,11
 290 815 290 815 323 795.5 c 128,-1,12
 356 776 356 776 404 776 c 0,13,14
 454 777 454 777 491 796 c 128,-1,15
 528 815 528 815 551 848 c 128,-1,16
 574 881 574 881 582 921 c 1,17,-1
 481 922 l 1,18,19
 477 907 477 907 466.5 893.5 c 128,-1,20
 456 880 456 880 441 871.5 c 128,-1,21
 426 863 426 863 406 864 c 0,22,23
 389 865 389 865 377.5 873 c 128,-1,24
 366 881 366 881 361 894 c 128,-1,25
 356 907 356 907 356 922 c 1,26,-1
 261 923 l 1,9,10
EndSplineSet
EndChar

StartChar: uni0424
Encoding: 1060 1060 160
Width: 905
GlyphClass: 2
Flags: W
LayerCount: 2
Fore
SplineSet
459 700 m 1,0,-1
 340 0 l 1,1,-1
 511 0 l 1,2,-1
 631 700 l 1,3,-1
 459 700 l 1,0,-1
731 351 m 0,4,5
 722 305 722 305 692 278 c 128,-1,6
 662 251 662 251 618.5 239.5 c 128,-1,7
 575 228 575 228 524 227 c 2,8,-1
 391 228 l 2,9,10
 344 229 344 229 306 240 c 128,-1,11
 268 251 268 251 249 278 c 128,-1,12
 230 305 230 305 240 350 c 0,13,14
 249 396 249 396 278.5 423 c 128,-1,15
 308 450 308 450 352 461 c 128,-1,16
 396 472 396 472 447 473 c 2,17,-1
 580 473 l 2,18,19
 627 472 627 472 664.5 460.5 c 128,-1,20
 702 449 702 449 721 422.5 c 128,-1,21
 740 396 740 396 731 351 c 0,4,5
900 350 m 256,22,23
 909 413 909 413 890.5 462.5 c 128,-1,24
 872 512 872 512 832.5 547 c 128,-1,25
 793 582 793 582 738 601 c 128,-1,26
 683 620 683 620 620 620 c 2,27,-1
 427 620 l 2,28,29
 339 620 339 620 262.5 587.5 c 128,-1,30
 186 555 186 555 134 495 c 128,-1,31
 82 435 82 435 69 351 c 0,32,33
 60 288 60 288 79 238 c 128,-1,34
 98 188 98 188 137.5 153 c 128,-1,35
 177 118 177 118 231.5 99 c 128,-1,36
 286 80 286 80 350 80 c 2,37,-1
 544 80 l 2,38,39
 610 80 610 80 670 99 c 128,-1,40
 730 118 730 118 779 152.5 c 128,-1,41
 828 187 828 187 859.5 237 c 128,-1,42
 891 287 891 287 900 350 c 256,22,23
EndSplineSet
EndChar

StartChar: uni0425
Encoding: 1061 1061 161
Width: 695
GlyphClass: 2
Flags: W
LayerCount: 2
Fore
SplineSet
541 700 m 1,0,-1
 399 502 l 1,1,-1
 330 700 l 1,2,-1
 130 700 l 1,3,-1
 280 365 l 1,4,-1
 -21 0 l 1,5,-1
 192 0 l 1,6,-1
 358 229 l 1,7,-1
 441 0 l 1,8,-1
 641 0 l 1,9,-1
 476 353 l 1,10,-1
 754 700 l 1,11,-1
 541 700 l 1,0,-1
EndSplineSet
EndChar

StartChar: uni0426
Encoding: 1062 1062 162
Width: 834
GlyphClass: 2
Flags: W
LayerCount: 2
Fore
SplineSet
238 151 m 1,0,-1
 333 700 l 1,1,-1
 163 700 l 1,2,-1
 42 0 l 1,3,-1
 615 0 l 1,4,-1
 591 -134 l 1,5,-1
 753 -134 l 1,6,-1
 803 151 l 1,7,-1
 696 151 l 1,8,-1
 790 700 l 1,9,-1
 618 700 l 1,10,-1
 524 151 l 1,11,-1
 238 151 l 1,0,-1
EndSplineSet
EndChar

StartChar: uni0427
Encoding: 1063 1063 163
Width: 696
GlyphClass: 2
Flags: W
LayerCount: 2
Fore
SplineSet
315 222 m 1,0,-1
 523 221 l 1,1,-1
 550 371 l 1,2,-1
 385 370 l 1,3,-1
 315 222 l 1,0,-1
539 700 m 1,4,-1
 420 0 l 1,5,-1
 594 0 l 1,6,-1
 714 700 l 1,7,-1
 539 700 l 1,4,-1
332 700 m 1,8,-1
 162 700 l 1,9,-1
 123 468 l 2,10,11
 114 403 114 403 133.5 346.5 c 128,-1,12
 153 290 153 290 198.5 256 c 128,-1,13
 244 222 244 222 315 222 c 1,14,-1
 385 370 l 1,15,16
 351 370 351 370 328.5 385 c 128,-1,17
 306 400 306 400 297 426.5 c 128,-1,18
 288 453 288 453 293 490 c 2,19,-1
 332 700 l 1,8,-1
EndSplineSet
EndChar

StartChar: uni0428
Encoding: 1064 1064 164
Width: 1049
GlyphClass: 2
Flags: W
LayerCount: 2
Fore
SplineSet
804 151 m 1,0,-1
 605 151 l 1,1,-1
 699 700 l 1,2,-1
 536 700 l 1,3,-1
 442 151 l 1,4,-1
 242 151 l 1,5,-1
 337 700 l 1,6,-1
 168 700 l 1,7,-1
 48 0 l 1,8,-1
 947 0 l 1,9,-1
 1067 700 l 1,10,-1
 898 700 l 1,11,-1
 804 151 l 1,0,-1
EndSplineSet
EndChar

StartChar: uni0429
Encoding: 1065 1065 165
Width: 1117
GlyphClass: 2
Flags: W
LayerCount: 2
Fore
SplineSet
804 151 m 1,0,-1
 605 151 l 1,1,-1
 699 700 l 1,2,-1
 536 700 l 1,3,-1
 442 151 l 1,4,-1
 242 151 l 1,5,-1
 337 700 l 1,6,-1
 168 700 l 1,7,-1
 48 0 l 1,8,-1
 892 0 l 1,9,-1
 869 -134 l 1,10,-1
 1030 -134 l 1,11,-1
 1079 151 l 1,12,-1
 973 151 l 1,13,-1
 1067 700 l 1,14,-1
 898 700 l 1,15,-1
 804 151 l 1,0,-1
EndSplineSet
EndChar

StartChar: uni042A
Encoding: 1066 1066 166
Width: 714
GlyphClass: 2
Flags: W
LayerCount: 2
Fore
SplineSet
311 319 m 1,0,-1
 450 318 l 2,1,2
 480 318 480 318 501 307 c 128,-1,3
 522 296 522 296 531 276.5 c 128,-1,4
 540 257 540 257 535 229 c 0,5,6
 529 201 529 201 511 181 c 128,-1,7
 493 161 493 161 466 150 c 128,-1,8
 439 139 439 139 407 139 c 2,9,-1
 279 139 l 1,10,-1
 254 0 l 1,11,-1
 398 0 l 2,12,13
 478 1 478 1 541.5 28 c 128,-1,14
 605 55 605 55 645 106 c 128,-1,15
 685 157 685 157 695 229 c 0,16,17
 706 300 706 300 679 351 c 128,-1,18
 652 402 652 402 595.5 429.5 c 128,-1,19
 539 457 539 457 461 457 c 2,20,-1
 334 457 l 1,21,-1
 311 319 l 1,0,-1
250 550 m 1,22,-1
 156 0 l 1,23,-1
 323 0 l 1,24,-1
 444 700 l 1,25,-1
 100 700 l 1,26,-1
 74 549 l 1,27,-1
 250 550 l 1,22,-1
EndSplineSet
EndChar

StartChar: uni042B
Encoding: 1067 1067 167
Width: 881
GlyphClass: 2
Flags: W
LayerCount: 2
Fore
SplineSet
732 700 m 1,0,-1
 614 0 l 1,1,-1
 784 0 l 1,2,-1
 905 700 l 1,3,-1
 732 700 l 1,0,-1
162 700 m 1,4,-1
 43 0 l 1,5,-1
 210 0 l 1,6,-1
 331 700 l 1,7,-1
 162 700 l 1,4,-1
201 319 m 1,8,-1
 340 318 l 2,9,10
 370 318 370 318 391 307 c 128,-1,11
 412 296 412 296 421 276.5 c 128,-1,12
 430 257 430 257 425 229 c 0,13,14
 419 201 419 201 401 181 c 128,-1,15
 383 161 383 161 356.5 150 c 128,-1,16
 330 139 330 139 297 139 c 2,17,-1
 170 139 l 1,18,-1
 144 0 l 1,19,-1
 288 0 l 2,20,21
 369 1 369 1 432.5 28 c 128,-1,22
 496 55 496 55 535.5 106 c 128,-1,23
 575 157 575 157 586 229 c 0,24,25
 596 300 596 300 569.5 351 c 128,-1,26
 543 402 543 402 486.5 429.5 c 128,-1,27
 430 457 430 457 351 457 c 2,28,-1
 224 457 l 1,29,-1
 201 319 l 1,8,-1
EndSplineSet
EndChar

StartChar: uni042C
Encoding: 1068 1068 168
Width: 604
GlyphClass: 2
Flags: W
LayerCount: 2
Fore
SplineSet
162 700 m 1,0,-1
 43 0 l 1,1,-1
 210 0 l 1,2,-1
 331 700 l 1,3,-1
 162 700 l 1,0,-1
201 319 m 1,4,-1
 340 318 l 2,5,6
 370 318 370 318 391 307 c 128,-1,7
 412 296 412 296 421 276.5 c 128,-1,8
 430 257 430 257 425 229 c 0,9,10
 419 201 419 201 401 181 c 128,-1,11
 383 161 383 161 356.5 150 c 128,-1,12
 330 139 330 139 297 139 c 2,13,-1
 170 139 l 1,14,-1
 144 0 l 1,15,-1
 288 0 l 2,16,17
 369 1 369 1 432.5 28 c 128,-1,18
 496 55 496 55 535.5 106 c 128,-1,19
 575 157 575 157 586 229 c 0,20,21
 596 300 596 300 569.5 351 c 128,-1,22
 543 402 543 402 486.5 429.5 c 128,-1,23
 430 457 430 457 351 457 c 2,24,-1
 224 457 l 1,25,-1
 201 319 l 1,4,-1
EndSplineSet
EndChar

StartChar: uni042D
Encoding: 1069 1069 169
Width: 680
GlyphClass: 2
Flags: W
LayerCount: 2
Fore
SplineSet
153 282 m 1,0,-1
 519 282 l 1,1,-1
 542 418 l 1,2,-1
 176 418 l 1,3,-1
 153 282 l 1,0,-1
517 350 m 0,4,5
 509 305 509 305 483.5 266.5 c 128,-1,6
 458 228 458 228 421.5 199.5 c 128,-1,7
 385 171 385 171 342 155 c 128,-1,8
 299 139 299 139 254 139 c 0,9,10
 191 139 191 139 145 162.5 c 128,-1,11
 99 186 99 186 68 219 c 1,12,-1
 45 56 l 1,13,14
 88 22 88 22 137 3 c 128,-1,15
 186 -16 186 -16 252 -16 c 0,16,17
 335 -16 335 -16 408 11.5 c 128,-1,18
 481 39 481 39 538.5 88 c 128,-1,19
 596 137 596 137 633 204 c 128,-1,20
 670 271 670 271 682 350 c 0,21,22
 692 427 692 427 674 493.5 c 128,-1,23
 656 560 656 560 613 610 c 128,-1,24
 570 660 570 660 506.5 688 c 128,-1,25
 443 716 443 716 362 716 c 0,26,27
 294 717 294 717 241 697.5 c 128,-1,28
 188 678 188 678 141 646 c 1,29,-1
 119 482 l 1,30,31
 161 511 161 511 216.5 536.5 c 128,-1,32
 272 562 272 562 341 561 c 0,33,34
 383 561 383 561 419 544 c 128,-1,35
 455 527 455 527 479.5 498 c 128,-1,36
 504 469 504 469 514.5 431.5 c 128,-1,37
 525 394 525 394 517 350 c 0,4,5
EndSplineSet
EndChar

StartChar: uni042E
Encoding: 1070 1070 170
Width: 1108
GlyphClass: 2
Flags: W
LayerCount: 2
Fore
SplineSet
139 294 m 1,0,-1
 471 294 l 1,1,-1
 497 445 l 1,2,-1
 165 445 l 1,3,-1
 139 294 l 1,0,-1
162 700 m 1,4,-1
 43 0 l 1,5,-1
 210 0 l 1,6,-1
 331 700 l 1,7,-1
 162 700 l 1,4,-1
552 350 m 0,8,9
 560 393 560 393 580.5 431.5 c 128,-1,10
 601 470 601 470 632 499 c 128,-1,11
 663 528 663 528 702 544.5 c 128,-1,12
 741 561 741 561 786 561 c 0,13,14
 831 560 831 560 862 542.5 c 128,-1,15
 893 525 893 525 911 495.5 c 128,-1,16
 929 466 929 466 934.5 428.5 c 128,-1,17
 940 391 940 391 933 350 c 0,18,19
 925 307 925 307 904.5 268.5 c 128,-1,20
 884 230 884 230 853 201 c 128,-1,21
 822 172 822 172 783.5 155.5 c 128,-1,22
 745 139 745 139 700 140 c 0,23,24
 655 140 655 140 624 157.5 c 128,-1,25
 593 175 593 175 575 205 c 128,-1,26
 557 235 557 235 551.5 272.5 c 128,-1,27
 546 310 546 310 552 350 c 0,8,9
374 350 m 0,28,29
 364 275 364 275 381.5 207.5 c 128,-1,30
 399 140 399 140 440 88.5 c 128,-1,31
 481 37 481 37 543.5 7.5 c 128,-1,32
 606 -22 606 -22 686 -22 c 0,33,34
 768 -22 768 -22 840 6.5 c 128,-1,35
 912 35 912 35 968.5 86 c 128,-1,36
 1025 137 1025 137 1062 204.5 c 128,-1,37
 1099 272 1099 272 1111 350 c 0,38,39
 1121 426 1121 426 1103 492 c 128,-1,40
 1085 558 1085 558 1043.5 608.5 c 128,-1,41
 1002 659 1002 659 939 687.5 c 128,-1,42
 876 716 876 716 797 716 c 0,43,44
 717 716 717 716 645.5 688.5 c 128,-1,45
 574 661 574 661 517.5 611 c 128,-1,46
 461 561 461 561 423.5 494.5 c 128,-1,47
 386 428 386 428 374 350 c 0,28,29
EndSplineSet
EndChar

StartChar: uni042F
Encoding: 1071 1071 171
Width: 628
GlyphClass: 2
Flags: W
LayerCount: 2
Fore
SplineSet
420 317 m 1,0,-1
 238 317 l 1,1,-1
 -29 0 l 1,2,-1
 174 0 l 1,3,-1
 420 317 l 1,0,-1
651 700 m 1,4,-1
 483 700 l 1,5,-1
 363 0 l 1,6,-1
 531 0 l 1,7,-1
 651 700 l 1,4,-1
523 557 m 1,8,-1
 549 700 l 1,9,-1
 394 700 l 2,10,11
 314 699 314 699 250.5 671.5 c 128,-1,12
 187 644 187 644 147 593.5 c 128,-1,13
 107 543 107 543 96 472 c 0,14,15
 86 404 86 404 113 352.5 c 128,-1,16
 140 301 140 301 196.5 272.5 c 128,-1,17
 253 244 253 244 331 243 c 2,18,-1
 470 243 l 1,19,-1
 493 374 l 1,20,-1
 351 375 l 2,21,22
 321 375 321 375 300.5 386 c 128,-1,23
 280 397 280 397 271.5 417.5 c 128,-1,24
 263 438 263 438 268 465 c 0,25,26
 274 494 274 494 292 514.5 c 128,-1,27
 310 535 310 535 337 546 c 128,-1,28
 364 557 364 557 396 557 c 2,29,-1
 523 557 l 1,8,-1
EndSplineSet
EndChar

StartChar: a
Encoding: 97 97 172
Width: 598
GlyphClass: 2
Flags: W
LayerCount: 2
Fore
SplineSet
447 460 m 1,0,-1
 369 0 l 1,1,-1
 517 0 l 1,2,-1
 596 460 l 1,3,-1
 447 460 l 1,0,-1
42 231 m 0,4,5
 34 165 34 165 53.5 110.5 c 128,-1,6
 73 56 73 56 115.5 23.5 c 128,-1,7
 158 -9 158 -9 219 -9 c 0,8,9
 265 -9 265 -9 304.5 9.5 c 128,-1,10
 344 28 344 28 374 61 c 128,-1,11
 404 94 404 94 423.5 137.5 c 128,-1,12
 443 181 443 181 449 230 c 0,13,14
 455 277 455 277 448.5 320 c 128,-1,15
 442 363 442 363 422.5 397 c 128,-1,16
 403 431 403 431 370.5 450.5 c 128,-1,17
 338 470 338 470 292 470 c 0,18,19
 230 470 230 470 176.5 439 c 128,-1,20
 123 408 123 408 87 353.5 c 128,-1,21
 51 299 51 299 42 231 c 0,4,5
198 230 m 0,22,23
 203 262 203 262 222 289.5 c 128,-1,24
 241 317 241 317 269.5 333 c 128,-1,25
 298 349 298 349 329 348 c 0,26,27
 350 347 350 347 365.5 337.5 c 128,-1,28
 381 328 381 328 391.5 311.5 c 128,-1,29
 402 295 402 295 406 274.5 c 128,-1,30
 410 254 410 254 407 231 c 0,31,32
 403 207 403 207 391 185 c 128,-1,33
 379 163 379 163 361.5 146.5 c 128,-1,34
 344 130 344 130 323 121 c 128,-1,35
 302 112 302 112 280 113 c 0,36,37
 250 113 250 113 229.5 129.5 c 128,-1,38
 209 146 209 146 201.5 173 c 128,-1,39
 194 200 194 200 198 230 c 0,22,23
EndSplineSet
Substitution2: "'ss01' Style Set 1 in Latin lookup 0 subtable" a.alt
EndChar

StartChar: agrave
Encoding: 224 224 173
Width: 598
GlyphClass: 2
Flags: W
LayerCount: 2
Fore
SplineSet
447 460 m 1,0,-1
 369 0 l 1,1,-1
 517 0 l 1,2,-1
 596 460 l 1,3,-1
 447 460 l 1,0,-1
42 231 m 0,4,5
 34 165 34 165 53.5 110.5 c 128,-1,6
 73 56 73 56 115.5 23.5 c 128,-1,7
 158 -9 158 -9 219 -9 c 0,8,9
 265 -9 265 -9 304.5 9.5 c 128,-1,10
 344 28 344 28 374 61 c 128,-1,11
 404 94 404 94 423.5 137.5 c 128,-1,12
 443 181 443 181 449 230 c 0,13,14
 455 277 455 277 448.5 320 c 128,-1,15
 442 363 442 363 422.5 397 c 128,-1,16
 403 431 403 431 370.5 450.5 c 128,-1,17
 338 470 338 470 292 470 c 0,18,19
 230 470 230 470 176.5 439 c 128,-1,20
 123 408 123 408 87 353.5 c 128,-1,21
 51 299 51 299 42 231 c 0,4,5
198 230 m 0,22,23
 203 262 203 262 222 289.5 c 128,-1,24
 241 317 241 317 269.5 333 c 128,-1,25
 298 349 298 349 329 348 c 0,26,27
 350 347 350 347 365.5 337.5 c 128,-1,28
 381 328 381 328 391.5 311.5 c 128,-1,29
 402 295 402 295 406 274.5 c 128,-1,30
 410 254 410 254 407 231 c 0,31,32
 403 207 403 207 391 185 c 128,-1,33
 379 163 379 163 361.5 146.5 c 128,-1,34
 344 130 344 130 323 121 c 128,-1,35
 302 112 302 112 280 113 c 0,36,37
 250 113 250 113 229.5 129.5 c 128,-1,38
 209 146 209 146 201.5 173 c 128,-1,39
 194 200 194 200 198 230 c 0,22,23
217 683 m 1,40,-1
 370 531 l 1,41,-1
 455 571 l 1,42,-1
 335 734 l 1,43,-1
 217 683 l 1,40,-1
EndSplineSet
Substitution2: "'ss01' Style Set 1 in Latin lookup 0 subtable" agrave.alt
EndChar

StartChar: aacute
Encoding: 225 225 174
Width: 598
GlyphClass: 2
Flags: W
LayerCount: 2
Fore
SplineSet
447 460 m 1,0,-1
 369 0 l 1,1,-1
 517 0 l 1,2,-1
 596 460 l 1,3,-1
 447 460 l 1,0,-1
42 231 m 0,4,5
 34 165 34 165 53.5 110.5 c 128,-1,6
 73 56 73 56 115.5 23.5 c 128,-1,7
 158 -9 158 -9 219 -9 c 0,8,9
 265 -9 265 -9 304.5 9.5 c 128,-1,10
 344 28 344 28 374 61 c 128,-1,11
 404 94 404 94 423.5 137.5 c 128,-1,12
 443 181 443 181 449 230 c 0,13,14
 455 277 455 277 448.5 320 c 128,-1,15
 442 363 442 363 422.5 397 c 128,-1,16
 403 431 403 431 370.5 450.5 c 128,-1,17
 338 470 338 470 292 470 c 0,18,19
 230 470 230 470 176.5 439 c 128,-1,20
 123 408 123 408 87 353.5 c 128,-1,21
 51 299 51 299 42 231 c 0,4,5
198 230 m 0,22,23
 203 262 203 262 222 289.5 c 128,-1,24
 241 317 241 317 269.5 333 c 128,-1,25
 298 349 298 349 329 348 c 0,26,27
 350 347 350 347 365.5 337.5 c 128,-1,28
 381 328 381 328 391.5 311.5 c 128,-1,29
 402 295 402 295 406 274.5 c 128,-1,30
 410 254 410 254 407 231 c 0,31,32
 403 207 403 207 391 185 c 128,-1,33
 379 163 379 163 361.5 146.5 c 128,-1,34
 344 130 344 130 323 121 c 128,-1,35
 302 112 302 112 280 113 c 0,36,37
 250 113 250 113 229.5 129.5 c 128,-1,38
 209 146 209 146 201.5 173 c 128,-1,39
 194 200 194 200 198 230 c 0,22,23
526 678 m 1,40,-1
 419 732 l 1,41,-1
 248 576 l 1,42,-1
 329 532 l 1,43,-1
 526 678 l 1,40,-1
EndSplineSet
Substitution2: "'ss01' Style Set 1 in Latin lookup 0 subtable" aacute.alt
EndChar

StartChar: acircumflex
Encoding: 226 226 175
Width: 598
GlyphClass: 2
Flags: W
LayerCount: 2
Fore
SplineSet
447 460 m 1,0,-1
 369 0 l 1,1,-1
 517 0 l 1,2,-1
 596 460 l 1,3,-1
 447 460 l 1,0,-1
42 231 m 0,4,5
 34 165 34 165 53.5 110.5 c 128,-1,6
 73 56 73 56 115.5 23.5 c 128,-1,7
 158 -9 158 -9 219 -9 c 0,8,9
 265 -9 265 -9 304.5 9.5 c 128,-1,10
 344 28 344 28 374 61 c 128,-1,11
 404 94 404 94 423.5 137.5 c 128,-1,12
 443 181 443 181 449 230 c 0,13,14
 455 277 455 277 448.5 320 c 128,-1,15
 442 363 442 363 422.5 397 c 128,-1,16
 403 431 403 431 370.5 450.5 c 128,-1,17
 338 470 338 470 292 470 c 0,18,19
 230 470 230 470 176.5 439 c 128,-1,20
 123 408 123 408 87 353.5 c 128,-1,21
 51 299 51 299 42 231 c 0,4,5
198 230 m 0,22,23
 203 262 203 262 222 289.5 c 128,-1,24
 241 317 241 317 269.5 333 c 128,-1,25
 298 349 298 349 329 348 c 0,26,27
 350 347 350 347 365.5 337.5 c 128,-1,28
 381 328 381 328 391.5 311.5 c 128,-1,29
 402 295 402 295 406 274.5 c 128,-1,30
 410 254 410 254 407 231 c 0,31,32
 403 207 403 207 391 185 c 128,-1,33
 379 163 379 163 361.5 146.5 c 128,-1,34
 344 130 344 130 323 121 c 128,-1,35
 302 112 302 112 280 113 c 0,36,37
 250 113 250 113 229.5 129.5 c 128,-1,38
 209 146 209 146 201.5 173 c 128,-1,39
 194 200 194 200 198 230 c 0,22,23
387 616 m 1,40,-1
 461 530 l 1,41,-1
 572 599 l 1,42,-1
 401 742 l 1,43,-1
 189 605 l 1,44,-1
 283 531 l 1,45,-1
 387 616 l 1,40,-1
EndSplineSet
Substitution2: "'ss01' Style Set 1 in Latin lookup 0 subtable" acircumflex.alt
EndChar

StartChar: atilde
Encoding: 227 227 176
Width: 598
GlyphClass: 2
Flags: W
LayerCount: 2
Fore
SplineSet
447 460 m 1,0,-1
 369 0 l 1,1,-1
 517 0 l 1,2,-1
 596 460 l 1,3,-1
 447 460 l 1,0,-1
42 231 m 0,4,5
 34 165 34 165 53.5 110.5 c 128,-1,6
 73 56 73 56 115.5 23.5 c 128,-1,7
 158 -9 158 -9 219 -9 c 0,8,9
 265 -9 265 -9 304.5 9.5 c 128,-1,10
 344 28 344 28 374 61 c 128,-1,11
 404 94 404 94 423.5 137.5 c 128,-1,12
 443 181 443 181 449 230 c 0,13,14
 455 277 455 277 448.5 320 c 128,-1,15
 442 363 442 363 422.5 397 c 128,-1,16
 403 431 403 431 370.5 450.5 c 128,-1,17
 338 470 338 470 292 470 c 0,18,19
 230 470 230 470 176.5 439 c 128,-1,20
 123 408 123 408 87 353.5 c 128,-1,21
 51 299 51 299 42 231 c 0,4,5
198 230 m 0,22,23
 203 262 203 262 222 289.5 c 128,-1,24
 241 317 241 317 269.5 333 c 128,-1,25
 298 349 298 349 329 348 c 0,26,27
 350 347 350 347 365.5 337.5 c 128,-1,28
 381 328 381 328 391.5 311.5 c 128,-1,29
 402 295 402 295 406 274.5 c 128,-1,30
 410 254 410 254 407 231 c 0,31,32
 403 207 403 207 391 185 c 128,-1,33
 379 163 379 163 361.5 146.5 c 128,-1,34
 344 130 344 130 323 121 c 128,-1,35
 302 112 302 112 280 113 c 0,36,37
 250 113 250 113 229.5 129.5 c 128,-1,38
 209 146 209 146 201.5 173 c 128,-1,39
 194 200 194 200 198 230 c 0,22,23
195 598 m 1,40,-1
 258 535 l 1,41,42
 264 549 264 549 276 566.5 c 128,-1,43
 288 584 288 584 314 585 c 0,44,45
 337 586 337 586 356.5 573.5 c 128,-1,46
 376 561 376 561 396 547.5 c 128,-1,47
 416 534 416 534 440 533 c 0,48,49
 470 532 470 532 497 545 c 128,-1,50
 524 558 524 558 546 577.5 c 128,-1,51
 568 597 568 597 580 616 c 1,52,-1
 520 692 l 1,53,54
 505 672 505 672 486.5 656.5 c 128,-1,55
 468 641 468 641 446 640 c 0,56,57
 421 639 421 639 404 651.5 c 128,-1,58
 387 664 387 664 369 677.5 c 128,-1,59
 351 691 351 691 323 691 c 0,60,61
 292 691 292 691 266.5 677.5 c 128,-1,62
 241 664 241 664 223 643.5 c 128,-1,63
 205 623 205 623 195 598 c 1,40,-1
EndSplineSet
Substitution2: "'ss01' Style Set 1 in Latin lookup 0 subtable" atilde.alt
EndChar

StartChar: adieresis
Encoding: 228 228 177
Width: 598
GlyphClass: 2
Flags: W
LayerCount: 2
Fore
SplineSet
447 460 m 1,0,-1
 369 0 l 1,1,-1
 517 0 l 1,2,-1
 596 460 l 1,3,-1
 447 460 l 1,0,-1
42 231 m 0,4,5
 34 165 34 165 53.5 110.5 c 128,-1,6
 73 56 73 56 115.5 23.5 c 128,-1,7
 158 -9 158 -9 219 -9 c 0,8,9
 265 -9 265 -9 304.5 9.5 c 128,-1,10
 344 28 344 28 374 61 c 128,-1,11
 404 94 404 94 423.5 137.5 c 128,-1,12
 443 181 443 181 449 230 c 0,13,14
 455 277 455 277 448.5 320 c 128,-1,15
 442 363 442 363 422.5 397 c 128,-1,16
 403 431 403 431 370.5 450.5 c 128,-1,17
 338 470 338 470 292 470 c 0,18,19
 230 470 230 470 176.5 439 c 128,-1,20
 123 408 123 408 87 353.5 c 128,-1,21
 51 299 51 299 42 231 c 0,4,5
198 230 m 0,22,23
 203 262 203 262 222 289.5 c 128,-1,24
 241 317 241 317 269.5 333 c 128,-1,25
 298 349 298 349 329 348 c 0,26,27
 350 347 350 347 365.5 337.5 c 128,-1,28
 381 328 381 328 391.5 311.5 c 128,-1,29
 402 295 402 295 406 274.5 c 128,-1,30
 410 254 410 254 407 231 c 0,31,32
 403 207 403 207 391 185 c 128,-1,33
 379 163 379 163 361.5 146.5 c 128,-1,34
 344 130 344 130 323 121 c 128,-1,35
 302 112 302 112 280 113 c 0,36,37
 250 113 250 113 229.5 129.5 c 128,-1,38
 209 146 209 146 201.5 173 c 128,-1,39
 194 200 194 200 198 230 c 0,22,23
408 614 m 0,40,41
 404 579 404 579 426.5 555.5 c 128,-1,42
 449 532 449 532 484 532 c 0,43,44
 519 531 519 531 548 554.5 c 128,-1,45
 577 578 577 578 581 611 c 0,46,47
 585 646 585 646 562.5 670 c 128,-1,48
 540 694 540 694 505 694 c 0,49,50
 471 694 471 694 441.5 671 c 128,-1,51
 412 648 412 648 408 614 c 0,40,41
172 614 m 0,52,53
 168 579 168 579 190 555.5 c 128,-1,54
 212 532 212 532 247 532 c 0,55,56
 282 531 282 531 311 554.5 c 128,-1,57
 340 578 340 578 344 611 c 0,58,59
 348 646 348 646 326 670 c 128,-1,60
 304 694 304 694 269 694 c 256,61,62
 234 694 234 694 205 671 c 128,-1,63
 176 648 176 648 172 614 c 0,52,53
EndSplineSet
Substitution2: "'ss01' Style Set 1 in Latin lookup 0 subtable" adieresis.alt
EndChar

StartChar: aring
Encoding: 229 229 178
Width: 598
GlyphClass: 2
Flags: W
LayerCount: 2
Fore
SplineSet
447 460 m 1,0,-1
 369 0 l 1,1,-1
 517 0 l 1,2,-1
 596 460 l 1,3,-1
 447 460 l 1,0,-1
42 231 m 0,4,5
 34 165 34 165 53.5 110.5 c 128,-1,6
 73 56 73 56 115.5 23.5 c 128,-1,7
 158 -9 158 -9 219 -9 c 0,8,9
 265 -9 265 -9 304.5 9.5 c 128,-1,10
 344 28 344 28 374 61 c 128,-1,11
 404 94 404 94 423.5 137.5 c 128,-1,12
 443 181 443 181 449 230 c 0,13,14
 455 277 455 277 448.5 320 c 128,-1,15
 442 363 442 363 422.5 397 c 128,-1,16
 403 431 403 431 370.5 450.5 c 128,-1,17
 338 470 338 470 292 470 c 0,18,19
 230 470 230 470 176.5 439 c 128,-1,20
 123 408 123 408 87 353.5 c 128,-1,21
 51 299 51 299 42 231 c 0,4,5
198 230 m 0,22,23
 203 262 203 262 222 289.5 c 128,-1,24
 241 317 241 317 269.5 333 c 128,-1,25
 298 349 298 349 329 348 c 0,26,27
 350 347 350 347 365.5 337.5 c 128,-1,28
 381 328 381 328 391.5 311.5 c 128,-1,29
 402 295 402 295 406 274.5 c 128,-1,30
 410 254 410 254 407 231 c 0,31,32
 403 207 403 207 391 185 c 128,-1,33
 379 163 379 163 361.5 146.5 c 128,-1,34
 344 130 344 130 323 121 c 128,-1,35
 302 112 302 112 280 113 c 0,36,37
 250 113 250 113 229.5 129.5 c 128,-1,38
 209 146 209 146 201.5 173 c 128,-1,39
 194 200 194 200 198 230 c 0,22,23
250 647 m 0,40,41
 245 614 245 614 258 588 c 128,-1,42
 271 562 271 562 297 547 c 128,-1,43
 323 532 323 532 356 531 c 0,44,45
 389 531 389 531 419.5 546 c 128,-1,46
 450 561 450 561 470 587 c 128,-1,47
 490 613 490 613 495 645 c 0,48,49
 499 678 499 678 486 704.5 c 128,-1,50
 473 731 473 731 447 746 c 128,-1,51
 421 761 421 761 387 761 c 0,52,53
 354 762 354 762 324.5 747 c 128,-1,54
 295 732 295 732 274.5 706 c 128,-1,55
 254 680 254 680 250 647 c 0,40,41
327 645 m 0,56,57
 329 658 329 658 337.5 669 c 128,-1,58
 346 680 346 680 358.5 687 c 128,-1,59
 371 694 371 694 382 694 c 0,60,61
 400 693 400 693 409.5 679 c 128,-1,62
 419 665 419 665 417 647 c 0,63,64
 416 635 416 635 407 624 c 128,-1,65
 398 613 398 613 385.5 606 c 128,-1,66
 373 599 373 599 361 599 c 0,67,68
 344 600 344 600 334.5 614 c 128,-1,69
 325 628 325 628 327 645 c 0,56,57
EndSplineSet
Substitution2: "'ss01' Style Set 1 in Latin lookup 0 subtable" aring.alt
EndChar

StartChar: amacron
Encoding: 257 257 179
Width: 598
GlyphClass: 2
Flags: W
LayerCount: 2
Fore
SplineSet
447 460 m 1,0,-1
 369 0 l 1,1,-1
 517 0 l 1,2,-1
 596 460 l 1,3,-1
 447 460 l 1,0,-1
42 231 m 0,4,5
 34 165 34 165 53.5 110.5 c 128,-1,6
 73 56 73 56 115.5 23.5 c 128,-1,7
 158 -9 158 -9 219 -9 c 0,8,9
 265 -9 265 -9 304.5 9.5 c 128,-1,10
 344 28 344 28 374 61 c 128,-1,11
 404 94 404 94 423.5 137.5 c 128,-1,12
 443 181 443 181 449 230 c 0,13,14
 455 277 455 277 448.5 320 c 128,-1,15
 442 363 442 363 422.5 397 c 128,-1,16
 403 431 403 431 370.5 450.5 c 128,-1,17
 338 470 338 470 292 470 c 0,18,19
 230 470 230 470 176.5 439 c 128,-1,20
 123 408 123 408 87 353.5 c 128,-1,21
 51 299 51 299 42 231 c 0,4,5
198 230 m 0,22,23
 203 262 203 262 222 289.5 c 128,-1,24
 241 317 241 317 269.5 333 c 128,-1,25
 298 349 298 349 329 348 c 0,26,27
 350 347 350 347 365.5 337.5 c 128,-1,28
 381 328 381 328 391.5 311.5 c 128,-1,29
 402 295 402 295 406 274.5 c 128,-1,30
 410 254 410 254 407 231 c 0,31,32
 403 207 403 207 391 185 c 128,-1,33
 379 163 379 163 361.5 146.5 c 128,-1,34
 344 130 344 130 323 121 c 128,-1,35
 302 112 302 112 280 113 c 0,36,37
 250 113 250 113 229.5 129.5 c 128,-1,38
 209 146 209 146 201.5 173 c 128,-1,39
 194 200 194 200 198 230 c 0,22,23
183 535 m 1,40,-1
 547 534 l 1,41,-1
 570 665 l 1,42,-1
 206 665 l 1,43,-1
 183 535 l 1,40,-1
EndSplineSet
Substitution2: "'ss01' Style Set 1 in Latin lookup 0 subtable" amacron.alt
EndChar

StartChar: abreve
Encoding: 259 259 180
Width: 598
GlyphClass: 2
Flags: W
LayerCount: 2
Fore
SplineSet
447 460 m 1,0,-1
 369 0 l 1,1,-1
 517 0 l 1,2,-1
 596 460 l 1,3,-1
 447 460 l 1,0,-1
42 231 m 0,4,5
 34 165 34 165 53.5 110.5 c 128,-1,6
 73 56 73 56 115.5 23.5 c 128,-1,7
 158 -9 158 -9 219 -9 c 0,8,9
 265 -9 265 -9 304.5 9.5 c 128,-1,10
 344 28 344 28 374 61 c 128,-1,11
 404 94 404 94 423.5 137.5 c 128,-1,12
 443 181 443 181 449 230 c 0,13,14
 455 277 455 277 448.5 320 c 128,-1,15
 442 363 442 363 422.5 397 c 128,-1,16
 403 431 403 431 370.5 450.5 c 128,-1,17
 338 470 338 470 292 470 c 0,18,19
 230 470 230 470 176.5 439 c 128,-1,20
 123 408 123 408 87 353.5 c 128,-1,21
 51 299 51 299 42 231 c 0,4,5
198 230 m 0,22,23
 203 262 203 262 222 289.5 c 128,-1,24
 241 317 241 317 269.5 333 c 128,-1,25
 298 349 298 349 329 348 c 0,26,27
 350 347 350 347 365.5 337.5 c 128,-1,28
 381 328 381 328 391.5 311.5 c 128,-1,29
 402 295 402 295 406 274.5 c 128,-1,30
 410 254 410 254 407 231 c 0,31,32
 403 207 403 207 391 185 c 128,-1,33
 379 163 379 163 361.5 146.5 c 128,-1,34
 344 130 344 130 323 121 c 128,-1,35
 302 112 302 112 280 113 c 0,36,37
 250 113 250 113 229.5 129.5 c 128,-1,38
 209 146 209 146 201.5 173 c 128,-1,39
 194 200 194 200 198 230 c 0,22,23
211 677 m 1,40,41
 209 635 209 635 224 602 c 128,-1,42
 239 569 239 569 271 550 c 128,-1,43
 303 531 303 531 353 531 c 0,44,45
 402 531 402 531 439 550.5 c 128,-1,46
 476 570 476 570 499.5 602.5 c 128,-1,47
 523 635 523 635 532 676 c 1,48,-1
 433 676 l 1,49,50
 428 661 428 661 417.5 647.5 c 128,-1,51
 407 634 407 634 392.5 625.5 c 128,-1,52
 378 617 378 617 358 618 c 0,53,54
 340 619 340 619 328.5 627 c 128,-1,55
 317 635 317 635 312 648 c 128,-1,56
 307 661 307 661 307 676 c 1,57,-1
 211 677 l 1,40,41
EndSplineSet
Substitution2: "'ss01' Style Set 1 in Latin lookup 0 subtable" abreve.alt
EndChar

StartChar: aogonek
Encoding: 261 261 181
Width: 598
GlyphClass: 2
Flags: W
LayerCount: 2
Fore
SplineSet
447 460 m 1,0,-1
 369 0 l 1,1,-1
 517 0 l 1,2,-1
 596 460 l 1,3,-1
 447 460 l 1,0,-1
42 231 m 0,4,5
 34 165 34 165 53.5 110.5 c 128,-1,6
 73 56 73 56 115.5 23.5 c 128,-1,7
 158 -9 158 -9 219 -9 c 0,8,9
 265 -9 265 -9 304.5 9.5 c 128,-1,10
 344 28 344 28 374 61 c 128,-1,11
 404 94 404 94 423.5 137.5 c 128,-1,12
 443 181 443 181 449 230 c 0,13,14
 455 277 455 277 448.5 320 c 128,-1,15
 442 363 442 363 422.5 397 c 128,-1,16
 403 431 403 431 370.5 450.5 c 128,-1,17
 338 470 338 470 292 470 c 0,18,19
 230 470 230 470 176.5 439 c 128,-1,20
 123 408 123 408 87 353.5 c 128,-1,21
 51 299 51 299 42 231 c 0,4,5
198 230 m 0,22,23
 203 262 203 262 222 289.5 c 128,-1,24
 241 317 241 317 269.5 333 c 128,-1,25
 298 349 298 349 329 348 c 0,26,27
 350 347 350 347 365.5 337.5 c 128,-1,28
 381 328 381 328 391.5 311.5 c 128,-1,29
 402 295 402 295 406 274.5 c 128,-1,30
 410 254 410 254 407 231 c 0,31,32
 403 207 403 207 391 185 c 128,-1,33
 379 163 379 163 361.5 146.5 c 128,-1,34
 344 130 344 130 323 121 c 128,-1,35
 302 112 302 112 280 113 c 0,36,37
 250 113 250 113 229.5 129.5 c 128,-1,38
 209 146 209 146 201.5 173 c 128,-1,39
 194 200 194 200 198 230 c 0,22,23
470 -111 m 1,40,41
 460 -118 460 -118 446 -124.5 c 128,-1,42
 432 -131 432 -131 417 -130 c 0,43,44
 401 -129 401 -129 395.5 -119 c 128,-1,45
 390 -109 390 -109 391 -94 c 0,46,47
 395 -74 395 -74 409.5 -58 c 128,-1,48
 424 -42 424 -42 444.5 -27.5 c 128,-1,49
 465 -13 465 -13 486 0 c 1,50,-1
 446 25 l 1,51,52
 413 9 413 9 379 -11 c 128,-1,53
 345 -31 345 -31 320.5 -57.5 c 128,-1,54
 296 -84 296 -84 290 -119 c 0,55,56
 284 -166 284 -166 314 -192.5 c 128,-1,57
 344 -219 344 -219 391 -220 c 0,58,59
 425 -220 425 -220 450 -208.5 c 128,-1,60
 475 -197 475 -197 492 -181 c 1,61,-1
 470 -111 l 1,40,41
EndSplineSet
Substitution2: "'ss01' Style Set 1 in Latin lookup 0 subtable" aogonek.alt
EndChar

StartChar: b
Encoding: 98 98 182
Width: 598
GlyphClass: 2
Flags: W
LayerCount: 2
Fore
SplineSet
311 780 m 1,0,-1
 161 780 l 1,1,-1
 28 0 l 1,2,-1
 177 0 l 1,3,-1
 311 780 l 1,0,-1
581 230 m 0,4,5
 589 296 589 296 569.5 350.5 c 128,-1,6
 550 405 550 405 507.5 437.5 c 128,-1,7
 465 470 465 470 404 470 c 0,8,9
 358 470 358 470 319 451.5 c 128,-1,10
 280 433 280 433 249.5 400 c 128,-1,11
 219 367 219 367 200 323.5 c 128,-1,12
 181 280 181 280 174 231 c 0,13,14
 168 184 168 184 174.5 140.5 c 128,-1,15
 181 97 181 97 200.5 63 c 128,-1,16
 220 29 220 29 253 9.5 c 128,-1,17
 286 -10 286 -10 332 -10 c 0,18,19
 393 -10 393 -10 446.5 21.5 c 128,-1,20
 500 53 500 53 536 107.5 c 128,-1,21
 572 162 572 162 581 230 c 0,4,5
426 231 m 0,22,23
 421 199 421 199 401.5 171.5 c 128,-1,24
 382 144 382 144 354.5 128 c 128,-1,25
 327 112 327 112 295 113 c 0,26,27
 274 113 274 113 258 122.5 c 128,-1,28
 242 132 242 132 231.5 149 c 128,-1,29
 221 166 221 166 217 186.5 c 128,-1,30
 213 207 213 207 216 230 c 0,31,32
 221 254 221 254 232.5 276 c 128,-1,33
 244 298 244 298 262 314 c 128,-1,34
 280 330 280 330 300.5 339 c 128,-1,35
 321 348 321 348 343 348 c 0,36,37
 374 348 374 348 394 331 c 128,-1,38
 414 314 414 314 422.5 287.5 c 128,-1,39
 431 261 431 261 426 231 c 0,22,23
EndSplineSet
EndChar

StartChar: c
Encoding: 99 99 183
Width: 475
GlyphClass: 2
Flags: W
LayerCount: 2
Fore
SplineSet
195 230 m 0,0,1
 200 264 200 264 220 290.5 c 128,-1,2
 240 317 240 317 270 333.5 c 128,-1,3
 300 350 300 350 336 350 c 0,4,5
 373 350 373 350 404.5 332 c 128,-1,6
 436 314 436 314 455 282 c 1,7,-1
 475 430 l 1,8,9
 448 448 448 448 413.5 459 c 128,-1,10
 379 470 379 470 334 470 c 0,11,12
 260 470 260 470 197 439.5 c 128,-1,13
 134 409 134 409 93 355.5 c 128,-1,14
 52 302 52 302 42 231 c 0,15,16
 33 161 33 161 60 107 c 128,-1,17
 87 53 87 53 142 21.5 c 128,-1,18
 197 -10 197 -10 268 -10 c 0,19,20
 315 -10 315 -10 351 1.5 c 128,-1,21
 387 13 387 13 416 32 c 1,22,-1
 435 178 l 1,23,24
 409 150 409 150 371 130 c 128,-1,25
 333 110 333 110 291 111 c 0,26,27
 258 112 258 112 234.5 127.5 c 128,-1,28
 211 143 211 143 200.5 170 c 128,-1,29
 190 197 190 197 195 230 c 0,0,1
EndSplineSet
EndChar

StartChar: ccedilla
Encoding: 231 231 184
Width: 479
GlyphClass: 2
Flags: W
LayerCount: 2
Fore
SplineSet
193 230 m 0,0,1
 199 263 199 263 220 290 c 128,-1,2
 241 317 241 317 272 333.5 c 128,-1,3
 303 350 303 350 337 350 c 0,4,5
 374 350 374 350 405.5 332 c 128,-1,6
 437 314 437 314 454 282 c 1,7,-1
 476 430 l 1,8,9
 449 448 449 448 414.5 459 c 128,-1,10
 380 470 380 470 336 470 c 0,11,12
 262 470 262 470 198.5 439.5 c 128,-1,13
 135 409 135 409 93 355.5 c 128,-1,14
 51 302 51 302 40 231 c 0,15,16
 30 161 30 161 56.5 107 c 128,-1,17
 83 53 83 53 137 21.5 c 128,-1,18
 191 -10 191 -10 263 -10 c 0,19,20
 310 -10 310 -10 346.5 1.5 c 128,-1,21
 383 13 383 13 412 32 c 1,22,-1
 433 178 l 1,23,24
 406 149 406 149 368 129.5 c 128,-1,25
 330 110 330 110 287 111 c 0,26,27
 254 112 254 112 231 128 c 128,-1,28
 208 144 208 144 198 170.5 c 128,-1,29
 188 197 188 197 193 230 c 0,0,1
211 60 m 1,30,-1
 96 -133 l 1,31,32
 119 -125 119 -125 143 -121 c 128,-1,33
 167 -117 167 -117 181 -118 c 0,34,35
 193 -118 193 -118 205 -120.5 c 128,-1,36
 217 -123 217 -123 224.5 -130 c 128,-1,37
 232 -137 232 -137 231 -148 c 0,38,39
 231 -160 231 -160 221 -168.5 c 128,-1,40
 211 -177 211 -177 196.5 -181 c 128,-1,41
 182 -185 182 -185 169 -186 c 0,42,43
 153 -186 153 -186 133.5 -179 c 128,-1,44
 114 -172 114 -172 97 -160 c 1,45,-1
 44 -226 l 1,46,47
 77 -247 77 -247 110 -257.5 c 128,-1,48
 143 -268 143 -268 182 -267 c 0,49,50
 214 -267 214 -267 245 -254 c 128,-1,51
 276 -241 276 -241 298 -217.5 c 128,-1,52
 320 -194 320 -194 325 -160 c 0,53,54
 330 -117 330 -117 306 -90 c 128,-1,55
 282 -63 282 -63 248 -62 c 0,56,57
 239 -62 239 -62 230.5 -63 c 128,-1,58
 222 -64 222 -64 215 -65 c 1,59,-1
 323 56 l 1,60,-1
 211 60 l 1,30,-1
EndSplineSet
EndChar

StartChar: cacute
Encoding: 263 263 185
Width: 479
GlyphClass: 2
Flags: W
LayerCount: 2
Fore
SplineSet
193 230 m 0,0,1
 199 263 199 263 220 290 c 128,-1,2
 241 317 241 317 272 333.5 c 128,-1,3
 303 350 303 350 337 350 c 0,4,5
 374 350 374 350 405.5 332 c 128,-1,6
 437 314 437 314 454 282 c 1,7,-1
 476 430 l 1,8,9
 449 448 449 448 414.5 459 c 128,-1,10
 380 470 380 470 336 470 c 0,11,12
 262 470 262 470 198.5 439.5 c 128,-1,13
 135 409 135 409 93 355.5 c 128,-1,14
 51 302 51 302 40 231 c 0,15,16
 30 161 30 161 56.5 107 c 128,-1,17
 83 53 83 53 137 21.5 c 128,-1,18
 191 -10 191 -10 263 -10 c 0,19,20
 310 -10 310 -10 346.5 1.5 c 128,-1,21
 383 13 383 13 412 32 c 1,22,-1
 433 178 l 1,23,24
 406 149 406 149 368 129.5 c 128,-1,25
 330 110 330 110 287 111 c 0,26,27
 254 112 254 112 231 128 c 128,-1,28
 208 144 208 144 198 170.5 c 128,-1,29
 188 197 188 197 193 230 c 0,0,1
504 678 m 1,30,-1
 396 732 l 1,31,-1
 225 576 l 1,32,-1
 306 532 l 1,33,-1
 504 678 l 1,30,-1
EndSplineSet
EndChar

StartChar: ccircumflex
Encoding: 265 265 186
Width: 479
GlyphClass: 2
Flags: W
LayerCount: 2
Fore
SplineSet
193 230 m 0,0,1
 199 263 199 263 220 290 c 128,-1,2
 241 317 241 317 272 333.5 c 128,-1,3
 303 350 303 350 337 350 c 0,4,5
 374 350 374 350 405.5 332 c 128,-1,6
 437 314 437 314 454 282 c 1,7,-1
 476 430 l 1,8,9
 449 448 449 448 414.5 459 c 128,-1,10
 380 470 380 470 336 470 c 0,11,12
 262 470 262 470 198.5 439.5 c 128,-1,13
 135 409 135 409 93 355.5 c 128,-1,14
 51 302 51 302 40 231 c 0,15,16
 30 161 30 161 56.5 107 c 128,-1,17
 83 53 83 53 137 21.5 c 128,-1,18
 191 -10 191 -10 263 -10 c 0,19,20
 310 -10 310 -10 346.5 1.5 c 128,-1,21
 383 13 383 13 412 32 c 1,22,-1
 433 178 l 1,23,24
 406 149 406 149 368 129.5 c 128,-1,25
 330 110 330 110 287 111 c 0,26,27
 254 112 254 112 231 128 c 128,-1,28
 208 144 208 144 198 170.5 c 128,-1,29
 188 197 188 197 193 230 c 0,0,1
339 616 m 1,30,-1
 413 530 l 1,31,-1
 525 599 l 1,32,-1
 353 742 l 1,33,-1
 141 605 l 1,34,-1
 236 531 l 1,35,-1
 339 616 l 1,30,-1
EndSplineSet
EndChar

StartChar: cdotaccent
Encoding: 267 267 187
Width: 479
GlyphClass: 2
Flags: W
LayerCount: 2
Fore
SplineSet
193 230 m 0,0,1
 199 263 199 263 220 290 c 128,-1,2
 241 317 241 317 272 333.5 c 128,-1,3
 303 350 303 350 337 350 c 0,4,5
 374 350 374 350 405.5 332 c 128,-1,6
 437 314 437 314 454 282 c 1,7,-1
 476 430 l 1,8,9
 449 448 449 448 414.5 459 c 128,-1,10
 380 470 380 470 336 470 c 0,11,12
 262 470 262 470 198.5 439.5 c 128,-1,13
 135 409 135 409 93 355.5 c 128,-1,14
 51 302 51 302 40 231 c 0,15,16
 30 161 30 161 56.5 107 c 128,-1,17
 83 53 83 53 137 21.5 c 128,-1,18
 191 -10 191 -10 263 -10 c 0,19,20
 310 -10 310 -10 346.5 1.5 c 128,-1,21
 383 13 383 13 412 32 c 1,22,-1
 433 178 l 1,23,24
 406 149 406 149 368 129.5 c 128,-1,25
 330 110 330 110 287 111 c 0,26,27
 254 112 254 112 231 128 c 128,-1,28
 208 144 208 144 198 170.5 c 128,-1,29
 188 197 188 197 193 230 c 0,0,1
255 620 m 0,30,31
 252 586 252 586 274 562 c 128,-1,32
 296 538 296 538 331 538 c 0,33,34
 366 537 366 537 395 560.5 c 128,-1,35
 424 584 424 584 428 618 c 256,36,37
 432 652 432 652 410 676 c 128,-1,38
 388 700 388 700 353 700 c 0,39,40
 319 701 319 701 289.5 677.5 c 128,-1,41
 260 654 260 654 255 620 c 0,30,31
EndSplineSet
EndChar

StartChar: ccaron
Encoding: 269 269 188
Width: 479
GlyphClass: 2
Flags: W
LayerCount: 2
Fore
SplineSet
193 230 m 0,0,1
 199 263 199 263 220 290 c 128,-1,2
 241 317 241 317 272 333.5 c 128,-1,3
 303 350 303 350 337 350 c 0,4,5
 374 350 374 350 405.5 332 c 128,-1,6
 437 314 437 314 454 282 c 1,7,-1
 476 430 l 1,8,9
 449 448 449 448 414.5 459 c 128,-1,10
 380 470 380 470 336 470 c 0,11,12
 262 470 262 470 198.5 439.5 c 128,-1,13
 135 409 135 409 93 355.5 c 128,-1,14
 51 302 51 302 40 231 c 0,15,16
 30 161 30 161 56.5 107 c 128,-1,17
 83 53 83 53 137 21.5 c 128,-1,18
 191 -10 191 -10 263 -10 c 0,19,20
 310 -10 310 -10 346.5 1.5 c 128,-1,21
 383 13 383 13 412 32 c 1,22,-1
 433 178 l 1,23,24
 406 149 406 149 368 129.5 c 128,-1,25
 330 110 330 110 287 111 c 0,26,27
 254 112 254 112 231 128 c 128,-1,28
 208 144 208 144 198 170.5 c 128,-1,29
 188 197 188 197 193 230 c 0,0,1
339 658 m 1,30,-1
 265 742 l 1,31,-1
 152 673 l 1,32,-1
 325 531 l 1,33,-1
 536 668 l 1,34,-1
 442 742 l 1,35,-1
 339 658 l 1,30,-1
EndSplineSet
EndChar

StartChar: d
Encoding: 100 100 189
Width: 598
GlyphClass: 2
Flags: W
LayerCount: 2
Fore
SplineSet
500 780 m 1,0,-1
 367 0 l 1,1,-1
 516 0 l 1,2,-1
 651 780 l 1,3,-1
 500 780 l 1,0,-1
42 231 m 0,4,5
 34 165 34 165 53.5 110.5 c 128,-1,6
 73 56 73 56 115.5 23.5 c 128,-1,7
 158 -9 158 -9 219 -9 c 0,8,9
 265 -9 265 -9 304.5 9.5 c 128,-1,10
 344 28 344 28 374 61 c 128,-1,11
 404 94 404 94 423.5 137.5 c 128,-1,12
 443 181 443 181 449 230 c 0,13,14
 455 277 455 277 448.5 320 c 128,-1,15
 442 363 442 363 422.5 397 c 128,-1,16
 403 431 403 431 370.5 450.5 c 128,-1,17
 338 470 338 470 292 470 c 0,18,19
 230 470 230 470 176.5 439 c 128,-1,20
 123 408 123 408 87 353.5 c 128,-1,21
 51 299 51 299 42 231 c 0,4,5
198 230 m 0,22,23
 203 262 203 262 222 289.5 c 128,-1,24
 241 317 241 317 269.5 333 c 128,-1,25
 298 349 298 349 329 348 c 0,26,27
 350 347 350 347 365.5 337.5 c 128,-1,28
 381 328 381 328 391.5 311.5 c 128,-1,29
 402 295 402 295 406 274.5 c 128,-1,30
 410 254 410 254 407 231 c 0,31,32
 403 207 403 207 391 185 c 128,-1,33
 379 163 379 163 361.5 146.5 c 128,-1,34
 344 130 344 130 323 121 c 128,-1,35
 302 112 302 112 280 113 c 0,36,37
 250 113 250 113 229.5 129.5 c 128,-1,38
 209 146 209 146 201.5 173 c 128,-1,39
 194 200 194 200 198 230 c 0,22,23
EndSplineSet
EndChar

StartChar: dcaron
Encoding: 271 271 190
Width: 598
GlyphClass: 2
Flags: W
LayerCount: 2
Fore
SplineSet
500 780 m 1,0,-1
 367 0 l 1,1,-1
 516 0 l 1,2,-1
 651 780 l 1,3,-1
 500 780 l 1,0,-1
42 231 m 0,4,5
 34 165 34 165 53.5 110.5 c 128,-1,6
 73 56 73 56 115.5 23.5 c 128,-1,7
 158 -9 158 -9 219 -9 c 0,8,9
 265 -9 265 -9 304.5 9.5 c 128,-1,10
 344 28 344 28 374 61 c 128,-1,11
 404 94 404 94 423.5 137.5 c 128,-1,12
 443 181 443 181 450 230 c 0,13,14
 456 277 456 277 449.5 320 c 128,-1,15
 443 363 443 363 423.5 397 c 128,-1,16
 404 431 404 431 371 450.5 c 128,-1,17
 338 470 338 470 292 470 c 0,18,19
 230 470 230 470 176.5 439 c 128,-1,20
 123 408 123 408 87 353.5 c 128,-1,21
 51 299 51 299 42 231 c 0,4,5
198 230 m 0,22,23
 203 262 203 262 222 289.5 c 128,-1,24
 241 317 241 317 269.5 333 c 128,-1,25
 298 349 298 349 329 348 c 0,26,27
 350 347 350 347 366 337.5 c 128,-1,28
 382 328 382 328 392.5 311.5 c 128,-1,29
 403 295 403 295 407 274.5 c 128,-1,30
 411 254 411 254 408 231 c 0,31,32
 403 207 403 207 391 185 c 128,-1,33
 379 163 379 163 361.5 146.5 c 128,-1,34
 344 130 344 130 323 121 c 128,-1,35
 302 112 302 112 280 113 c 0,36,37
 250 113 250 113 229.5 129.5 c 128,-1,38
 209 146 209 146 201.5 173 c 128,-1,39
 194 200 194 200 198 230 c 0,22,23
761 779 m 1,40,-1
 632 523 l 1,41,-1
 743 499 l 1,42,-1
 907 746 l 1,43,-1
 761 779 l 1,40,-1
EndSplineSet
EndChar

StartChar: e
Encoding: 101 101 191
Width: 557
GlyphClass: 2
Flags: W
LayerCount: 2
Fore
SplineSet
275 -10 m 0,0,1
 363 -10 363 -10 426.5 25 c 128,-1,2
 490 60 490 60 526 126 c 1,3,-1
 396 159 l 1,4,5
 376 131 376 131 348 115 c 128,-1,6
 320 99 320 99 282 99 c 0,7,8
 249 99 249 99 228 114 c 128,-1,9
 207 129 207 129 198.5 157 c 128,-1,10
 190 185 190 185 195 221 c 0,11,12
 200 255 200 255 209.5 282.5 c 128,-1,13
 219 310 219 310 234.5 329 c 128,-1,14
 250 348 250 348 271.5 358.5 c 128,-1,15
 293 369 293 369 320 369 c 0,16,17
 346 369 346 369 362.5 358 c 128,-1,18
 379 347 379 347 387.5 327 c 128,-1,19
 396 307 396 307 396 278 c 0,20,21
 396 269 396 269 392 257.5 c 128,-1,22
 388 246 388 246 382 236 c 1,23,-1
 417 282 l 1,24,-1
 121 282 l 1,25,-1
 121 198 l 1,26,-1
 537 198 l 1,27,28
 542 212 542 212 545 231 c 128,-1,29
 548 250 548 250 548 266 c 0,30,31
 548 330 548 330 523.5 375.5 c 128,-1,32
 499 421 499 421 451.5 445.5 c 128,-1,33
 404 470 404 470 334 470 c 0,34,35
 270 470 270 470 217 449 c 128,-1,36
 164 428 164 428 125.5 391.5 c 128,-1,37
 87 355 87 355 66 306 c 128,-1,38
 45 257 45 257 45 200 c 0,39,40
 45 135 45 135 73.5 88 c 128,-1,41
 102 41 102 41 153.5 15.5 c 128,-1,42
 205 -10 205 -10 275 -10 c 0,0,1
EndSplineSet
EndChar

StartChar: egrave
Encoding: 232 232 192
Width: 557
GlyphClass: 2
Flags: W
LayerCount: 2
Fore
SplineSet
121 199 m 1,0,-1
 531 199 l 1,1,2
 534 210 534 210 535.5 219.5 c 128,-1,3
 537 229 537 229 538 237 c 0,4,5
 547 306 547 306 526 358.5 c 128,-1,6
 505 411 505 411 456 440.5 c 128,-1,7
 407 470 407 470 331 470 c 0,8,9
 262 470 262 470 206 446 c 128,-1,10
 150 422 150 422 111 379 c 128,-1,11
 72 336 72 336 53 279 c 0,12,13
 49 267 49 267 46.5 255 c 128,-1,14
 44 243 44 243 42 230 c 0,15,16
 33 163 33 163 56 108.5 c 128,-1,17
 79 54 79 54 132 22.5 c 128,-1,18
 185 -9 185 -9 261 -10 c 0,19,20
 321 -10 321 -10 368.5 7 c 128,-1,21
 416 24 416 24 453 54 c 128,-1,22
 490 84 490 84 520 124 c 1,23,-1
 389 159 l 1,24,25
 375 142 375 142 356.5 128.5 c 128,-1,26
 338 115 338 115 316 107.5 c 128,-1,27
 294 100 294 100 268 100 c 0,28,29
 236 102 236 102 217.5 119 c 128,-1,30
 199 136 199 136 193 165 c 128,-1,31
 187 194 187 194 191 230 c 1,32,-1
 198 254 l 2,33,34
 205 286 205 286 221 312 c 128,-1,35
 237 338 237 338 262 354.5 c 128,-1,36
 287 371 287 371 319 369 c 0,37,38
 345 368 345 368 359.5 356.5 c 128,-1,39
 374 345 374 345 379.5 325.5 c 128,-1,40
 385 306 385 306 385 282 c 1,41,-1
 134 282 l 1,42,-1
 121 199 l 1,0,-1
213 687 m 1,43,-1
 365 534 l 1,44,-1
 451 575 l 1,45,-1
 330 737 l 1,46,-1
 213 687 l 1,43,-1
EndSplineSet
EndChar

StartChar: eacute
Encoding: 233 233 193
Width: 557
GlyphClass: 2
Flags: W
LayerCount: 2
Fore
SplineSet
121 199 m 1,0,-1
 531 199 l 1,1,2
 534 210 534 210 535.5 219.5 c 128,-1,3
 537 229 537 229 538 237 c 0,4,5
 547 306 547 306 526 358.5 c 128,-1,6
 505 411 505 411 456 440.5 c 128,-1,7
 407 470 407 470 331 470 c 0,8,9
 262 470 262 470 206 446 c 128,-1,10
 150 422 150 422 111 379 c 128,-1,11
 72 336 72 336 53 279 c 0,12,13
 49 267 49 267 46.5 255 c 128,-1,14
 44 243 44 243 42 230 c 0,15,16
 33 163 33 163 56 108.5 c 128,-1,17
 79 54 79 54 132 22.5 c 128,-1,18
 185 -9 185 -9 261 -10 c 0,19,20
 321 -10 321 -10 368.5 7 c 128,-1,21
 416 24 416 24 453 54 c 128,-1,22
 490 84 490 84 520 124 c 1,23,-1
 389 159 l 1,24,25
 375 142 375 142 356.5 128.5 c 128,-1,26
 338 115 338 115 316 107.5 c 128,-1,27
 294 100 294 100 268 100 c 0,28,29
 236 102 236 102 217.5 119 c 128,-1,30
 199 136 199 136 193 165 c 128,-1,31
 187 194 187 194 191 230 c 1,32,-1
 198 254 l 2,33,34
 205 286 205 286 221 312 c 128,-1,35
 237 338 237 338 262 354.5 c 128,-1,36
 287 371 287 371 319 369 c 0,37,38
 345 368 345 368 359.5 356.5 c 128,-1,39
 374 345 374 345 379.5 325.5 c 128,-1,40
 385 306 385 306 385 282 c 1,41,-1
 134 282 l 1,42,-1
 121 199 l 1,0,-1
541 682 m 1,43,-1
 432 736 l 1,44,-1
 263 580 l 1,45,-1
 343 535 l 1,46,-1
 541 682 l 1,43,-1
EndSplineSet
EndChar

StartChar: ecircumflex
Encoding: 234 234 194
Width: 557
GlyphClass: 2
Flags: W
LayerCount: 2
Fore
SplineSet
121 199 m 1,0,-1
 531 199 l 1,1,2
 534 210 534 210 535.5 219.5 c 128,-1,3
 537 229 537 229 538 237 c 0,4,5
 547 306 547 306 526 358.5 c 128,-1,6
 505 411 505 411 456 440.5 c 128,-1,7
 407 470 407 470 331 470 c 0,8,9
 262 470 262 470 206 446 c 128,-1,10
 150 422 150 422 111 379 c 128,-1,11
 72 336 72 336 53 279 c 0,12,13
 49 267 49 267 46.5 255 c 128,-1,14
 44 243 44 243 42 230 c 0,15,16
 33 163 33 163 56 108.5 c 128,-1,17
 79 54 79 54 132 22.5 c 128,-1,18
 185 -9 185 -9 261 -10 c 0,19,20
 321 -10 321 -10 368.5 7 c 128,-1,21
 416 24 416 24 453 54 c 128,-1,22
 490 84 490 84 520 124 c 1,23,-1
 389 159 l 1,24,25
 375 142 375 142 356.5 128.5 c 128,-1,26
 338 115 338 115 316 107.5 c 128,-1,27
 294 100 294 100 268 100 c 0,28,29
 236 102 236 102 217.5 119 c 128,-1,30
 199 136 199 136 193 165 c 128,-1,31
 187 194 187 194 191 230 c 1,32,-1
 198 254 l 2,33,34
 205 286 205 286 221 312 c 128,-1,35
 237 338 237 338 262 354.5 c 128,-1,36
 287 371 287 371 319 369 c 0,37,38
 345 368 345 368 359.5 356.5 c 128,-1,39
 374 345 374 345 379.5 325.5 c 128,-1,40
 385 306 385 306 385 282 c 1,41,-1
 134 282 l 1,42,-1
 121 199 l 1,0,-1
364 616 m 1,43,-1
 438 530 l 1,44,-1
 550 599 l 1,45,-1
 378 742 l 1,46,-1
 167 605 l 1,47,-1
 261 531 l 1,48,-1
 364 616 l 1,43,-1
EndSplineSet
EndChar

StartChar: edieresis
Encoding: 235 235 195
Width: 557
GlyphClass: 2
Flags: W
LayerCount: 2
Fore
SplineSet
121 199 m 1,0,-1
 531 199 l 1,1,2
 534 210 534 210 535.5 219.5 c 128,-1,3
 537 229 537 229 538 237 c 0,4,5
 547 306 547 306 526 358.5 c 128,-1,6
 505 411 505 411 456 440.5 c 128,-1,7
 407 470 407 470 331 470 c 0,8,9
 262 470 262 470 206 446 c 128,-1,10
 150 422 150 422 111 379 c 128,-1,11
 72 336 72 336 53 279 c 0,12,13
 49 267 49 267 46.5 255 c 128,-1,14
 44 243 44 243 42 230 c 0,15,16
 33 163 33 163 56 108.5 c 128,-1,17
 79 54 79 54 132 22.5 c 128,-1,18
 185 -9 185 -9 261 -10 c 0,19,20
 321 -10 321 -10 368.5 7 c 128,-1,21
 416 24 416 24 453 54 c 128,-1,22
 490 84 490 84 520 124 c 1,23,-1
 389 159 l 1,24,25
 375 142 375 142 356.5 128.5 c 128,-1,26
 338 115 338 115 316 107.5 c 128,-1,27
 294 100 294 100 268 100 c 0,28,29
 236 102 236 102 217.5 119 c 128,-1,30
 199 136 199 136 193 165 c 128,-1,31
 187 194 187 194 191 230 c 1,32,-1
 198 254 l 2,33,34
 205 286 205 286 221 312 c 128,-1,35
 237 338 237 338 262 354.5 c 128,-1,36
 287 371 287 371 319 369 c 0,37,38
 345 368 345 368 359.5 356.5 c 128,-1,39
 374 345 374 345 379.5 325.5 c 128,-1,40
 385 306 385 306 385 282 c 1,41,-1
 134 282 l 1,42,-1
 121 199 l 1,0,-1
392 614 m 0,43,44
 388 579 388 579 410.5 555.5 c 128,-1,45
 433 532 433 532 467 532 c 0,46,47
 502 531 502 531 531 554.5 c 128,-1,48
 560 578 560 578 564 611 c 0,49,50
 569 646 569 646 546.5 670 c 128,-1,51
 524 694 524 694 489 694 c 0,52,53
 455 694 455 694 425.5 671 c 128,-1,54
 396 648 396 648 392 614 c 0,43,44
155 614 m 0,55,56
 151 579 151 579 173.5 555.5 c 128,-1,57
 196 532 196 532 231 532 c 0,58,59
 265 531 265 531 294.5 554.5 c 128,-1,60
 324 578 324 578 328 611 c 0,61,62
 332 646 332 646 310 670 c 128,-1,63
 288 694 288 694 253 694 c 256,64,65
 218 694 218 694 189 671 c 128,-1,66
 160 648 160 648 155 614 c 0,55,56
EndSplineSet
EndChar

StartChar: emacron
Encoding: 275 275 196
Width: 557
GlyphClass: 2
Flags: W
LayerCount: 2
Fore
SplineSet
121 199 m 1,0,-1
 531 199 l 1,1,2
 534 210 534 210 535.5 219.5 c 128,-1,3
 537 229 537 229 538 237 c 0,4,5
 547 306 547 306 526 358.5 c 128,-1,6
 505 411 505 411 456 440.5 c 128,-1,7
 407 470 407 470 331 470 c 0,8,9
 262 470 262 470 206 446 c 128,-1,10
 150 422 150 422 111 379 c 128,-1,11
 72 336 72 336 53 279 c 0,12,13
 49 267 49 267 46.5 255 c 128,-1,14
 44 243 44 243 42 230 c 0,15,16
 33 163 33 163 56 108.5 c 128,-1,17
 79 54 79 54 132 22.5 c 128,-1,18
 185 -9 185 -9 261 -10 c 0,19,20
 321 -10 321 -10 368.5 7 c 128,-1,21
 416 24 416 24 453 54 c 128,-1,22
 490 84 490 84 520 124 c 1,23,-1
 389 159 l 1,24,25
 375 142 375 142 356.5 128.5 c 128,-1,26
 338 115 338 115 316 107.5 c 128,-1,27
 294 100 294 100 268 100 c 0,28,29
 236 102 236 102 217.5 119 c 128,-1,30
 199 136 199 136 193 165 c 128,-1,31
 187 194 187 194 191 230 c 1,32,-1
 198 254 l 2,33,34
 205 286 205 286 221 312 c 128,-1,35
 237 338 237 338 262 354.5 c 128,-1,36
 287 371 287 371 319 369 c 0,37,38
 345 368 345 368 359.5 356.5 c 128,-1,39
 374 345 374 345 379.5 325.5 c 128,-1,40
 385 306 385 306 385 282 c 1,41,-1
 134 282 l 1,42,-1
 121 199 l 1,0,-1
164 531 m 1,43,-1
 527 531 l 1,44,-1
 551 662 l 1,45,-1
 187 662 l 1,46,-1
 164 531 l 1,43,-1
EndSplineSet
EndChar

StartChar: ebreve
Encoding: 277 277 197
Width: 557
GlyphClass: 2
Flags: W
LayerCount: 2
Fore
SplineSet
121 199 m 1,0,-1
 531 199 l 1,1,2
 534 210 534 210 535.5 219.5 c 128,-1,3
 537 229 537 229 538 237 c 0,4,5
 547 306 547 306 526 358.5 c 128,-1,6
 505 411 505 411 456 440.5 c 128,-1,7
 407 470 407 470 331 470 c 0,8,9
 262 470 262 470 206 446 c 128,-1,10
 150 422 150 422 111 379 c 128,-1,11
 72 336 72 336 53 279 c 0,12,13
 49 267 49 267 46.5 255 c 128,-1,14
 44 243 44 243 42 230 c 0,15,16
 33 163 33 163 56 108.5 c 128,-1,17
 79 54 79 54 132 22.5 c 128,-1,18
 185 -9 185 -9 261 -10 c 0,19,20
 321 -10 321 -10 368.5 7 c 128,-1,21
 416 24 416 24 453 54 c 128,-1,22
 490 84 490 84 520 124 c 1,23,-1
 389 159 l 1,24,25
 375 142 375 142 356.5 128.5 c 128,-1,26
 338 115 338 115 316 107.5 c 128,-1,27
 294 100 294 100 268 100 c 0,28,29
 236 102 236 102 217.5 119 c 128,-1,30
 199 136 199 136 193 165 c 128,-1,31
 187 194 187 194 191 230 c 1,32,-1
 198 254 l 2,33,34
 205 286 205 286 221 312 c 128,-1,35
 237 338 237 338 262 354.5 c 128,-1,36
 287 371 287 371 319 369 c 0,37,38
 345 368 345 368 359.5 356.5 c 128,-1,39
 374 345 374 345 379.5 325.5 c 128,-1,40
 385 306 385 306 385 282 c 1,41,-1
 134 282 l 1,42,-1
 121 199 l 1,0,-1
210 677 m 1,43,44
 207 636 207 636 222 602.5 c 128,-1,45
 237 569 237 569 269 550.5 c 128,-1,46
 301 532 301 532 350 532 c 0,47,48
 400 532 400 532 437 551 c 128,-1,49
 474 570 474 570 498 602.5 c 128,-1,50
 522 635 522 635 531 676 c 1,51,-1
 431 677 l 1,52,53
 426 661 426 661 415.5 647.5 c 128,-1,54
 405 634 405 634 390 626 c 128,-1,55
 375 618 375 618 356 618 c 0,56,57
 338 619 338 619 326.5 627 c 128,-1,58
 315 635 315 635 310.5 648 c 128,-1,59
 306 661 306 661 306 677 c 1,60,-1
 210 677 l 1,43,44
EndSplineSet
EndChar

StartChar: edotaccent
Encoding: 279 279 198
Width: 557
GlyphClass: 2
Flags: W
LayerCount: 2
Fore
SplineSet
121 199 m 1,0,-1
 531 199 l 1,1,2
 534 210 534 210 535.5 219.5 c 128,-1,3
 537 229 537 229 538 237 c 0,4,5
 547 306 547 306 526 358.5 c 128,-1,6
 505 411 505 411 456 440.5 c 128,-1,7
 407 470 407 470 331 470 c 0,8,9
 262 470 262 470 206 446 c 128,-1,10
 150 422 150 422 111 379 c 128,-1,11
 72 336 72 336 53 279 c 0,12,13
 49 267 49 267 46.5 255 c 128,-1,14
 44 243 44 243 42 230 c 0,15,16
 33 163 33 163 56 108.5 c 128,-1,17
 79 54 79 54 132 22.5 c 128,-1,18
 185 -9 185 -9 261 -10 c 0,19,20
 321 -10 321 -10 368.5 7 c 128,-1,21
 416 24 416 24 453 54 c 128,-1,22
 490 84 490 84 520 124 c 1,23,-1
 389 159 l 1,24,25
 375 142 375 142 356.5 128.5 c 128,-1,26
 338 115 338 115 316 107.5 c 128,-1,27
 294 100 294 100 268 100 c 0,28,29
 236 102 236 102 217.5 119 c 128,-1,30
 199 136 199 136 193 165 c 128,-1,31
 187 194 187 194 191 230 c 1,32,-1
 198 254 l 2,33,34
 205 286 205 286 221 312 c 128,-1,35
 237 338 237 338 262 354.5 c 128,-1,36
 287 371 287 371 319 369 c 0,37,38
 345 368 345 368 359.5 356.5 c 128,-1,39
 374 345 374 345 379.5 325.5 c 128,-1,40
 385 306 385 306 385 282 c 1,41,-1
 134 282 l 1,42,-1
 121 199 l 1,0,-1
273 614 m 0,43,44
 270 579 270 579 292 555.5 c 128,-1,45
 314 532 314 532 349 532 c 0,46,47
 383 531 383 531 412.5 554.5 c 128,-1,48
 442 578 442 578 446 611 c 0,49,50
 450 646 450 646 428 670 c 128,-1,51
 406 694 406 694 371 694 c 0,52,53
 337 694 337 694 307.5 671 c 128,-1,54
 278 648 278 648 273 614 c 0,43,44
EndSplineSet
EndChar

StartChar: eogonek
Encoding: 281 281 199
Width: 557
GlyphClass: 2
Flags: W
LayerCount: 2
Fore
SplineSet
121 199 m 1,0,-1
 531 199 l 1,1,2
 534 210 534 210 535.5 219.5 c 128,-1,3
 537 229 537 229 538 237 c 0,4,5
 547 306 547 306 526 358.5 c 128,-1,6
 505 411 505 411 456 440.5 c 128,-1,7
 407 470 407 470 331 470 c 0,8,9
 262 470 262 470 206 446 c 128,-1,10
 150 422 150 422 111 379 c 128,-1,11
 72 336 72 336 53 279 c 0,12,13
 49 267 49 267 46.5 255 c 128,-1,14
 44 243 44 243 42 230 c 0,15,16
 33 163 33 163 56 108.5 c 128,-1,17
 79 54 79 54 132 22.5 c 128,-1,18
 185 -9 185 -9 261 -10 c 0,19,20
 306 -10 306 -10 340.5 2.5 c 128,-1,21
 375 15 375 15 404 35 c 128,-1,22
 433 55 433 55 461 78.5 c 128,-1,23
 489 102 489 102 520 124 c 1,24,-1
 389 159 l 1,25,26
 375 142 375 142 356.5 128.5 c 128,-1,27
 338 115 338 115 316 107.5 c 128,-1,28
 294 100 294 100 268 100 c 0,29,30
 236 102 236 102 217.5 119 c 128,-1,31
 199 136 199 136 193 165 c 128,-1,32
 187 194 187 194 191 230 c 1,33,-1
 198 254 l 2,34,35
 205 286 205 286 221 312 c 128,-1,36
 237 338 237 338 262 354.5 c 128,-1,37
 287 371 287 371 319 369 c 0,38,39
 345 368 345 368 359.5 356.5 c 128,-1,40
 374 345 374 345 379.5 325.5 c 128,-1,41
 385 306 385 306 385 282 c 1,42,-1
 134 282 l 1,43,-1
 121 199 l 1,0,-1
462 -40 m 1,44,45
 452 -47 452 -47 437.5 -53.5 c 128,-1,46
 423 -60 423 -60 409 -59 c 0,47,48
 393 -58 393 -58 387.5 -48 c 128,-1,49
 382 -38 382 -38 383 -24 c 0,50,51
 387 -6 387 -6 402 12 c 128,-1,52
 417 30 417 30 446 55.5 c 128,-1,53
 475 81 475 81 519 124 c 1,54,-1
 442 100 l 1,55,56
 410 82 410 82 375 60.5 c 128,-1,57
 340 39 340 39 314 11.5 c 128,-1,58
 288 -16 288 -16 282 -51 c 0,59,60
 276 -98 276 -98 307 -123 c 128,-1,61
 338 -148 338 -148 381 -148 c 0,62,63
 416 -148 416 -148 441.5 -137 c 128,-1,64
 467 -126 467 -126 484 -110 c 1,65,-1
 462 -40 l 1,44,45
EndSplineSet
EndChar

StartChar: ecaron
Encoding: 283 283 200
Width: 557
GlyphClass: 2
Flags: W
LayerCount: 2
Fore
SplineSet
121 199 m 1,0,-1
 531 199 l 1,1,2
 534 210 534 210 535.5 219.5 c 128,-1,3
 537 229 537 229 538 237 c 0,4,5
 547 306 547 306 526 358.5 c 128,-1,6
 505 411 505 411 456 440.5 c 128,-1,7
 407 470 407 470 331 470 c 0,8,9
 262 470 262 470 206 446 c 128,-1,10
 150 422 150 422 111 379 c 128,-1,11
 72 336 72 336 53 279 c 0,12,13
 49 267 49 267 46.5 255 c 128,-1,14
 44 243 44 243 42 230 c 0,15,16
 33 163 33 163 56 108.5 c 128,-1,17
 79 54 79 54 132 22.5 c 128,-1,18
 185 -9 185 -9 261 -10 c 0,19,20
 321 -10 321 -10 368.5 7 c 128,-1,21
 416 24 416 24 453 54 c 128,-1,22
 490 84 490 84 520 124 c 1,23,-1
 389 159 l 1,24,25
 375 142 375 142 356.5 128.5 c 128,-1,26
 338 115 338 115 316 107.5 c 128,-1,27
 294 100 294 100 268 100 c 0,28,29
 236 102 236 102 217.5 119 c 128,-1,30
 199 136 199 136 193 165 c 128,-1,31
 187 194 187 194 191 230 c 1,32,-1
 198 254 l 2,33,34
 205 286 205 286 221 312 c 128,-1,35
 237 338 237 338 262 354.5 c 128,-1,36
 287 371 287 371 319 369 c 0,37,38
 345 368 345 368 359.5 356.5 c 128,-1,39
 374 345 374 345 379.5 325.5 c 128,-1,40
 385 306 385 306 385 282 c 1,41,-1
 134 282 l 1,42,-1
 121 199 l 1,0,-1
364 658 m 1,43,-1
 290 742 l 1,44,-1
 178 673 l 1,45,-1
 350 531 l 1,46,-1
 562 668 l 1,47,-1
 467 742 l 1,48,-1
 364 658 l 1,43,-1
EndSplineSet
EndChar

StartChar: f
Encoding: 102 102 201
Width: 334
GlyphClass: 2
Flags: W
LayerCount: 2
Fore
SplineSet
68 460 m 1,0,-1
 46 335 l 1,1,-1
 354 335 l 1,2,-1
 376 460 l 1,3,-1
 68 460 l 1,0,-1
391 636 m 1,4,-1
 466 745 l 1,5,6
 446 764 446 764 417.5 780 c 128,-1,7
 389 796 389 796 346 796 c 0,8,9
 292 797 292 797 251.5 775.5 c 128,-1,10
 211 754 211 754 186 716.5 c 128,-1,11
 161 679 161 679 152 631 c 2,12,-1
 45 0 l 1,13,-1
 189 0 l 1,14,-1
 291 592 l 2,15,16
 294 611 294 611 302 627 c 128,-1,17
 310 643 310 643 322.5 652 c 128,-1,18
 335 661 335 661 351 661 c 0,19,20
 364 661 364 661 373.5 654 c 128,-1,21
 383 647 383 647 391 636 c 1,4,-1
EndSplineSet
EndChar

StartChar: g
Encoding: 103 103 202
Width: 592
GlyphClass: 2
Flags: W
LayerCount: 2
Fore
SplineSet
4 -53 m 1,0,1
 1.06349206349 -238 1.06349206349 -238 230 -238 c 0,2,3
 305 -238 305 -238 364 -209 c 128,-1,4
 423 -180 423 -180 462 -124.5 c 0,5,6
 498.958913345 -72.0582986318 498.958913345 -72.0582986318 513 10 c 2,7,-1
 590 460 l 1,8,-1
 446 460 l 1,9,-1
 368 11 l 2,10,11
 361 -30 361 -30 344 -56 c 0,12,13
 325 -85 325 -85 296.5 -101 c 128,-1,14
 268 -117 268 -117 233 -117 c 0,15,16
 148.423076923 -117 148.423076923 -117 146 -54 c 1,17,-1
 4 -53 l 1,0,1
43 237 m 0,18,19
 35 171 35 171 55 118 c 128,-1,20
 75 65 75 65 118 34 c 128,-1,21
 161 3 161 3 222 3 c 0,22,23
 267 3 267 3 306.5 20.5 c 128,-1,24
 346 38 346 38 375.5 70 c 128,-1,25
 405 102 405 102 424.5 144.5 c 128,-1,26
 444 187 444 187 450 236 c 0,27,28
 456 284 456 284 449.5 326 c 128,-1,29
 443 368 443 368 423 400 c 128,-1,30
 403 432 403 432 370.5 451 c 128,-1,31
 338 470 338 470 292 470 c 0,32,33
 231 470 231 470 177.5 440.5 c 128,-1,34
 124 411 124 411 88.5 358 c 128,-1,35
 53 305 53 305 43 237 c 0,18,19
198 236 m 0,36,37
 204 268 204 268 222.5 293.5 c 128,-1,38
 241 319 241 319 268.5 334 c 128,-1,39
 296 349 296 349 329 348 c 0,40,41
 349 348 349 348 365.5 339.5 c 128,-1,42
 382 331 382 331 392.5 315.5 c 128,-1,43
 403 300 403 300 407 280.5 c 128,-1,44
 411 261 411 261 408 237 c 0,45,46
 404 213 404 213 392 192 c 128,-1,47
 380 171 380 171 362.5 156 c 128,-1,48
 345 141 345 141 324.5 132.5 c 128,-1,49
 304 124 304 124 283 125 c 0,50,51
 252 126 252 126 231.5 140.5 c 128,-1,52
 211 155 211 155 202.5 180 c 128,-1,53
 194 205 194 205 198 236 c 0,36,37
EndSplineSet
EndChar

StartChar: gcircumflex
Encoding: 285 285 203
Width: 592
GlyphClass: 2
Flags: W
LayerCount: 2
Fore
SplineSet
6 -32 m 1,0,1
 5 -95 5 -95 29 -141.5 c 128,-1,2
 53 -188 53 -188 102.5 -213 c 128,-1,3
 152 -238 152 -238 228 -238 c 0,4,5
 302 -238 302 -238 362 -209 c 128,-1,6
 422 -180 422 -180 461.5 -124.5 c 128,-1,7
 501 -69 501 -69 513 10 c 2,8,-1
 590 460 l 1,9,-1
 446 460 l 1,10,-1
 368 11 l 2,11,12
 362 -26 362 -26 343 -55 c 128,-1,13
 324 -84 324 -84 296 -100.5 c 128,-1,14
 268 -117 268 -117 233 -117 c 0,15,16
 205 -117 205 -117 186 -106.5 c 128,-1,17
 167 -96 167 -96 158 -77.5 c 128,-1,18
 149 -59 149 -59 148 -33 c 1,19,-1
 6 -32 l 1,0,1
43 237 m 0,20,21
 35 171 35 171 55 118 c 128,-1,22
 75 65 75 65 118 34 c 128,-1,23
 161 3 161 3 222 3 c 0,24,25
 267 3 267 3 306.5 20.5 c 128,-1,26
 346 38 346 38 376 70 c 128,-1,27
 406 102 406 102 425.5 144.5 c 128,-1,28
 445 187 445 187 452 236 c 0,29,30
 458 284 458 284 451 326 c 128,-1,31
 444 368 444 368 424 400 c 128,-1,32
 404 432 404 432 371 451 c 128,-1,33
 338 470 338 470 292 470 c 0,34,35
 231 470 231 470 177.5 440.5 c 128,-1,36
 124 411 124 411 88.5 358 c 128,-1,37
 53 305 53 305 43 237 c 0,20,21
198 236 m 0,38,39
 204 268 204 268 223 293.5 c 128,-1,40
 242 319 242 319 270 334 c 128,-1,41
 298 349 298 349 329 348 c 0,42,43
 349 347 349 347 365.5 338.5 c 128,-1,44
 382 330 382 330 393 315 c 128,-1,45
 404 300 404 300 408.5 280.5 c 128,-1,46
 413 261 413 261 409 237 c 256,47,48
 405 213 405 213 392.5 192 c 128,-1,49
 380 171 380 171 362.5 156 c 128,-1,50
 345 141 345 141 324.5 132.5 c 128,-1,51
 304 124 304 124 283 125 c 0,52,53
 252 126 252 126 231.5 140.5 c 128,-1,54
 211 155 211 155 202.5 180 c 128,-1,55
 194 205 194 205 198 236 c 0,38,39
391 616 m 1,56,-1
 465 530 l 1,57,-1
 577 599 l 1,58,-1
 406 742 l 1,59,-1
 194 605 l 1,60,-1
 288 531 l 1,61,-1
 391 616 l 1,56,-1
EndSplineSet
EndChar

StartChar: gbreve
Encoding: 287 287 204
Width: 592
GlyphClass: 2
Flags: W
LayerCount: 2
Fore
SplineSet
6 -32 m 1,0,1
 5 -95 5 -95 29 -141.5 c 128,-1,2
 53 -188 53 -188 102.5 -213 c 128,-1,3
 152 -238 152 -238 228 -238 c 0,4,5
 302 -238 302 -238 362 -209 c 128,-1,6
 422 -180 422 -180 461.5 -124.5 c 128,-1,7
 501 -69 501 -69 513 10 c 2,8,-1
 590 460 l 1,9,-1
 446 460 l 1,10,-1
 368 11 l 2,11,12
 362 -26 362 -26 343 -55 c 128,-1,13
 324 -84 324 -84 296 -100.5 c 128,-1,14
 268 -117 268 -117 233 -117 c 0,15,16
 205 -117 205 -117 186 -106.5 c 128,-1,17
 167 -96 167 -96 158 -77.5 c 128,-1,18
 149 -59 149 -59 148 -33 c 1,19,-1
 6 -32 l 1,0,1
43 237 m 0,20,21
 35 171 35 171 55 118 c 128,-1,22
 75 65 75 65 118 34 c 128,-1,23
 161 3 161 3 222 3 c 0,24,25
 267 3 267 3 306.5 20.5 c 128,-1,26
 346 38 346 38 376 70 c 128,-1,27
 406 102 406 102 425.5 144.5 c 128,-1,28
 445 187 445 187 452 236 c 0,29,30
 458 284 458 284 451 326 c 128,-1,31
 444 368 444 368 424 400 c 128,-1,32
 404 432 404 432 371 451 c 128,-1,33
 338 470 338 470 292 470 c 0,34,35
 231 470 231 470 177.5 440.5 c 128,-1,36
 124 411 124 411 88.5 358 c 128,-1,37
 53 305 53 305 43 237 c 0,20,21
198 236 m 0,38,39
 204 268 204 268 223 293.5 c 128,-1,40
 242 319 242 319 270 334 c 128,-1,41
 298 349 298 349 329 348 c 0,42,43
 349 347 349 347 365.5 338.5 c 128,-1,44
 382 330 382 330 393 315 c 128,-1,45
 404 300 404 300 408.5 280.5 c 128,-1,46
 413 261 413 261 409 237 c 256,47,48
 405 213 405 213 392.5 192 c 128,-1,49
 380 171 380 171 362.5 156 c 128,-1,50
 345 141 345 141 324.5 132.5 c 128,-1,51
 304 124 304 124 283 125 c 0,52,53
 252 126 252 126 231.5 140.5 c 128,-1,54
 211 155 211 155 202.5 180 c 128,-1,55
 194 205 194 205 198 236 c 0,38,39
237 677 m 1,56,57
 234 636 234 636 249 602.5 c 128,-1,58
 264 569 264 569 296 550.5 c 128,-1,59
 328 532 328 532 378 532 c 0,60,61
 427 532 427 532 464 551 c 128,-1,62
 501 570 501 570 525 602.5 c 128,-1,63
 549 635 549 635 558 676 c 1,64,-1
 458 677 l 1,65,66
 453 661 453 661 443 647.5 c 128,-1,67
 433 634 433 634 418 626 c 128,-1,68
 403 618 403 618 384 618 c 0,69,70
 365 619 365 619 353.5 627 c 128,-1,71
 342 635 342 635 337.5 648 c 128,-1,72
 333 661 333 661 333 677 c 1,73,-1
 237 677 l 1,56,57
EndSplineSet
EndChar

StartChar: gdotaccent
Encoding: 289 289 205
Width: 592
GlyphClass: 2
Flags: W
LayerCount: 2
Fore
SplineSet
6 -32 m 1,0,1
 5 -95 5 -95 29 -141.5 c 128,-1,2
 53 -188 53 -188 102.5 -213 c 128,-1,3
 152 -238 152 -238 228 -238 c 0,4,5
 302 -238 302 -238 362 -209 c 128,-1,6
 422 -180 422 -180 461.5 -124.5 c 128,-1,7
 501 -69 501 -69 513 10 c 2,8,-1
 590 460 l 1,9,-1
 446 460 l 1,10,-1
 368 11 l 2,11,12
 362 -26 362 -26 343 -55 c 128,-1,13
 324 -84 324 -84 296 -100.5 c 128,-1,14
 268 -117 268 -117 233 -117 c 0,15,16
 205 -117 205 -117 186 -106.5 c 128,-1,17
 167 -96 167 -96 158 -77.5 c 128,-1,18
 149 -59 149 -59 148 -33 c 1,19,-1
 6 -32 l 1,0,1
43 237 m 0,20,21
 35 171 35 171 55 118 c 128,-1,22
 75 65 75 65 118 34 c 128,-1,23
 161 3 161 3 222 3 c 0,24,25
 267 3 267 3 306.5 20.5 c 128,-1,26
 346 38 346 38 376 70 c 128,-1,27
 406 102 406 102 425.5 144.5 c 128,-1,28
 445 187 445 187 452 236 c 0,29,30
 458 284 458 284 451 326 c 128,-1,31
 444 368 444 368 424 400 c 128,-1,32
 404 432 404 432 371 451 c 128,-1,33
 338 470 338 470 292 470 c 0,34,35
 231 470 231 470 177.5 440.5 c 128,-1,36
 124 411 124 411 88.5 358 c 128,-1,37
 53 305 53 305 43 237 c 0,20,21
198 236 m 0,38,39
 204 268 204 268 223 293.5 c 128,-1,40
 242 319 242 319 270 334 c 128,-1,41
 298 349 298 349 329 348 c 0,42,43
 349 347 349 347 365.5 338.5 c 128,-1,44
 382 330 382 330 393 315 c 128,-1,45
 404 300 404 300 408.5 280.5 c 128,-1,46
 413 261 413 261 409 237 c 256,47,48
 405 213 405 213 392.5 192 c 128,-1,49
 380 171 380 171 362.5 156 c 128,-1,50
 345 141 345 141 324.5 132.5 c 128,-1,51
 304 124 304 124 283 125 c 0,52,53
 252 126 252 126 231.5 140.5 c 128,-1,54
 211 155 211 155 202.5 180 c 128,-1,55
 194 205 194 205 198 236 c 0,38,39
293 629 m 0,56,57
 288 594 288 594 310.5 570.5 c 128,-1,58
 333 547 333 547 368 547 c 0,59,60
 402 546 402 546 431.5 569.5 c 128,-1,61
 461 593 461 593 465 626 c 0,62,63
 469 661 469 661 447 685 c 128,-1,64
 425 709 425 709 390 709 c 0,65,66
 355 710 355 710 326 686.5 c 128,-1,67
 297 663 297 663 293 629 c 0,56,57
EndSplineSet
EndChar

StartChar: uni0123
Encoding: 291 291 206
Width: 553
GlyphClass: 2
Flags: W
LayerCount: 2
Fore
SplineSet
-42 -32 m 1,0,1
 -41 -95 -41 -95 -16.5 -141.5 c 128,-1,2
 8 -188 8 -188 58 -213.5 c 128,-1,3
 108 -239 108 -239 183 -239 c 0,4,5
 257 -238 257 -238 316.5 -209 c 128,-1,6
 376 -180 376 -180 415.5 -124.5 c 128,-1,7
 455 -69 455 -69 468 10 c 2,8,-1
 544 460 l 1,9,-1
 398 460 l 1,10,-1
 321 10 l 2,11,12
 314 -27 314 -27 294.5 -55.5 c 128,-1,13
 275 -84 275 -84 246.5 -100.5 c 128,-1,14
 218 -117 218 -117 184 -117 c 0,15,16
 156 -116 156 -116 137.5 -106.5 c 128,-1,17
 119 -97 119 -97 110 -78 c 128,-1,18
 101 -59 101 -59 100 -34 c 1,19,-1
 -42 -32 l 1,0,1
-4 236 m 0,20,21
 -12 170 -12 170 8.5 117 c 128,-1,22
 29 64 29 64 73 33.5 c 128,-1,23
 117 3 117 3 177 3 c 0,24,25
 223 3 223 3 262 21 c 128,-1,26
 301 39 301 39 330.5 70.5 c 128,-1,27
 360 102 360 102 379.5 144.5 c 128,-1,28
 399 187 399 187 405 236 c 0,29,30
 411 284 411 284 403.5 326 c 128,-1,31
 396 368 396 368 375.5 400.5 c 128,-1,32
 355 433 355 433 322 451.5 c 128,-1,33
 289 470 289 470 242 470 c 0,34,35
 182 470 182 470 128.5 440 c 128,-1,36
 75 410 75 410 40 357.5 c 128,-1,37
 5 305 5 305 -4 236 c 0,20,21
152 236 m 0,38,39
 158 268 158 268 177 293.5 c 128,-1,40
 196 319 196 319 224.5 334 c 128,-1,41
 253 349 253 349 283 348 c 0,42,43
 304 347 304 347 320 338.5 c 128,-1,44
 336 330 336 330 346 315 c 128,-1,45
 356 300 356 300 359.5 280 c 128,-1,46
 363 260 363 260 360 237 c 0,47,48
 356 213 356 213 344 192 c 128,-1,49
 332 171 332 171 314.5 156 c 128,-1,50
 297 141 297 141 276.5 132.5 c 128,-1,51
 256 124 256 124 234 125 c 0,52,53
 204 126 204 126 184 141 c 128,-1,54
 164 156 164 156 156 181 c 128,-1,55
 148 206 148 206 152 236 c 0,38,39
325 542 m 1,56,-1
 486 780 l 1,57,-1
 379 824 l 1,58,-1
 186 601 l 1,59,-1
 325 542 l 1,56,-1
EndSplineSet
EndChar

StartChar: h
Encoding: 104 104 207
Width: 551
GlyphClass: 2
Flags: W
LayerCount: 2
Fore
SplineSet
313 780 m 1,0,-1
 163 780 l 1,1,-1
 29 0 l 1,2,-1
 179 0 l 1,3,-1
 313 780 l 1,0,-1
368 280 m 2,4,-1
 319 0 l 1,5,-1
 468 0 l 1,6,-1
 520 302 l 2,7,8
 527 353 527 353 517 392.5 c 128,-1,9
 507 432 507 432 476.5 454.5 c 128,-1,10
 446 477 446 477 391 477 c 0,11,12
 334 477 334 477 294.5 449 c 128,-1,13
 255 421 255 421 232 376.5 c 128,-1,14
 209 332 209 332 200 281 c 1,15,-1
 227 280 l 1,16,17
 232 303 232 303 245 322.5 c 128,-1,18
 258 342 258 342 277.5 354 c 128,-1,19
 297 366 297 366 321 364 c 256,20,21
 345 362 345 362 356 350.5 c 128,-1,22
 367 339 367 339 369 320.5 c 128,-1,23
 371 302 371 302 368 280 c 2,4,-1
EndSplineSet
EndChar

StartChar: hcircumflex
Encoding: 293 293 208
Width: 551
GlyphClass: 2
Flags: W
LayerCount: 2
Fore
SplineSet
313 780 m 1,0,-1
 163 780 l 1,1,-1
 29 0 l 1,2,-1
 179 0 l 1,3,-1
 313 780 l 1,0,-1
368 280 m 2,4,-1
 319 0 l 1,5,-1
 468 0 l 1,6,-1
 520 302 l 2,7,8
 526 353 526 353 516.5 392.5 c 128,-1,9
 507 432 507 432 476.5 454.5 c 128,-1,10
 446 477 446 477 391 477 c 0,11,12
 334 477 334 477 294 449 c 128,-1,13
 254 421 254 421 230 376.5 c 128,-1,14
 206 332 206 332 196 281 c 1,15,-1
 227 281 l 1,16,17
 233 303 233 303 246 322.5 c 128,-1,18
 259 342 259 342 278 354 c 128,-1,19
 297 366 297 366 321 364 c 256,20,21
 345 362 345 362 356 350.5 c 128,-1,22
 367 339 367 339 369 320.5 c 128,-1,23
 371 302 371 302 368 280 c 2,4,-1
312 925 m 1,24,-1
 386 840 l 1,25,-1
 498 909 l 1,26,-1
 326 1051 l 1,27,-1
 115 914 l 1,28,-1
 209 840 l 1,29,-1
 312 925 l 1,24,-1
EndSplineSet
EndChar

StartChar: i
Encoding: 105 105 209
Width: 268
GlyphClass: 2
Flags: W
LayerCount: 2
Fore
SplineSet
127 633 m 256,0,1
 127 597 127 597 153 574 c 128,-1,2
 179 551 179 551 215 551 c 0,3,4
 252 551 252 551 277.5 574 c 128,-1,5
 303 597 303 597 303 633 c 256,6,7
 303 669 303 669 277.5 691.5 c 128,-1,8
 252 714 252 714 215 714 c 0,9,10
 179 714 179 714 153 691.5 c 128,-1,11
 127 669 127 669 127 633 c 256,0,1
113 460 m 1,12,-1
 35 0 l 1,13,-1
 180 0 l 1,14,-1
 258 460 l 1,15,-1
 113 460 l 1,12,-1
EndSplineSet
EndChar

StartChar: igrave
Encoding: 236 236 210
Width: 268
GlyphClass: 2
Flags: W
LayerCount: 2
Fore
SplineSet
113 460 m 1,0,-1
 35 0 l 1,1,-1
 179 0 l 1,2,-1
 258 460 l 1,3,-1
 113 460 l 1,0,-1
50 690 m 1,4,-1
 202 538 l 1,5,-1
 288 578 l 1,6,-1
 167 741 l 1,7,-1
 50 690 l 1,4,-1
EndSplineSet
EndChar

StartChar: iacute
Encoding: 237 237 211
Width: 268
GlyphClass: 2
Flags: W
LayerCount: 2
Fore
SplineSet
113 460 m 1,0,-1
 35 0 l 1,1,-1
 179 0 l 1,2,-1
 258 460 l 1,3,-1
 113 460 l 1,0,-1
392 686 m 1,4,-1
 284 740 l 1,5,-1
 114 584 l 1,6,-1
 195 539 l 1,7,-1
 392 686 l 1,4,-1
EndSplineSet
EndChar

StartChar: icircumflex
Encoding: 238 238 212
Width: 268
GlyphClass: 2
Flags: W
LayerCount: 2
Fore
SplineSet
113 460 m 1,0,-1
 35 0 l 1,1,-1
 179 0 l 1,2,-1
 258 460 l 1,3,-1
 113 460 l 1,0,-1
216 619 m 1,4,-1
 290 534 l 1,5,-1
 401 603 l 1,6,-1
 230 745 l 1,7,-1
 18 609 l 1,8,-1
 113 535 l 1,9,-1
 216 619 l 1,4,-1
EndSplineSet
EndChar

StartChar: idieresis
Encoding: 239 239 213
Width: 268
GlyphClass: 2
Flags: W
LayerCount: 2
Fore
SplineSet
113 460 m 1,0,-1
 35 0 l 1,1,-1
 179 0 l 1,2,-1
 258 460 l 1,3,-1
 113 460 l 1,0,-1
245 625 m 0,4,5
 241 591 241 591 263.5 567 c 128,-1,6
 286 543 286 543 321 543 c 256,7,8
 356 543 356 543 385 566 c 128,-1,9
 414 589 414 589 418 623 c 256,10,11
 422 657 422 657 400 681 c 128,-1,12
 378 705 378 705 343 705 c 0,13,14
 308 706 308 706 279 682.5 c 128,-1,15
 250 659 250 659 245 625 c 0,4,5
9 625 m 256,16,17
 5 591 5 591 27.5 567 c 128,-1,18
 50 543 50 543 85 543 c 0,19,20
 119 543 119 543 148.5 566 c 128,-1,21
 178 589 178 589 182 623 c 256,22,23
 186 657 186 657 163.5 681 c 128,-1,24
 141 705 141 705 106 705 c 0,25,26
 72 706 72 706 42.5 682.5 c 128,-1,27
 13 659 13 659 9 625 c 256,16,17
EndSplineSet
EndChar

StartChar: itilde
Encoding: 297 297 214
Width: 268
GlyphClass: 2
Flags: W
LayerCount: 2
Fore
SplineSet
113 460 m 1,0,-1
 35 0 l 1,1,-1
 179 0 l 1,2,-1
 258 460 l 1,3,-1
 113 460 l 1,0,-1
18 598 m 1,4,-1
 81 535 l 1,5,6
 87 549 87 549 99 566.5 c 128,-1,7
 111 584 111 584 137 585 c 0,8,9
 160 586 160 586 179 573.5 c 128,-1,10
 198 561 198 561 218 547.5 c 128,-1,11
 238 534 238 534 262 533 c 0,12,13
 292 532 292 532 319.5 545 c 128,-1,14
 347 558 347 558 369 577.5 c 128,-1,15
 391 597 391 597 404 616 c 1,16,-1
 343 692 l 1,17,18
 328 672 328 672 309 656.5 c 128,-1,19
 290 641 290 641 269 640 c 0,20,21
 244 639 244 639 226.5 651.5 c 128,-1,22
 209 664 209 664 191 677.5 c 128,-1,23
 173 691 173 691 146 691 c 0,24,25
 115 692 115 692 90 678 c 128,-1,26
 65 664 65 664 46.5 643 c 128,-1,27
 28 622 28 622 18 598 c 1,4,-1
EndSplineSet
EndChar

StartChar: imacron
Encoding: 299 299 215
Width: 268
GlyphClass: 2
Flags: W
LayerCount: 2
Fore
SplineSet
113 460 m 1,0,-1
 35 0 l 1,1,-1
 179 0 l 1,2,-1
 258 460 l 1,3,-1
 113 460 l 1,0,-1
16 531 m 1,4,-1
 379 531 l 1,5,-1
 402 662 l 1,6,-1
 39 662 l 1,7,-1
 16 531 l 1,4,-1
EndSplineSet
EndChar

StartChar: ibreve
Encoding: 301 301 216
Width: 268
GlyphClass: 2
Flags: W
LayerCount: 2
Fore
SplineSet
113 460 m 1,0,-1
 35 0 l 1,1,-1
 179 0 l 1,2,-1
 258 460 l 1,3,-1
 113 460 l 1,0,-1
61 677 m 1,4,5
 58 636 58 636 72.5 602.5 c 128,-1,6
 87 569 87 569 119.5 550.5 c 128,-1,7
 152 532 152 532 201 532 c 0,8,9
 251 532 251 532 288 551 c 128,-1,10
 325 570 325 570 349 602.5 c 128,-1,11
 373 635 373 635 381 676 c 1,12,-1
 282 677 l 1,13,14
 277 661 277 661 266.5 647.5 c 128,-1,15
 256 634 256 634 241 626 c 128,-1,16
 226 618 226 618 207 618 c 0,17,18
 189 619 189 619 177.5 627 c 128,-1,19
 166 635 166 635 161.5 648 c 128,-1,20
 157 661 157 661 156 677 c 1,21,-1
 61 677 l 1,4,5
EndSplineSet
EndChar

StartChar: iogonek
Encoding: 303 303 217
Width: 268
GlyphClass: 2
Flags: W
LayerCount: 2
Fore
SplineSet
129 634 m 256,0,1
 125 600 125 600 147.5 576 c 128,-1,2
 170 552 170 552 204 552 c 0,3,4
 239 552 239 552 268 575 c 128,-1,5
 297 598 297 598 301 632 c 0,6,7
 306 666 306 666 283.5 690 c 128,-1,8
 261 714 261 714 225 714 c 0,9,10
 191 715 191 715 162 691.5 c 128,-1,11
 133 668 133 668 129 634 c 256,0,1
113 460 m 1,12,-1
 35 0 l 1,13,-1
 179 0 l 1,14,-1
 258 460 l 1,15,-1
 113 460 l 1,12,-1
139 -111 m 1,16,17
 128 -118 128 -118 114 -124.5 c 128,-1,18
 100 -131 100 -131 85 -130 c 0,19,20
 69 -129 69 -129 63.5 -119 c 128,-1,21
 58 -109 58 -109 60 -94 c 0,22,23
 64 -74 64 -74 78 -58 c 128,-1,24
 92 -42 92 -42 112.5 -27.5 c 128,-1,25
 133 -13 133 -13 155 0 c 1,26,-1
 115 25 l 1,27,28
 82 9 82 9 47.5 -11 c 128,-1,29
 13 -31 13 -31 -11.5 -57.5 c 128,-1,30
 -36 -84 -36 -84 -42 -119 c 0,31,32
 -47 -166 -47 -166 -17 -192.5 c 128,-1,33
 13 -219 13 -219 59 -220 c 0,34,35
 94 -220 94 -220 118.5 -208.5 c 128,-1,36
 143 -197 143 -197 161 -181 c 1,37,-1
 139 -111 l 1,16,17
EndSplineSet
EndChar

StartChar: j
Encoding: 106 106 218
Width: 264
GlyphClass: 2
Flags: W
LayerCount: 2
Fore
SplineSet
123 633 m 256,0,1
 123 597 123 597 148.5 574 c 128,-1,2
 174 551 174 551 210 551 c 0,3,4
 247 551 247 551 272.5 574 c 128,-1,5
 298 597 298 597 298 633 c 256,6,7
 298 669 298 669 272.5 691.5 c 128,-1,8
 247 714 247 714 210 714 c 0,9,10
 174 714 174 714 148.5 691.5 c 128,-1,11
 123 669 123 669 123 633 c 256,0,1
-76 -77 m 1,12,-1
 -151 -186 l 1,13,14
 -130 -206 -130 -206 -101 -222 c 128,-1,15
 -72 -238 -72 -238 -29 -238 c 0,16,17
 26 -238 26 -238 66 -217 c 128,-1,18
 106 -196 106 -196 130.5 -158 c 128,-1,19
 155 -120 155 -120 163 -72 c 2,20,-1
 254 460 l 1,21,-1
 110 460 l 1,22,-1
 25 -34 l 2,23,24
 23 -52 23 -52 15.5 -67.5 c 128,-1,25
 8 -83 8 -83 -4 -93 c 128,-1,26
 -16 -103 -16 -103 -33 -103 c 0,27,28
 -46 -103 -46 -103 -57.5 -95.5 c 128,-1,29
 -69 -88 -69 -88 -76 -77 c 1,12,-1
EndSplineSet
EndChar

StartChar: jcircumflex
Encoding: 309 309 219
Width: 264
GlyphClass: 2
Flags: W
LayerCount: 2
Fore
SplineSet
-76 -77 m 1,0,-1
 -151 -186 l 1,1,2
 -130 -205 -130 -205 -102 -221.5 c 128,-1,3
 -74 -238 -74 -238 -31 -238 c 0,4,5
 24 -238 24 -238 64.5 -217 c 128,-1,6
 105 -196 105 -196 130 -158.5 c 128,-1,7
 155 -121 155 -121 163 -72 c 2,8,-1
 254 460 l 1,9,-1
 110 460 l 1,10,-1
 25 -34 l 2,11,12
 22 -52 22 -52 14 -68 c 128,-1,13
 6 -84 6 -84 -7 -93.5 c 128,-1,14
 -20 -103 -20 -103 -36 -103 c 0,15,16
 -49 -103 -49 -103 -58.5 -95.5 c 128,-1,17
 -68 -88 -68 -88 -76 -77 c 1,0,-1
211 616 m 1,18,-1
 285 530 l 1,19,-1
 397 599 l 1,20,-1
 226 742 l 1,21,-1
 14 605 l 1,22,-1
 109 531 l 1,23,-1
 211 616 l 1,18,-1
EndSplineSet
EndChar

StartChar: k
Encoding: 107 107 220
Width: 559
GlyphClass: 2
Flags: W
LayerCount: 2
Fore
SplineSet
161 780 m 1,0,-1
 28 0 l 1,1,-1
 171 0 l 1,2,-1
 305 780 l 1,3,-1
 161 780 l 1,0,-1
407 460 m 1,4,-1
 188 274 l 1,5,-1
 356 0 l 1,6,-1
 525 0 l 1,7,-1
 360 265 l 1,8,-1
 591 460 l 1,9,-1
 407 460 l 1,4,-1
EndSplineSet
EndChar

StartChar: uni0137
Encoding: 311 311 221
Width: 559
GlyphClass: 2
Flags: W
LayerCount: 2
Fore
SplineSet
161 780 m 1,0,-1
 28 0 l 1,1,-1
 171 0 l 1,2,-1
 305 780 l 1,3,-1
 161 780 l 1,0,-1
407 460 m 1,4,-1
 188 274 l 1,5,-1
 356 0 l 1,6,-1
 525 0 l 1,7,-1
 361 267 l 1,8,-1
 591 460 l 1,9,-1
 407 460 l 1,4,-1
210 -61 m 1,10,-1
 81 -317 l 1,11,-1
 192 -341 l 1,12,-1
 357 -94 l 1,13,-1
 210 -61 l 1,10,-1
EndSplineSet
EndChar

StartChar: l
Encoding: 108 108 222
Width: 262
GlyphClass: 2
Flags: W
LayerCount: 2
Fore
SplineSet
162 780 m 1,0,-1
 30 0 l 1,1,-1
 178 0 l 1,2,-1
 313 780 l 1,3,-1
 162 780 l 1,0,-1
EndSplineSet
EndChar

StartChar: lacute
Encoding: 314 314 223
Width: 262
GlyphClass: 2
Flags: W
LayerCount: 2
Fore
SplineSet
162 780 m 1,0,-1
 30 0 l 1,1,-1
 178 0 l 1,2,-1
 313 780 l 1,3,-1
 162 780 l 1,0,-1
431 987 m 1,4,-1
 323 1042 l 1,5,-1
 152 886 l 1,6,-1
 234 841 l 1,7,-1
 431 987 l 1,4,-1
EndSplineSet
EndChar

StartChar: uni013C
Encoding: 316 316 224
Width: 262
GlyphClass: 2
Flags: W
LayerCount: 2
Fore
SplineSet
162 780 m 1,0,-1
 30 0 l 1,1,-1
 178 0 l 1,2,-1
 313 780 l 1,3,-1
 162 780 l 1,0,-1
60 -61 m 1,4,-1
 -69 -317 l 1,5,-1
 43 -341 l 1,6,-1
 208 -94 l 1,7,-1
 60 -61 l 1,4,-1
EndSplineSet
EndChar

StartChar: lcaron
Encoding: 318 318 225
Width: 262
GlyphClass: 2
Flags: W
LayerCount: 2
Fore
SplineSet
162 780 m 1,0,-1
 30 0 l 1,1,-1
 178 0 l 1,2,-1
 313 780 l 1,3,-1
 162 780 l 1,0,-1
442 779 m 1,4,-1
 313 523 l 1,5,-1
 425 499 l 1,6,-1
 589 746 l 1,7,-1
 442 779 l 1,4,-1
EndSplineSet
EndChar

StartChar: m
Encoding: 109 109 226
Width: 796
GlyphClass: 2
Flags: W
LayerCount: 2
Fore
SplineSet
763 296 m 2,0,1
 769 345 769 345 761.5 384.5 c 128,-1,2
 754 424 754 424 727.5 447.5 c 128,-1,3
 701 471 701 471 647 471 c 0,4,5
 599 471 599 471 560 449.5 c 128,-1,6
 521 428 521 428 492 392 c 1,7,8
 487 416 487 416 473 434 c 128,-1,9
 459 452 459 452 435.5 461.5 c 128,-1,10
 412 471 412 471 377 471 c 0,11,12
 347 471 347 471 322 461.5 c 128,-1,13
 297 452 297 452 277 436 c 128,-1,14
 257 420 257 420 242 397 c 1,15,-1
 252 460 l 1,16,-1
 108 460 l 1,17,-1
 29 0 l 1,18,-1
 173 0 l 1,19,-1
 222 284 l 2,20,21
 226 309 226 309 237.5 326.5 c 128,-1,22
 249 344 249 344 266 354 c 128,-1,23
 283 364 283 364 304 364 c 0,24,25
 324 364 324 364 333 351.5 c 128,-1,26
 342 339 342 339 344 320.5 c 128,-1,27
 346 302 346 302 343 281 c 2,28,-1
 293 0 l 1,29,-1
 442 0 l 1,30,-1
 490 281 l 2,31,32
 494 307 494 307 505.5 325 c 128,-1,33
 517 343 517 343 534.5 353.5 c 128,-1,34
 552 364 552 364 573 364 c 0,35,36
 595 364 595 364 603.5 351.5 c 128,-1,37
 612 339 612 339 613.5 320 c 128,-1,38
 615 301 615 301 613 280 c 2,39,-1
 562 0 l 1,40,-1
 713 0 l 1,41,-1
 763 296 l 2,0,1
EndSplineSet
EndChar

StartChar: n
Encoding: 110 110 227
Width: 557
GlyphClass: 2
Flags: W
LayerCount: 2
Fore
SplineSet
368 280 m 2,0,-1
 319 0 l 1,1,-1
 474 0 l 1,2,-1
 525 296 l 2,3,4
 532 346 532 346 520.5 385.5 c 128,-1,5
 509 425 509 425 477 448 c 128,-1,6
 445 471 445 471 389 471 c 0,7,8
 341 471 341 471 306.5 450.5 c 128,-1,9
 272 430 272 430 248 396 c 1,10,-1
 258 460 l 1,11,-1
 108 460 l 1,12,-1
 29 0 l 1,13,-1
 179 0 l 1,14,-1
 228 282 l 2,15,16
 232 307 232 307 244 325.5 c 128,-1,17
 256 344 256 344 275 354 c 128,-1,18
 294 364 294 364 318 364 c 0,19,20
 343 364 343 364 354.5 351.5 c 128,-1,21
 366 339 366 339 368.5 320.5 c 128,-1,22
 371 302 371 302 368 280 c 2,0,-1
EndSplineSet
EndChar

StartChar: ntilde
Encoding: 241 241 228
Width: 557
GlyphClass: 2
Flags: W
LayerCount: 2
Fore
SplineSet
258 460 m 1,0,-1
 108 460 l 1,1,-1
 29 0 l 1,2,-1
 179 0 l 1,3,-1
 258 460 l 1,0,-1
368 280 m 2,4,-1
 319 0 l 1,5,-1
 474 0 l 1,6,-1
 525 296 l 2,7,8
 531 347 531 347 520 386.5 c 128,-1,9
 509 426 509 426 477 448.5 c 128,-1,10
 445 471 445 471 389 471 c 256,11,12
 333 471 333 471 293 443 c 128,-1,13
 253 415 253 415 229 370.5 c 128,-1,14
 205 326 205 326 196 275 c 1,15,-1
 227 281 l 1,16,17
 232 303 232 303 245 322.5 c 128,-1,18
 258 342 258 342 277.5 354 c 128,-1,19
 297 366 297 366 321 364 c 0,20,21
 344 362 344 362 355 350.5 c 128,-1,22
 366 339 366 339 368.5 320.5 c 128,-1,23
 371 302 371 302 368 280 c 2,4,-1
163 598 m 1,24,-1
 226 535 l 1,25,26
 232 549 232 549 244 566.5 c 128,-1,27
 256 584 256 584 282 585 c 0,28,29
 305 586 305 586 324.5 573.5 c 128,-1,30
 344 561 344 561 363.5 547.5 c 128,-1,31
 383 534 383 534 408 533 c 0,32,33
 438 532 438 532 465 545 c 128,-1,34
 492 558 492 558 514 577.5 c 128,-1,35
 536 597 536 597 549 616 c 1,36,-1
 488 692 l 1,37,38
 473 672 473 672 454.5 656.5 c 128,-1,39
 436 641 436 641 415 640 c 0,40,41
 390 639 390 639 372.5 651.5 c 128,-1,42
 355 664 355 664 337 677.5 c 128,-1,43
 319 691 319 691 291 691 c 0,44,45
 260 692 260 692 235 678 c 128,-1,46
 210 664 210 664 191.5 643 c 128,-1,47
 173 622 173 622 163 598 c 1,24,-1
EndSplineSet
EndChar

